<svg width="600" height="518" viewBox="0 0 600 518" fill="none" xmlns="http://www.w3.org/2000/svg">
<g clip-path="url(#clip0_5560_2)">
<path d="M146.3 395.9C142.4 392.3 138.5 388.8 134.7 385.2C128.4 379.1 122.5 372.6 117 365.9C108.2 355.2 100.4 343.8 93.4997 331.7C84.7997 316.4 77.7997 300.4 72.1997 283.7C68.4997 272.5 65.5997 261.1 63.2997 249.5C62.0997 243.2 61.0997 236.8 60.2997 230.4C58.4997 216.1 57.9997 201.7 58.3997 187.2C58.5997 181 58.9997 174.9 59.6997 168.8C62.3997 145.1 67.9997 122.2 78.4997 100.7C79.8997 97.9 80.2997 95.5 79.5997 92.4C78.3997 87.2 79.2997 82.1 80.9997 77.1C84.3997 67.4 90.4997 59.7 98.3997 53.3C103.9 48.9 110 45.6 117 44C117.6 43.9 118.1 43.6 118.7 43.3C121.2 43.3 123.6 43.3 126.1 43.3C125 46.4 123.9 49.6 122.8 52.7C119.7 61.3 116.2 69.7 111.4 77.5C106.5 85.3 100.5 92 92.3997 96.7C91.0998 97.4 89.7997 98.2 88.3997 98.8C87.3997 99.2 86.7997 99.9 86.2997 100.8C79.9997 113 75.4997 125.8 72.1997 139.1C70.2997 146.8 68.8997 154.7 67.7997 162.6C65.7997 177.5 65.2997 192.4 65.9997 207.3C66.3997 216.7 67.4997 226.2 68.9997 235.5C72.0997 254.3 77.0997 272.6 84.0997 290.3C92.1997 310.4 102.6 329.2 115.6 346.5C124.7 358.6 135 369.8 146.3 379.8C152.4 385.2 158.7 390.2 165.3 394.9C165.6 395.1 165.8 395.4 166.1 395.6C159.5 395.9 152.9 395.9 146.3 395.9Z" fill="#F2F2F3"/>
<path d="M0 261.4C6 261.3 12 261.4 18 261.7C27.6 262.2 37.1 263.6 46 267.7C52.6 270.7 58.2 275 62.6 280.7C63.2 281.5 62.7 281.8 62.3 282.3C58.4 286.4 53.5 288.9 47.9 289.7C34.5 291.5 22.9 287.2 12.4 279.3C7 275.3 2.8 270.2 0.6 263.8C0.5 263.6 0.4 263.2 0.1 263.6C0.1 263.4 0.1 263.2 0.1 263.1C0.2 263.2 0.3 263.1 0.3 263C0.3 262.9 0.2 262.8 0.1 262.9C0 262.3 0 261.9 0 261.4Z" fill="#F2F2F3"/>
<path d="M0 262.8C0.1 262.7 0.2 262.8 0.2 262.9C0.2 263.1 0.1 263.1 0 263C0 263 0 262.9 0 262.8Z" fill="#F2F2F3"/>
<path d="M173.6 298.6C176.8 302.5 178.7 306.7 179.7 311.4C182.3 323.4 180.8 335 176 346.2C173.3 352.6 169.6 358.2 164.3 362.8C159.6 366.9 154.2 369.3 147.9 369.9C146.8 370 146.4 369.6 146.2 368.6C144 359.1 144.6 349.7 147.6 340.4C151.1 329.6 157.1 320.2 163.8 311.2C167.1 307 170.3 302.9 173.6 298.6Z" fill="#F2F2F3"/>
<path d="M109.5 326.1C110 315.3 114 305.8 120.3 297.1C126.2 289 133.5 282.3 141.3 276.1C144.9 273.3 148.5 270.5 152.1 267.6C152.9 266.9 153.3 267 153.6 268C155.4 272.6 156.1 277.4 155.8 282.3C155 294.1 150.7 304.4 143.6 313.7C138.3 320.6 131.8 326.1 123.4 328.7C119.4 330 115.3 330.2 111.1 329.7C109.8 329.5 109.3 329 109.5 327.7C109.4 327.2 109.4 326.7 109.5 326.1Z" fill="#F2F2F3"/>
<path d="M196.7 395.9C192.4 395.9 188.2 395.9 183.9 395.9C181.3 388.7 180.5 381.2 181.2 373.6C182.2 364.1 185.1 355.1 188.9 346.3C191.8 339.6 195.3 333.2 198.6 326.7C199.1 325.7 199.4 325.9 200.1 326.5C205.3 331.4 208.3 337.6 210 344.4C213.2 357.4 212.3 370.1 206.9 382.4C204.8 387.2 201.9 391.4 197.9 394.8C197.4 395.1 197 395.5 196.7 395.9Z" fill="#F2F2F3"/>
<path d="M143.4 241.5C144.2 245.9 143.9 250.1 142.3 254.1C136.3 268.9 125.4 278.3 110.1 282.3C103.9 283.9 97.7 283.4 91.8 280.7C90.7 280.2 90.5 279.8 90.9 278.6C93.5 270.7 98.4 264.4 104.8 259.3C113.3 252.7 123 248.6 133.1 245.1C136.5 243.9 139.9 242.7 143.4 241.5Z" fill="#F2F2F3"/>
<path d="M131.8 204.8C131.7 211.7 129.1 217.7 125.3 223.3C119 232.3 110.9 239 100.3 242.2C93.8998 244.2 87.4998 244 81.3998 240.8C80.3998 240.3 80.0998 239.9 80.5998 238.8C83.6998 230.3 89.0998 223.7 96.2998 218.3C104 212.5 112.8 208.8 121.8 205.6C124.7 204.6 127.7 203.6 130.6 202.5C131.7 202.1 132.1 202.3 131.9 203.4C131.8 203.9 131.8 204.3 131.8 204.8Z" fill="#F2F2F3"/>
<path d="M87.4998 204.6C81.8998 204.7 77.4998 203.4 73.5998 200.7C72.8998 200.2 72.7998 199.9 73.1998 199.1C76.8998 191.6 82.5998 186.1 89.6998 181.9C97.1998 177.4 105.5 174.9 113.9 172.9C117.3 172.1 120.8 171.5 124.2 170.6C125.3 170.3 125.4 170.5 125.3 171.6C124.8 178.2 121.8 183.7 117.6 188.6C111.2 196.1 103.4 201.3 93.7998 203.8C91.2998 204.4 88.9998 204.5 87.4998 204.6Z" fill="#F2F2F3"/>
<path d="M86.4001 165C82.6001 165.2 79.1001 164.1 75.7001 162.3C75.0001 161.9 74.7001 161.5 75.1001 160.6C78.1001 152.8 83.4001 146.8 90.2001 142.1C96.0001 138 102.5 135.2 109.2 132.9C113.5 131.4 117.9 130.1 122.3 128.7C123.2 128.4 123.4 128.6 123.4 129.5C123.4 134.1 122.2 138.4 120 142.4C113.9 153.3 105 160.9 92.8001 164.3C90.7001 164.8 88.6001 165.1 86.4001 165Z" fill="#F2F2F3"/>
<path d="M95.5 127.8C91.5 127.9 88.1 127 85 125.2C84.2 124.7 84.1 124.3 84.5 123.5C88.4 114.4 95.4 108.4 103.9 104.1C111.3 100.3 119.3 98.2 127.3 95.9C128.3 95.6 128.3 96.1 128.3 96.8C128.1 101.5 126.7 105.8 124.1 109.6C118.3 118.5 110.5 124.7 100 127.3C98.4 127.6 96.8 127.7 95.5 127.8Z" fill="#F2F2F3"/>
<path d="M135.6 397.1C135.6 398.3 135.6 399.5 135.6 400.7C134.5 402.8 133.6 405.1 132.3 407.2C127.8 414.2 121.5 418.9 114 422.2C107.3 425.2 100.3 426.8 92.9998 427.4C81.6998 428.3 70.7998 427.1 60.2998 422.7C54.3998 420.2 49.0998 416.8 44.9998 411.8C44.4998 411.2 44.5998 411 45.1998 410.7C55.4998 405.7 65.6998 400.7 76.4998 396.9C84.3998 394.1 92.3998 392 100.8 391.2C113 389.9 124.6 391.6 135.6 397.1Z" fill="#F2F2F3"/>
<path d="M22.5996 356.3C30.5996 354.1 38.3996 351.9 46.3996 350.3C51.4996 349.3 56.5996 348.5 61.7996 348.2C65.9996 347.9 70.0996 347.9 74.2996 348.3C84.7996 349.3 94.4996 352.6 103 359.1C103.7 359.6 103.4 360 103.1 360.4C100.5 365.5 96.6996 369.5 91.6996 372.5C86.4996 375.6 80.8996 377.2 74.9996 377.9C60.7996 379.6 47.4996 376.8 35.2996 369.4C29.9996 366.3 25.5996 362 22.5996 356.3Z" fill="#F2F2F3"/>
<path d="M37.1 309.3C48.1001 309.3 57.5 310.3 66.5 313.6C73.8 316.3 80.1001 320.4 85.4001 326.1C86.0001 326.8 85.8001 327.1 85.4001 327.7C80.9001 333.5 75 336.8 67.9001 338.1C57.0001 340.2 46.7001 338.1 36.8001 333.7C30.2001 330.8 24.3001 326.8 19.5001 321.3C17.0001 318.5 15.0001 315.3 13.7001 311.7C13.4001 310.7 13.7001 310.6 14.5001 310.6C22.6001 310.2 30.5 309.2 37.1 309.3Z" fill="#F2F2F3"/>
<path d="M135.6 427.5C135.6 434.7 135.6 442 135.6 449.2C135.6 454.6 135.6 460.1 135.5 465.5C129.3 467.7 123 469.2 116.4 469.6C108.3 470.2 100.3 469.6 92.7002 466.5C90.5002 465.6 88.5002 464.5 86.5002 463.2C85.9002 462.8 85.8002 462.6 86.4002 462.1C97.0002 452.7 107.5 443 119.6 435.4C124.8 432.3 130 429.5 135.6 427.5Z" fill="#F2F2F3"/>
<path d="M30.1999 104.5C32.5999 107.5 34.9998 110.4 37.2998 113.4C42.1999 119.7 46.7999 126.2 50.1999 133.6C52.5998 138.9 54.1998 144.3 54.7998 150.1C55.2998 154.7 54.6998 159.1 53.7998 163.5C53.5998 164.6 53.0998 164.8 52.1999 164.7C46.9999 164.3 42.4999 162.5 38.4999 159.2C31.0999 153.1 27.1999 145 25.0999 136C23.3999 128.6 23.1998 121.2 25.3998 113.9C26.2998 110.5 27.7999 107.4 30.1999 104.5Z" fill="#F2F2F3"/>
<path d="M45.0998 203.1C39.8998 203 34.4998 201.2 29.6998 198.1C19.0998 191.4 11.5998 182.1 8.09979 170C6.99979 166.2 6.79979 162.4 7.39979 158.4C7.49979 157.6 7.79979 157.6 8.49979 157.9C19.3998 162.8 30.2998 167.7 39.6998 175.4C47.5998 181.9 53.3998 189.9 55.7998 200C55.9998 200.8 55.7998 201 55.0998 201.3C51.9998 202.5 48.9998 203.2 45.0998 203.1Z" fill="#F2F2F3"/>
<path d="M42.9004 245.9C36.7004 246.3 31.5004 244.8 26.6004 242.2C17.0004 237.2 9.70037 229.8 5.00037 220C3.10037 216.1 2.00037 211.9 1.90037 207.5C1.80037 204.5 1.90037 204.6 4.70037 205.5C12.0004 208.1 19.3004 210.7 26.2004 214.3C33.0004 217.8 39.3004 222 44.3004 227.9C47.9004 232.1 50.6004 236.8 52.4004 242C52.7004 242.8 52.5004 243.1 51.8004 243.4C48.8004 245 45.7004 245.9 42.9004 245.9Z" fill="#F2F2F3"/>
<path d="M51.4997 69.7C55.0997 75.6 58.6997 81.5 61.5997 87.8C63.8997 92.9 65.6997 98.2 66.3997 103.8C67.0997 109.5 66.5997 115.2 64.5997 120.6C64.2997 121.5 63.7997 121.6 62.9997 121.4C57.4997 120.1 53.3997 116.8 50.1997 112.2C46.8997 107.3 45.0997 101.9 44.3997 96.1C43.5997 89.8 43.9997 83.6 46.2997 77.6C47.3997 74.5 49.3997 71.4 51.4997 69.7Z" fill="#F2F2F3"/>
<path d="M453.7 395.9C457.6 392.3 461.5 388.8 465.3 385.2C471.6 379.1 477.5 372.6 483 365.9C491.8 355.2 499.6 343.8 506.5 331.7C515.2 316.4 522.2 300.4 527.8 283.7C531.5 272.5 534.4 261.1 536.7 249.5C537.9 243.2 538.9 236.8 539.7 230.4C541.5 216.1 542 201.7 541.6 187.2C541.4 181 541 174.9 540.3 168.8C537.6 145.1 532 122.2 521.5 100.7C520.1 97.9 519.7 95.5 520.4 92.4C521.6 87.2 520.7 82.1 519 77.1C515.6 67.4 509.5 59.7 501.6 53.3C496.1 48.9 490 45.6 483 44C482.4 43.9 481.9 43.6 481.3 43.3C478.8 43.3 476.4 43.3 473.9 43.3C475 46.4 476.1 49.6 477.2 52.7C480.3 61.3 483.8 69.7 488.6 77.5C493.5 85.3 499.5 92 507.6 96.7C508.9 97.4 510.2 98.2 511.6 98.8C512.6 99.2 513.2 99.9 513.7 100.8C520 113 524.5 125.8 527.8 139.1C529.7 146.8 531.1 154.7 532.2 162.6C534.2 177.5 534.7 192.4 534 207.3C533.6 216.7 532.5 226.2 531 235.5C527.9 254.3 522.9 272.6 515.9 290.3C507.8 310.4 497.4 329.2 484.4 346.5C475.3 358.6 465 369.8 453.7 379.8C447.6 385.2 441.3 390.2 434.7 394.9C434.4 395.1 434.2 395.4 433.9 395.6C440.5 395.9 447.1 395.9 453.7 395.9Z" fill="#F2F2F3"/>
<path d="M600.001 261.4C594.001 261.3 588.001 261.4 582.001 261.7C572.401 262.2 562.901 263.6 554.001 267.7C547.401 270.7 541.801 275 537.401 280.7C536.801 281.5 537.301 281.8 537.701 282.3C541.601 286.4 546.501 288.9 552.101 289.7C565.501 291.5 577.101 287.2 587.601 279.3C593.001 275.3 597.201 270.2 599.401 263.8C599.501 263.6 599.601 263.2 599.901 263.6C599.901 263.4 599.901 263.2 599.901 263.1C599.801 263.2 599.701 263.1 599.701 263C599.701 262.9 599.801 262.8 599.901 262.9C600.001 262.3 600.001 261.9 600.001 261.4Z" fill="#F2F2F3"/>
<path d="M600.001 262.8C599.901 262.7 599.801 262.8 599.801 262.9C599.801 263.1 599.901 263.1 600.001 263C600.001 263 600.001 262.9 600.001 262.8Z" fill="#F2F2F3"/>
<path d="M426.4 298.6C423.2 302.5 421.3 306.7 420.3 311.4C417.7 323.4 419.2 335 424 346.2C426.7 352.6 430.4 358.2 435.7 362.8C440.4 366.9 445.8 369.3 452.1 369.9C453.2 370 453.6 369.6 453.8 368.6C456 359.1 455.4 349.7 452.4 340.4C448.9 329.6 442.9 320.2 436.2 311.2C432.9 307 429.7 302.9 426.4 298.6Z" fill="#F2F2F3"/>
<path d="M490.5 326.1C490 315.3 486 305.8 479.7 297.1C473.8 289 466.5 282.3 458.7 276.1C455.1 273.3 451.5 270.5 447.9 267.6C447.1 266.9 446.7 267 446.4 268C444.6 272.6 443.9 277.4 444.2 282.3C445 294.1 449.3 304.4 456.4 313.7C461.7 320.6 468.2 326.1 476.6 328.7C480.6 330 484.7 330.2 488.9 329.7C490.2 329.5 490.7 329 490.5 327.7C490.6 327.2 490.6 326.7 490.5 326.1Z" fill="#F2F2F3"/>
<path d="M403.3 395.9C407.6 395.9 411.8 395.9 416.1 395.9C418.7 388.7 419.5 381.2 418.8 373.6C417.8 364.1 414.9 355.1 411.1 346.3C408.2 339.6 404.7 333.2 401.4 326.7C400.9 325.7 400.6 325.9 399.9 326.5C394.7 331.4 391.7 337.6 390 344.4C386.8 357.4 387.7 370.1 393.1 382.4C395.2 387.2 398.1 391.4 402.1 394.8C402.6 395.1 403 395.5 403.3 395.9Z" fill="#F2F2F3"/>
<path d="M456.6 241.5C455.8 245.9 456.1 250.1 457.7 254.1C463.7 268.9 474.6 278.3 489.9 282.3C496.1 283.9 502.3 283.4 508.2 280.7C509.3 280.2 509.5 279.8 509.1 278.6C506.5 270.7 501.6 264.4 495.2 259.3C486.7 252.7 477 248.6 466.9 245.1C463.5 243.9 460.1 242.7 456.6 241.5Z" fill="#F2F2F3"/>
<path d="M468.2 204.8C468.3 211.7 470.9 217.7 474.7 223.3C481 232.3 489.1 239 499.7 242.2C506.1 244.2 512.5 244 518.6 240.8C519.6 240.3 519.9 239.9 519.4 238.8C516.3 230.3 510.9 223.7 503.7 218.3C496 212.5 487.2 208.8 478.2 205.6C475.3 204.6 472.3 203.6 469.4 202.5C468.3 202.1 467.9 202.3 468.1 203.4C468.2 203.9 468.2 204.3 468.2 204.8Z" fill="#F2F2F3"/>
<path d="M512.501 204.6C518.101 204.7 522.501 203.4 526.401 200.7C527.101 200.2 527.201 199.9 526.801 199.1C523.101 191.6 517.401 186.1 510.301 181.9C502.801 177.4 494.501 174.9 486.101 172.9C482.701 172.1 479.201 171.5 475.801 170.6C474.701 170.3 474.601 170.5 474.701 171.6C475.201 178.2 478.201 183.7 482.401 188.6C488.801 196.1 496.601 201.3 506.201 203.8C508.701 204.4 511.001 204.5 512.501 204.6Z" fill="#F2F2F3"/>
<path d="M513.601 165C517.401 165.2 520.901 164.1 524.301 162.3C525.001 161.9 525.301 161.5 524.901 160.6C521.901 152.8 516.601 146.8 509.801 142.1C504.001 138 497.501 135.2 490.801 132.9C486.501 131.4 482.101 130.1 477.701 128.7C476.801 128.4 476.601 128.6 476.601 129.5C476.601 134.1 477.801 138.4 480.001 142.4C486.101 153.3 495.001 160.9 507.201 164.3C509.301 164.8 511.401 165.1 513.601 165Z" fill="#F2F2F3"/>
<path d="M504.5 127.8C508.5 127.9 511.9 127 515 125.2C515.8 124.7 515.9 124.3 515.5 123.5C511.6 114.4 504.6 108.4 496.1 104.1C488.7 100.3 480.7 98.2 472.7 95.9C471.7 95.6 471.7 96.1 471.7 96.8C471.9 101.5 473.3 105.8 475.9 109.6C481.7 118.5 489.5 124.7 500 127.3C501.6 127.6 503.2 127.7 504.5 127.8Z" fill="#F2F2F3"/>
<path d="M464.4 397.1C464.4 398.3 464.4 399.5 464.4 400.7C465.5 402.8 466.4 405.1 467.7 407.2C472.2 414.2 478.5 418.9 486 422.2C492.7 425.2 499.7 426.8 507 427.4C518.3 428.3 529.2 427.1 539.7 422.7C545.6 420.2 550.9 416.8 555 411.8C555.5 411.2 555.4 411 554.8 410.7C544.5 405.7 534.3 400.7 523.5 396.9C515.6 394.1 507.6 392 499.2 391.2C487 389.9 475.4 391.6 464.4 397.1Z" fill="#F2F2F3"/>
<path d="M577.401 356.3C569.401 354.1 561.601 351.9 553.601 350.3C548.501 349.3 543.401 348.5 538.201 348.2C534.001 347.9 529.901 347.9 525.701 348.3C515.201 349.3 505.501 352.6 497.001 359.1C496.301 359.6 496.601 360 496.901 360.4C499.501 365.5 503.301 369.5 508.301 372.5C513.501 375.6 519.101 377.2 525.001 377.9C539.201 379.6 552.501 376.8 564.701 369.4C570.001 366.3 574.401 362 577.401 356.3Z" fill="#F2F2F3"/>
<path d="M562.9 309.3C551.9 309.3 542.5 310.3 533.5 313.6C526.2 316.3 519.9 320.4 514.6 326.1C514 326.8 514.2 327.1 514.6 327.7C519.1 333.5 525 336.8 532.1 338.1C543 340.2 553.3 338.1 563.2 333.7C569.8 330.8 575.7 326.8 580.5 321.3C583 318.5 585 315.3 586.3 311.7C586.6 310.7 586.3 310.6 585.5 310.6C577.4 310.2 569.5 309.2 562.9 309.3Z" fill="#F2F2F3"/>
<path d="M464.4 427.5C464.4 434.7 464.4 442 464.4 449.2C464.4 454.6 464.4 460.1 464.5 465.5C470.7 467.7 477 469.2 483.6 469.6C491.7 470.2 499.7 469.6 507.3 466.5C509.5 465.6 511.5 464.5 513.5 463.2C514.1 462.8 514.2 462.6 513.6 462.1C503 452.7 492.5 443 480.4 435.4C475.2 432.3 470 429.5 464.4 427.5Z" fill="#F2F2F3"/>
<path d="M569.801 104.5C567.401 107.5 565.001 110.4 562.701 113.4C557.801 119.7 553.201 126.2 549.801 133.6C547.401 138.9 545.801 144.3 545.201 150.1C544.701 154.7 545.301 159.1 546.201 163.5C546.401 164.6 546.901 164.8 547.801 164.7C553.001 164.3 557.501 162.5 561.501 159.2C568.901 153.1 572.801 145 574.901 136C576.601 128.6 576.801 121.2 574.601 113.9C573.701 110.5 572.201 107.4 569.801 104.5Z" fill="#F2F2F3"/>
<path d="M554.9 203.1C560.1 203 565.5 201.2 570.3 198.1C580.9 191.4 588.4 182.1 591.9 170C593 166.2 593.2 162.4 592.6 158.4C592.5 157.6 592.2 157.6 591.5 157.9C580.6 162.8 569.7 167.7 560.3 175.4C552.4 181.9 546.6 189.9 544.2 200C544 200.8 544.2 201 544.9 201.3C548 202.5 551 203.2 554.9 203.1Z" fill="#F2F2F3"/>
<path d="M557.1 245.9C563.3 246.3 568.5 244.8 573.4 242.2C582.9 237.1 590.2 229.8 594.9 220C596.8 216.1 597.9 211.9 598 207.5C598.1 204.5 598 204.6 595.2 205.5C587.9 208.1 580.6 210.7 573.7 214.3C566.9 217.8 560.6 222 555.6 227.9C552 232.1 549.3 236.8 547.5 242C547.2 242.8 547.4 243.1 548.1 243.4C551.2 245 554.3 245.9 557.1 245.9Z" fill="#F2F2F3"/>
<path d="M548.5 69.7C544.9 75.6 541.3 81.5 538.4 87.8C536.1 92.9 534.3 98.2 533.6 103.8C532.9 109.5 533.4 115.2 535.4 120.6C535.7 121.5 536.2 121.6 537 121.4C542.5 120.1 546.6 116.8 549.8 112.2C553.1 107.3 554.9 101.9 555.6 96.1C556.4 89.8 556 83.6 553.7 77.6C552.6 74.5 550.6 71.4 548.5 69.7Z" fill="#F2F2F3"/>
<g filter="url(#filter0_d_5560_2)">
<mask id="mask0_5560_2" style="mask-type:alpha" maskUnits="userSpaceOnUse" x="94" y="24" width="412" height="458">
<path d="M94.2002 229.8C94.2002 116.2 186.3 24 300 24C413.7 24 505.8 116.2 505.8 229.8V457.1C505.8 470.8 494.7 481.9 481 481.9H119C105.3 481.9 94.2002 470.8 94.2002 457.1V229.8Z" fill="#8EBCDD"/>
</mask>
<g mask="url(#mask0_5560_2)">
<path d="M94.2002 229.8C94.2002 116.2 186.3 24 300 24C413.7 24 505.8 116.2 505.8 229.8V457.1C505.8 470.8 494.7 481.9 481 481.9H119C105.3 481.9 94.2002 470.8 94.2002 457.1V229.8Z" fill="#8EBCDD"/>
<path d="M125.921 414.268C157.285 397.317 222.123 368.948 304.004 368.948C385.886 368.948 450.723 397.317 482.088 414.268C512.662 430.692 537.173 450.191 548.77 466C552.987 460.028 546.838 353.842 529.706 311.683C504.491 249.763 462.408 196.978 408.553 159.826C354.697 122.674 291.529 102.912 226.955 103C203.937 102.912 181.182 107.567 160.009 116.789C138.748 125.924 119.507 139.361 103.342 156.313C102.639 157.015 101.936 157.718 101.321 158.508C65.0366 197.417 48.1683 251.608 54.3182 305.447C58.711 343.741 69.6051 423.93 84.892 440.969C97.8068 430.868 111.512 421.91 125.921 414.268Z" fill="#F2F2F2"/>
</g>
<path d="M101.601 229.8C101.601 120.3 190.401 31.4 300.001 31.4C409.601 31.4 498.401 120.2 498.401 229.8V457.1C498.401 466.7 490.601 474.5 481.001 474.5H119.001C109.401 474.5 101.601 466.7 101.601 457.1V229.8Z" stroke="#F7F6F6" stroke-width="14.8803"/>
</g>
<path d="M314.429 173.698H311.571V170.802C311.571 169.716 311.214 168.81 310.5 168.086C309.786 167.362 308.893 167 308 167C307.107 167 306.214 167.362 305.5 168.086C304.786 168.81 304.429 169.716 304.429 170.802V173.698H301.571C300.679 173.698 299.786 174.06 299.071 174.784C298.357 175.509 298 176.414 298 177.5C298 178.586 298.357 179.491 299.071 180.216C299.786 180.94 300.679 181.302 301.571 181.302H304.429V184.198C304.429 185.284 304.786 186.19 305.5 186.914C306.214 187.638 307.107 188 308 188C308.893 188 309.786 187.638 310.5 186.914C311.214 186.19 311.571 185.284 311.571 184.198V181.302H314.429C315.321 181.302 316.214 180.94 316.929 180.216C317.643 179.491 318 178.586 318 177.5C318 176.414 317.643 175.509 316.929 174.784C316.214 174.06 315.321 173.698 314.429 173.698Z" fill="#F47A45"/>
<path d="M341.7 155H340.1V153.4C340.1 152.8 339.9 152.3 339.5 151.9C339.1 151.5 338.6 151.3 338.1 151.3C337.6 151.3 337.1 151.5 336.7 151.9C336.3 152.3 336.1 152.8 336.1 153.4V155H334.5C334 155 333.5 155.2 333.1 155.6C332.7 156 332.5 156.5 332.5 157.1C332.5 157.7 332.7 158.2 333.1 158.6C333.5 159 334 159.2 334.5 159.2H336.1V160.8C336.1 161.4 336.3 161.9 336.7 162.3C337.1 162.7 337.6 162.9 338.1 162.9C338.6 162.9 339.1 162.7 339.5 162.3C339.9 161.9 340.1 161.4 340.1 160.8V159.2H341.7C342.2 159.2 342.7 159 343.1 158.6C343.5 158.2 343.7 157.7 343.7 157.1C343.7 156.5 343.5 156 343.1 155.6C342.8 155.2 342.3 155 341.7 155Z" fill="#F47A45"/>
<path d="M301.687 136.233H300.687V135.267C300.687 134.905 300.562 134.603 300.312 134.362C300.062 134.121 299.75 134 299.437 134C299.125 134 298.813 134.121 298.563 134.362C298.313 134.603 298.187 134.905 298.187 135.267V136.233H297.25C296.937 136.233 296.625 136.353 296.375 136.595C296.125 136.836 296 137.138 296 137.5C296 137.862 296.125 138.164 296.375 138.405C296.625 138.647 296.937 138.767 297.25 138.767H298.25V139.733C298.25 140.095 298.375 140.397 298.625 140.638C298.875 140.879 299.188 141 299.5 141C299.812 141 300.125 140.879 300.375 140.638C300.625 140.397 300.75 140.095 300.75 139.733V138.767H301.75C302.063 138.767 302.375 138.647 302.625 138.405C302.875 138.164 303 137.862 303 137.5C303 137.138 302.875 136.836 302.625 136.595C302.375 136.414 302.062 136.233 301.687 136.233Z" fill="#F47A45"/>
<path d="M294.2 221.2C294.3 221.2 294.4 221.2 294.5 221.1C294.6 221 294.6 220.9 294.6 220.8C294.6 220.7 294.6 220.6 294.5 220.5C294.4 220.4 294.3 220.4 294.2 220.4C294.1 220.4 294 220.4 293.9 220.5C293.8 220.6 293.8 220.7 293.8 220.8C293.8 220.9 293.8 221 293.9 221.1C294 221.2 294.1 221.2 294.2 221.2Z" fill="#1C1D1D"/>
<path d="M478.9 432.8C478.9 420.3 478.9 421.6 480 407.5L481.6 393.2L485.6 366.6C492.9 342.3 508.4 331.2 522.1 309.7C528.7 298.1 535.3 287.7 531.6 275.4C522.7 245.6 518.2 242.7 501.3 216.8C496.8 209.8 480.8 180.4 473.5 176.6C466.1 172.8 452.7 182.8 447.7 189.4C457.5 213.4 454.8 208 466.8 228C478.4 244.2 486.4 257.3 482.8 271.4C477.2 294 465 323.7 444.5 334.5C430.2 340.7 413.2 342.1 398.9 335.9C374.9 325.4 366.1 289.1 364 263C362.8 248.5 372.8 236.9 386.9 222.8C402 205 398.4 209.8 412 187.8C408.1 180.5 396.5 168.5 388.6 171C380.7 173.6 360.2 200.1 354.6 206.2C333.7 229.1 328.8 231.2 315.2 259.2C309.6 270.7 314.4 282.1 319 294.6C329 318.1 342.5 331.5 345.8 356.7" fill="#F47B45"/>
<path d="M392.054 169.397C392.054 169.397 393.217 155.164 396.112 154.61C399.008 154.056 400.004 161.256 400.004 161.256C400.004 161.256 405.089 148.869 405.6 153.996L406.213 161.399C406.213 161.399 414.893 149.314 414.501 153.201C414.052 156.751 413.209 160.019 412.22 163.243C412.22 163.243 421.162 156.048 420.522 159.699C419.634 163.114 418.644 166.338 417.463 169.662C417.463 169.662 413.366 176.741 420.374 175.847C427.236 174.907 410.859 185.431 410.859 185.431L391.998 171.143L392.054 169.397Z" fill="#FABEB7"/>
<path d="M395.706 155.929C393.275 159.671 393.086 163.942 392.706 168.314C392.627 169.092 391.32 169.171 391.444 168.247C392.015 163.774 392.001 159.12 394.669 155.129C395.041 154.442 396.224 155.286 395.706 155.929Z" fill="#1C1D1D"/>
<path d="M404.765 153.579C402.975 155.755 400.813 158.619 400.252 161.492C400.128 162.417 398.855 161.865 399.08 161.133C399.686 158.112 401.701 155.204 403.683 152.927C404.201 152.284 405.283 152.937 404.765 153.579Z" fill="#1C1D1D"/>
<path d="M413.837 153.799C411.415 155.941 409.242 158.32 407.418 161.127C407.373 161.274 407.182 161.375 407.035 161.33C406.889 161.285 406.742 161.24 406.596 161.195C406.449 161.15 406.348 160.959 406.393 160.812C406.291 160.621 406.336 160.474 406.381 160.328C408.205 157.521 410.423 154.996 413.036 152.752C413.655 152.3 414.501 153.201 413.837 153.799Z" fill="#1C1D1D"/>
<path d="M419.643 159.429C418.572 159.261 416.95 160.366 415.993 160.874C414.844 161.483 413.751 162.43 412.952 163.468C412.434 164.11 411.352 163.457 411.87 162.815C412.906 161.53 414.145 160.627 415.485 159.917C416.532 159.116 418.301 158.056 419.709 158.167C420.633 158.291 420.567 159.553 419.643 159.429Z" fill="#1C1D1D"/>
<path d="M420.634 176.568C419.563 176.399 418.459 176.862 417.332 176.355C416.644 175.984 416.858 174.767 417.692 175.183C418.672 175.645 419.923 175.227 420.993 175.395C421.918 175.519 421.513 176.837 420.634 176.568Z" fill="#1C1D1D"/>
<path d="M385.6 221.9C360.7 240.6 360.3 262.8 363.7 282.9C363.7 283.1 363.9 283.2 364.1 283.3C364.3 283.4 364.6 283.4 365 283.4C365.3 283.4 365.6 283.3 365.8 283.1C366 283 366.1 282.8 366.1 282.6C362.8 262.9 363 241 387.5 222.6C388.3 221.9 386.6 221.2 385.6 221.9Z" fill="#1C1D1D"/>
<path d="M316.4 287C316 287 315.6 286.7 315.4 286.3C309.2 270.4 310.8 266.7 312.3 263.2C312.5 262.6 312.8 262.1 313 261.5C314.3 257.6 327.1 236.5 327.7 235.6C328 235.1 328.7 234.9 329.2 235.2C329.7 235.5 329.9 236.2 329.6 236.7C325 244.2 316.1 259.2 315.1 262.1C314.9 262.8 314.6 263.4 314.4 264C313.1 267.1 311.7 270.3 317.6 285.4C317.8 286 317.5 286.6 317 286.8C316.6 287 316.5 287 316.4 287Z" fill="#010101"/>
<path d="M473.301 234.5C472.601 233.5 470.601 233.4 471.301 234.5C488.901 261.2 481.401 281.5 471.201 298.5C471.101 298.6 471.201 298.9 471.301 299.1C471.501 299.3 471.701 299.5 472.001 299.7C472.301 299.9 472.601 299.9 472.901 300C473.201 300 473.401 299.9 473.401 299.8C483.801 282.3 491.301 261.6 473.301 234.5Z" fill="#1C1D1D"/>
<path d="M523.9 307C523.7 307 523.5 306.9 523.3 306.8C522.8 306.5 522.6 305.8 522.9 305.2C532.2 290.1 531.6 286.3 531 282.6C530.9 281.9 530.8 281.2 530.7 280.4C530.4 276.9 523.7 257.6 521.2 250.4C521 249.8 521.3 249.2 521.9 249C522.5 248.8 523.1 249.1 523.3 249.7C523.7 250.8 532.6 275.8 533 280.3C533.1 281 533.2 281.6 533.3 282.3C534 286.4 534.6 290.6 524.9 306.4C524.7 306.9 524.3 307 523.9 307Z" fill="#010101"/>
<path d="M437.901 212.2C437.901 212.2 451.301 220.9 464.701 240.9C472.701 252.9 479.901 265.4 486.201 278.5L475.901 285.7L487.701 302.8L471.801 322.3C473.001 332.4 476.201 342.1 481.201 350.9C489.201 364.4 505.801 404 505.801 404C505.801 404 513.001 425.5 486.301 445.7C459.601 465.9 428.701 495.8 403.801 494.2C378.901 492.6 350.401 476.7 344.001 470.4C337.601 464.1 315.001 418.5 315.001 405.7C314.901 392.9 323.101 377.5 339.001 356.2C354.901 334.9 371.701 313.2 371.701 313.2C371.701 313.2 364.101 277.9 364.501 270.1C365.001 262.3 366.201 243.9 383.201 226.9C400.301 209.9 414.501 205 425.201 208C435.901 211.2 437.901 212.2 437.901 212.2Z" fill="#25223A"/>
<path d="M430.901 228.3C430.901 228.3 437.501 231.8 439.601 243.5C439.801 244.7 440.001 246.1 440.201 247.6C441.701 260.8 442.001 284.1 441.201 288C440.201 292.3 432.501 316.5 419.401 316.9C406.201 317.3 394.001 308.4 390.101 304.4C386.201 300.4 378.101 286.8 377.301 274.5C376.501 262.3 379.301 243.4 387.001 234.8C394.701 226.2 406.201 217.9 417.501 221.7C428.801 225.6 430.901 228.3 430.901 228.3Z" fill="#FABEB7"/>
<path d="M420.266 289.105C415.007 293.223 406.925 295.282 401.726 293.912C400.864 293.685 399.926 294.462 400.26 295.288C402.539 300.919 408.585 308.941 418 306.5C428.191 303.858 425.085 293.588 421.622 289.217C421.291 288.8 420.685 288.776 420.266 289.105Z" fill="#972724"/>
<path d="M420.801 235.2C410.701 231.4 404.001 229.1 395.601 232.7C387.201 236.2 387.101 235 387.101 235L398.301 225.1C398.301 225.1 407.301 220.7 411.101 220.9C414.801 221.1 426.901 223.8 429.501 227.1C432.101 230.4 434.901 230.6 436.901 234.4C438.201 237.4 439.201 240.5 439.801 243.6L420.801 235.2Z" fill="#F7F7F8"/>
<path d="M411.401 257.7L404.301 284.7L417.001 280.7C417.001 280.7 419.001 278.1 416.301 279C413.601 279.9 406.401 282.4 406.401 282.4L411.401 257.7Z" fill="#1C1D1D"/>
<path d="M398.101 262.3C398.501 260.8 398.301 259.4 397.701 259.2C397.101 259.1 396.3 260.2 395.9 261.7C395.5 263.2 395.7 264.6 396.3 264.8C396.9 265 397.701 263.9 398.101 262.3Z" fill="#1C1D1D"/>
<path d="M426.001 264.9C426.401 263.4 426.201 262 425.601 261.8C425.001 261.7 424.201 262.8 423.801 264.3C423.401 265.8 423.601 267.2 424.201 267.4C424.801 267.6 425.601 266.5 426.001 264.9Z" fill="#1C1D1D"/>
<path d="M434.801 255.752C436.322 249.809 430.422 240.771 423.883 241.97C422.082 242.34 422.236 245.196 424.037 244.826C428.637 244.025 433.028 250.991 431.941 255.185C431.451 257.018 434.311 257.585 434.801 255.752Z" fill="#1C1D1D"/>
<path d="M405.102 238.731C399.51 236.221 389.577 240.337 389.562 247.078C389.566 248.965 392.471 249.266 392.467 247.379C392.54 242.609 400.165 239.707 404.059 241.394C405.704 242.132 406.747 239.469 405.102 238.731Z" fill="#1C1D1D"/>
<path d="M435.7 297.9C451 296.1 448.3 272.3 432.9 274.1C417.6 275.9 420.4 299.7 435.7 297.9Z" fill="#F2685E"/>
<path d="M385.1 297.4C400.4 295.6 397.7 271.8 382.3 273.6C367 275.4 369.8 299.2 385.1 297.4Z" fill="#F2685E"/>
<path d="M436.7 284.1C436.2 284.8 435.9 285.6 435.7 286.4C435.7 286.5 435.7 286.7 435.8 286.7C435.9 286.8 436 286.9 436.1 286.9C436.2 286.9 436.4 286.9 436.5 286.8C436.6 286.7 436.7 286.6 436.7 286.5C436.8 285.8 437.1 285.2 437.5 284.7C437.8 284.2 437.1 283.6 436.7 284.1Z" fill="#1C1D1D"/>
<path d="M433.3 283.4C432.8 284.1 432.5 284.9 432.5 285.7C432.5 286.3 433.5 286.5 433.5 285.9C433.5 285.2 433.7 284.6 434.1 284.1C434.5 283.5 433.7 282.9 433.3 283.4Z" fill="#1C1D1D"/>
<path d="M380.001 284.4C380.301 285 380.501 285.7 380.601 286.4C380.701 287 381.601 286.9 381.601 286.3C381.601 285.5 381.301 284.7 381.001 284C380.601 283.4 379.701 283.8 380.001 284.4Z" fill="#1C1D1D"/>
<path d="M383.4 284.1C383.7 284.7 383.9 285.3 383.8 286C383.8 286.6 384.8 286.8 384.8 286.2C384.9 285.4 384.7 284.5 384.3 283.8C384.1 283.2 383.1 283.5 383.4 284.1Z" fill="#1C1D1D"/>
<path d="M447.3 322C439.9 339.6 427.4 354.5 411.3 364.8C410.5 365.3 411.4 366.5 412.2 366C428.5 355.6 441.2 340.4 448.6 322.6C448.7 322.4 448.6 322.2 448.6 322.1C448.5 321.9 448.4 321.8 448.2 321.7C448 321.6 447.8 321.6 447.7 321.7C447.5 321.7 447.3 321.9 447.3 322Z" fill="#1C1D1D"/>
<path d="M467.4 348.5C461.8 357.8 454.7 366.2 446.4 373.2C438.1 380.2 426.8 388.7 415.5 389C414.5 389 414.7 390.6 415.7 390.5C426.5 390.2 437.4 382.4 445.6 375.8C454.8 368.4 462.5 359.5 468.6 349.4C469.1 348.6 467.9 347.6 467.4 348.5Z" fill="#1C1D1D"/>
<path d="M375.3 298.4C375.4 298.3 375.6 298.2 375.6 298.1C375.7 298 375.7 297.8 375.7 297.6C375.7 297.4 375.6 297.3 375.5 297.2C375.4 297.1 375.3 297 375.1 297C375 297.1 374.8 297.2 374.8 297.3C374.7 297.4 374.7 297.6 374.7 297.8C374.7 298 374.8 298.1 374.9 298.2C375 298.3 375.1 298.4 375.3 298.4Z" fill="#1C1D1D"/>
<path d="M435.1 302.9C429.9 309.8 424.4 316.5 414.9 316.7C406.1 316.8 398.8 311.7 392.4 306.1C391.7 305.5 390.7 306.7 391.5 307.3C398.5 313.3 406.6 318.9 416.2 318.2C425.4 317.5 431.1 310.7 436.3 303.8C436.9 303 435.7 302.1 435.1 302.9Z" fill="#1C1D1D"/>
<path d="M462.701 254.9C463.901 270.8 461.701 286.8 456.501 301.9C456.201 302.8 457.601 303.4 457.901 302.5C463.301 287.2 465.401 270.9 464.201 254.7C464.001 253.7 462.601 253.9 462.701 254.9Z" fill="#1C1D1D"/>
<path d="M438.301 239.5C441.301 250.9 442.601 262.7 442.101 274.4C442.101 275.4 443.601 275.6 443.601 274.6C444.101 262.6 442.801 250.5 439.701 238.9C439.401 237.9 438.001 238.5 438.301 239.5Z" fill="#1C1D1D"/>
<path d="M384.301 236.8C379.001 248 376.201 260.1 376.101 272.5C376.101 273.5 377.701 273.3 377.601 272.3C377.801 260.2 380.501 248.3 385.701 237.4C386.101 236.5 384.701 235.9 384.301 236.8Z" fill="#1C1D1D"/>
<path d="M377.1 320.8C382 326.9 385.2 336.7 394.5 336.8C395.5 336.8 395.3 335.2 394.3 335.4C385.9 335.3 382.7 325.5 378.3 320C377.8 319.2 376.5 320.2 377.1 320.8Z" fill="#1C1D1D"/>
<path d="M403.1 366.7C396.4 370.7 386.5 366.7 379.9 364.2C373.8 361.9 367.9 359.1 362.3 355.7C361.5 355.2 360.5 356.4 361.4 356.9C369.2 361.7 377.6 365.4 386.3 367.9C392.4 369.6 398.4 371.2 404 367.9C404.8 367.4 403.9 366.2 403.1 366.7Z" fill="#1C1D1D"/>
<path d="M404.3 388.5C394.3 389.3 384.3 387.7 375.1 383.9C369.7 381.6 363.9 375.2 357.8 376.2C356.8 376.3 357 377.9 358 377.7C361.8 377.1 368 382.1 371.4 383.8C374.6 385.4 377.9 386.7 381.3 387.7C388.8 389.8 396.7 390.6 404.5 390C405.5 389.9 405.3 388.4 404.3 388.5Z" fill="#1C1D1D"/>
<path d="M474 387.3C470.8 398.1 465.4 408.2 458.2 416.9C451 425.6 442.1 432.7 432 437.9C421.9 443 410.9 446.1 399.6 446.8C388.3 447.5 377 446 366.3 442.2C365.4 441.9 364.8 443.3 365.7 443.6C376.5 447.5 388.1 449.1 399.5 448.3C411 447.6 422.2 444.5 432.5 439.3C442.8 434.1 451.8 426.8 459.2 418C466.6 409.2 472.1 398.9 475.3 387.9C475.7 387 474.3 386.4 474 387.3Z" fill="#1C1D1D"/>
<path d="M369 316.4C350.9 339.5 333.801 363.4 317.701 387.9C317.201 388.7 318.4 389.7 318.9 388.8C335 364.2 352.101 340.4 370.201 317.3C370.8 316.5 369.6 315.6 369 316.4Z" fill="#1C1D1D"/>
<path d="M386.801 222.8C376.201 231.7 368.701 243.6 365.301 257C361.901 270.4 362.801 284.5 367.901 297.3C368.001 297.4 368.101 297.6 368.301 297.6C368.501 297.7 368.701 297.6 368.801 297.6C369.001 297.5 369.101 297.4 369.201 297.3C369.301 297.1 369.301 297 369.301 296.8C364.401 284.3 363.501 270.5 366.801 257.4C370.101 244.3 377.401 232.7 387.801 224C388.401 223.4 387.501 222.1 386.801 222.8Z" fill="#1C1D1D"/>
<path d="M469 311.5C470.4 320.9 472.1 330.1 474.1 339.4C474.3 340.4 475.8 340.2 475.6 339.2C473.6 330 471.8 320.7 470.5 311.3C470.4 311.2 470.3 311 470.2 311C470.1 310.9 469.9 310.9 469.7 310.9C469.5 310.9 469.4 311 469.3 311.1C469.2 311.2 469.1 311.4 469 311.5Z" fill="#1C1D1D"/>
<path d="M470.8 255.1C472.6 264.5 473.2 274 472.8 283.6C472.8 284.6 474.3 284.8 474.3 283.8C474.7 274.1 474.1 264.4 472.3 254.9C472.2 254 470.6 254.2 470.8 255.1Z" fill="#1C1D1D"/>
<path d="M486.8 301.2C483.7 296.8 480.3 292.5 476.6 288.5C475.9 287.8 474.7 288.7 475.4 289.4C479 293.4 482.4 297.7 485.6 302.1C486.2 302.9 487.4 302 486.8 301.2Z" fill="#1C1D1D"/>
<path d="M485.701 274.8L475.9 258.1C475.4 257.2 474.201 258.2 474.701 259L484.5 275.7C485 276.6 486.201 275.7 485.701 274.8Z" fill="#1C1D1D"/>
<path d="M489.7 371.6C496.4 383.5 500.8 395.1 505.2 408C505.5 408.9 506.9 408.4 506.6 407.4C502.2 394.5 497.7 382.6 491 370.7C490.4 369.8 489.2 370.8 489.7 371.6Z" fill="#1C1D1D"/>
<path d="M503.601 426.2C490.101 442.4 474.401 456.6 456.901 468.5C456.101 469 457.001 470.3 457.801 469.7C475.301 457.7 491.101 443.4 504.701 427.1C505.401 426.3 504.201 425.4 503.601 426.2Z" fill="#1C1D1D"/>
<path d="M429.2 187.3C463.3 186 472.7 111.1 472.7 111.1L436.9 106.2L436.1 106.1L400.3 101.2C400.3 101.2 389.2 175.9 421.7 186.3C419.3 192.4 411.5 207.6 395.1 208.9C395.1 208.9 393.7 210 393.6 211L421.6 214.7L449.6 218.7C449.8 217.7 448.8 216.3 448.8 216.3C433.3 210.5 429.9 193.8 429.2 187.3Z" fill="#F0A738"/>
<path d="M395.6 169.2C392.6 168.8 389.1 167.6 385.6 164.7C375.6 156.8 374.4 141.6 374.3 135.4C374.2 129.5 374 111.7 384.3 105.6C387.6 103.7 391.5 103.2 395.4 104.2C400.9 105.7 405.9 110 409.4 116.2L404.2 119.1C401.5 114.3 397.7 110.9 393.8 109.9C391.4 109.3 389.2 109.5 387.3 110.7C382.4 113.6 380 121.9 380.2 135.4C380.3 140.7 381.3 153.8 389.3 160.1C392.7 162.8 396.3 163.9 400 163.3C402.2 163 404.4 162 406.4 160.5L409.9 165.3C407.1 167.3 404.1 168.6 400.9 169.1C399.3 169.4 397.6 169.5 395.6 169.2Z" fill="#F0A738"/>
<path d="M458.9 177.9C461.9 178.3 465.6 178.1 469.8 176.3C481.5 171.4 486.8 157.1 488.6 151.1C490.3 145.5 495.3 128.4 487 119.7C484.4 117 480.7 115.4 476.7 115.4C471 115.3 465 118.1 459.9 123.2L464.1 127.4C468 123.5 472.5 121.3 476.6 121.3C479.1 121.3 481.2 122.2 482.7 123.8C486.6 127.9 486.7 136.6 482.9 149.5C481.4 154.6 476.9 167 467.5 170.9C463.5 172.6 459.7 172.7 456.3 171.1C454.3 170.2 452.4 168.7 450.9 166.7L446.3 170.4C448.5 173.1 451 175.2 453.9 176.5C455.2 177.1 456.9 177.6 458.9 177.9Z" fill="#F0A738"/>
<path d="M477.5 161.5C480.833 157 487.2 144.9 486 132.5" stroke="black" stroke-width="1.5" stroke-linecap="round"/>
<path d="M398.5 129C398.333 146.333 402.7 182 421.5 186C424.5 186.667 431.7 187.6 436.5 186" stroke="black" stroke-width="1.5" stroke-linecap="round"/>
<path d="M402.5 212L443 218" stroke="black" stroke-width="1.5" stroke-linecap="round"/>
<path d="M424.5 104.5L472 111" stroke="black" stroke-width="1.5" stroke-linecap="round"/>
<path d="M377.5 113.5C372.5 128.5 374.1 156.7 382.5 161.5" stroke="black" stroke-width="1.5" stroke-linecap="round"/>
<path d="M471.568 178.8C471.568 178.8 474.101 164.747 471.445 163.467C468.789 162.188 465.976 168.89 465.976 168.89C465.976 168.89 464.244 155.613 462.434 160.436L459.939 167.433C459.939 167.433 454.656 153.523 454.035 157.381C453.557 160.927 453.532 164.302 453.66 167.672C453.66 167.672 446.866 158.421 446.547 162.114C446.528 165.643 446.656 169.012 446.943 172.529C446.943 172.529 449.084 180.423 442.541 177.757C436.151 175.086 449.275 189.464 449.275 189.464L471.173 180.502L471.568 178.8Z" fill="#FABEB7"/>
<path d="M471.498 164.846C472.886 169.087 471.972 173.263 471.216 177.586C471.092 178.358 472.335 178.771 472.453 177.846C473.05 173.376 474.259 168.882 472.706 164.34C472.523 163.58 471.163 164.092 471.498 164.846Z" fill="#1C1D1D"/>
<path d="M463.347 160.248C464.518 162.811 465.871 166.133 465.676 169.055C465.558 169.98 466.93 169.774 466.901 169.008C467.091 165.934 465.891 162.605 464.56 159.895C464.225 159.141 463.011 159.494 463.347 160.248Z" fill="#1C1D1D"/>
<path d="M454.525 158.13C456.314 160.822 457.803 163.68 458.845 166.861C458.851 167.014 459.01 167.161 459.163 167.156C459.316 167.15 459.469 167.144 459.622 167.138C459.775 167.132 459.923 166.973 459.917 166.82C460.064 166.661 460.058 166.508 460.052 166.355C459.011 163.174 457.516 160.163 455.568 157.323C455.085 156.728 454.036 157.381 454.525 158.13Z" fill="#1C1D1D"/>
<path d="M447.466 162.079C448.544 162.192 449.828 163.676 450.623 164.413C451.576 165.297 452.389 166.493 452.895 167.701C453.23 168.455 454.444 168.102 454.108 167.348C453.438 165.84 452.472 164.649 451.359 163.618C450.553 162.575 449.116 161.096 447.726 160.842C446.801 160.724 446.541 161.961 447.466 162.079Z" fill="#1C1D1D"/>
<path d="M442.105 178.387C443.183 178.5 444.131 179.231 445.351 179.031C446.111 178.849 446.217 177.618 445.304 177.806C444.238 178 443.137 177.275 442.059 177.162C441.134 177.044 441.186 178.422 442.105 178.387Z" fill="#1C1D1D"/>
<path d="M229.291 142.6C229.291 142.6 231.824 128.547 229.168 127.267C226.512 125.988 223.699 132.69 223.699 132.69C223.699 132.69 221.967 119.412 220.157 124.236L217.662 131.233C217.662 131.233 212.378 117.323 211.758 121.181C211.28 124.727 211.255 128.102 211.383 131.472C211.383 131.472 204.589 122.221 204.27 125.914C204.25 129.443 204.379 132.812 204.666 136.329C204.666 136.329 206.807 144.222 200.264 141.557C193.874 138.886 206.997 153.264 206.997 153.264L228.896 144.302L229.291 142.6Z" fill="#FABEB7"/>
<path d="M229.221 128.646C230.609 132.887 229.694 137.063 228.939 141.386C228.815 142.158 230.057 142.571 230.175 141.646C230.772 137.176 231.982 132.682 230.428 128.14C230.246 127.38 228.885 127.892 229.221 128.646Z" fill="#1C1D1D"/>
<path d="M221.069 124.048C222.241 126.611 223.594 129.933 223.398 132.855C223.28 133.78 224.653 133.574 224.624 132.808C224.813 129.734 223.613 126.405 222.283 123.695C221.948 122.941 220.734 123.294 221.069 124.048Z" fill="#1C1D1D"/>
<path d="M212.247 121.93C214.037 124.622 215.526 127.48 216.567 130.661C216.573 130.814 216.732 130.961 216.885 130.956C217.039 130.95 217.192 130.944 217.345 130.938C217.498 130.932 217.645 130.773 217.639 130.62C217.787 130.461 217.781 130.308 217.775 130.155C216.734 126.974 215.239 123.963 213.29 121.123C212.808 120.528 211.759 121.181 212.247 121.93Z" fill="#1C1D1D"/>
<path d="M205.189 125.879C206.267 125.992 207.55 127.476 208.345 128.213C209.299 129.097 210.111 130.293 210.618 131.501C210.953 132.255 212.167 131.902 211.831 131.148C211.16 129.64 210.195 128.449 209.082 127.418C208.275 126.375 206.839 124.896 205.449 124.642C204.524 124.524 204.264 125.761 205.189 125.879Z" fill="#1C1D1D"/>
<path d="M199.828 142.187C200.906 142.3 201.854 143.031 203.073 142.831C203.833 142.649 203.94 141.417 203.027 141.606C201.961 141.8 200.859 141.075 199.781 140.962C198.857 140.844 198.909 142.222 199.828 142.187Z" fill="#1C1D1D"/>
<path d="M231.9 237.4C231.9 243 227.4 251.1 231.5 251.1C235.6 251.1 243.1 242.8 243.1 237.2C243.1 231.6 239.9 220.4 233.5 231.1C231.3 234.8 231.9 231.8 231.9 237.4Z" fill="#FABEB7"/>
<path d="M185.601 282.8L184.101 298.4L190.301 331.5L209.801 333L224.001 316.1L231.301 299.6L218.101 295.2L216.901 278.8" fill="#FABEB7"/>
<path d="M126.9 467.1C127.4 454.4 128.2 391.7 127.7 377.4L126.6 362.8L123.5 335.6C117 310.6 101.7 298.8 88.5002 276.4C82.2002 264.4 75.9002 253.6 80.1002 241.2C90.2002 211.3 94.9002 208.5 113.1 182.7C118 175.8 135.2 146.5 142.9 142.9C150.5 139.3 163.8 149.9 168.7 156.8C157.9 180.8 160.8 175.4 147.9 195.4C135.5 211.4 126.9 224.5 130 238.9C134.9 262.1 163.8 285.7 184.2 297.5C184.2 297.5 185.8 314.3 189.1 318.3C199.2 330.5 231.4 332.6 218.1 294.9C233.5 287.2 248 261.2 251.1 234.7C252.8 220 243.2 207.8 229.4 193C214.7 174.3 218.1 179.4 205.2 156.5C209.5 149.2 221.7 137.4 229.6 140.3C237.5 143.2 257.4 170.9 262.8 177.3C283.2 201.3 288.1 203.7 300.9 232.6C306.2 244.5 300.9 255.9 295.7 268.4C284.6 291.9 270.4 305 266.2 330.5C264.4 341.2 287.3 456.3 288.6 467.1H126.9Z" fill="#F47B45"/>
<path d="M194.981 150.745C227.162 139.393 213.932 65.0735 213.932 65.0735L178.289 71.0084L177.495 71.1501L141.852 77.085C141.852 77.085 153.399 151.717 187.521 152.013C187.038 158.551 184.095 175.38 168.818 181.484C168.818 181.484 167.807 182.95 168.008 183.934L195.846 179.166L223.773 174.684C223.668 173.67 222.298 172.629 222.298 172.629C205.775 171.686 197.576 156.745 194.981 150.745Z" fill="#F0A738"/>
<path d="M157.526 143.421C154.542 143.928 150.844 143.82 146.641 142.088C134.748 137.508 129.096 123.347 127.162 117.456C125.317 111.851 119.848 94.9106 127.877 86.0309C130.465 83.2379 134.041 81.6041 138.062 81.4028C143.76 81.2046 149.81 83.8288 154.991 88.7122L150.884 93.0236C146.883 89.24 142.245 87.1196 138.224 87.3209C135.754 87.4594 133.713 88.3027 132.254 90.0121C128.434 94.2345 128.603 102.873 132.797 115.707C134.463 120.739 139.303 132.953 148.811 136.598C152.858 138.168 156.623 138.151 159.978 136.481C161.991 135.543 163.795 133.935 165.26 131.91L170.026 135.456C167.945 138.196 165.466 140.327 162.558 141.754C161.119 142.515 159.525 143.114 157.526 143.421Z" fill="#F0A738"/>
<path d="M220.558 132.961C223.542 132.454 227.016 131.166 230.494 128.201C240.215 120.053 241.037 104.824 240.977 98.5605C240.94 92.7083 240.645 74.8947 230.139 69.0468C226.855 67.2391 222.847 66.8081 219.027 67.9941C213.554 69.5886 208.654 74.0417 205.295 80.4245L210.552 83.1903C213.12 78.3094 216.765 74.8741 220.681 73.6584C223.068 72.9172 225.341 73.1541 227.248 74.2374C232.188 76.9967 234.863 85.2758 235.059 98.7225C235.138 104.038 234.517 117.215 226.696 123.726C223.38 126.536 219.781 127.758 216.059 127.238C213.882 126.971 211.623 126.102 209.597 124.637L206.301 129.534C209.203 131.461 212.213 132.725 215.368 133.107C216.788 133.294 218.559 133.268 220.558 132.961Z" fill="#F0A738"/>
<path d="M233.46 111.784C235.309 106.498 237.802 93.0543 232.979 81.5677" stroke="black" stroke-width="1.5" stroke-linecap="round"/>
<path d="M148.375 104.169C153.356 120.772 168.101 153.54 187.241 151.786C190.304 151.533 197.458 150.29 201.567 147.339" stroke="black" stroke-width="1.5" stroke-linecap="round"/>
<path d="M176.806 182.25L217.264 175.972" stroke="black" stroke-width="1.5" stroke-linecap="round"/>
<path d="M165.943 73.0612L213.235 65.1854" stroke="black" stroke-width="1.5" stroke-linecap="round"/>
<path d="M123.725 95.5919C123.398 111.4 133.287 137.857 142.732 139.951" stroke="black" stroke-width="1.5" stroke-linecap="round"/>
<path d="M230.5 192.2C229.6 191.4 227.8 192.1 228.7 192.9C251.8 212.5 250 234.6 246 254.5C246 254.7 246.1 254.9 246.3 255C246.5 255.2 246.8 255.3 247.1 255.3C247.4 255.3 247.7 255.3 248 255.2C248.2 255.1 248.4 255 248.4 254.8C252.4 234.6 255.9 211.9 230.5 192.2Z" fill="#1C1D1D"/>
<path d="M298.5 260.9C298.4 260.9 298.2 260.9 298.1 260.8C297.5 260.6 297.3 259.9 297.5 259.4C304.1 244.3 302.8 240.9 301.5 237.7C301.3 237.1 301 236.5 300.8 235.8C299.9 232.8 291.4 217.2 287 209.4C286.7 208.9 286.9 208.2 287.4 207.9C287.9 207.6 288.6 207.8 288.9 208.3C289.4 209.2 301.7 231.2 302.8 235.1C303 235.7 303.2 236.3 303.4 236.8C304.8 240.4 306.3 244.2 299.4 260.1C299.3 260.7 298.9 260.9 298.5 260.9Z" fill="#010101"/>
<path d="M141.301 202C121.001 226.6 128.301 243.2 136.701 258.2C136.801 258.3 136.901 258.4 137.201 258.4C137.501 258.4 137.801 258.3 138.101 258.1C138.401 258 138.701 257.8 138.801 257.6C139.001 257.4 139.001 257.2 139.001 257.1C130.701 242.3 123.301 226.1 143.201 201.9C144.101 200.9 142.101 201 141.301 202Z" fill="#1C1D1D"/>
<path d="M86.8005 273.6C86.4005 273.6 86.0005 273.4 85.8005 273C76.4005 256.6 77.3005 252.3 78.1005 248.1C78.2005 247.4 78.4005 246.8 78.4005 246.1C78.9005 241.6 88.9005 216.5 89.3005 215.4C89.5005 214.8 90.2005 214.5 90.8005 214.8C91.4005 215 91.7005 215.7 91.4005 216.3C88.5005 223.5 81.0005 242.9 80.6005 246.4C80.5005 247.2 80.4005 247.9 80.2005 248.6C79.5005 252.3 78.7005 256.2 87.6005 271.9C87.9005 272.5 87.7005 273.2 87.2005 273.5C87.2005 273.6 87.0005 273.6 86.8005 273.6Z" fill="#010101"/>
<path d="M198.601 191C210.101 187.5 221.301 196.4 228.701 205.4C236.101 214.4 238.201 233.7 236.901 246.1C235.601 258.5 226.901 272.1 222.901 276C218.901 279.9 206.201 288.5 193.001 287.6C179.801 286.8 166.801 260 166.001 255.6C165.301 251.7 165.001 231.3 167.101 217.9C167.301 216.4 167.901 208.5 168.201 207.3C175.401 197.8 184.901 197.2 184.901 197.2C184.901 197.2 187.101 194.5 198.601 191Z" fill="#FABEB7"/>
<path d="M188.878 255.823C191.951 261.121 199.148 265.506 206.656 263.992C207.447 263.832 208.133 264.54 207.744 265.246C205.409 269.476 198.85 275.544 190.5 274.5C181.854 273.419 184.185 261.847 187.047 255.784C187.401 255.035 188.462 255.106 188.878 255.823Z" fill="#972724"/>
<path d="M207.001 253C207.001 253 199.801 250.3 197.101 249.2C194.401 248.1 196.301 250.9 196.301 250.9L209.101 255.4L202.901 227.7L207.001 253Z" fill="#1C1D1D"/>
<path d="M218 235.5C218.6 235.4 218.9 234 218.6 232.4C218.3 230.8 217.5 229.7 216.9 229.8C216.3 229.9 216 231.3 216.3 232.9C216.6 234.4 217.4 235.6 218 235.5Z" fill="#1C1D1D"/>
<path d="M189.601 237.1C190.201 237 190.501 235.6 190.201 234C189.901 232.4 189.101 231.3 188.501 231.4C187.901 231.5 187.601 232.9 187.901 234.5C188.201 236 188.901 237.2 189.601 237.1Z" fill="#1C1D1D"/>
<path d="M177.398 225.368C177.926 227.225 180.803 226.553 180.275 224.695C179.076 220.46 183.285 213.262 188.048 213.921C189.869 214.174 189.917 211.253 188.175 210.941C181.451 210.01 175.732 219.355 177.398 225.368Z" fill="#1C1D1D"/>
<path d="M213.874 209.423C212.042 209.747 212.391 212.71 214.292 212.314C218.518 211.512 225.484 216.237 224.387 221.001C224.004 222.848 226.841 223.209 227.297 221.431C228.846 214.748 220.001 208.226 213.874 209.423Z" fill="#1C1D1D"/>
<path d="M192.601 285.3C191.901 285.2 191.201 286.2 192.001 286.3C198.501 287 205.401 287.4 213.101 283.5C221.101 279.4 225.801 273.1 229.501 267.2C229.901 266.6 228.701 266.5 228.301 267.1C225.001 272.6 220.801 278.2 213.601 282.2C205.901 286.5 199.201 286.1 192.601 285.3Z" fill="#1C1D1D"/>
<path d="M232.2 252.6C231.7 253.3 231.4 254.1 231.2 254.9C231.2 255 231.2 255.2 231.3 255.2C231.4 255.3 231.5 255.4 231.6 255.4C231.7 255.4 231.9 255.4 232 255.3C232.1 255.2 232.2 255.1 232.2 255C232.3 254.3 232.6 253.7 233 253.2C233.3 252.7 232.5 252.1 232.2 252.6Z" fill="#1C1D1D"/>
<path d="M228.8 251.9C228.3 252.6 228 253.4 228 254.2C228 254.8 229 255 229 254.4C229 253.7 229.2 253.1 229.6 252.6C230 252 229.2 251.4 228.8 251.9Z" fill="#1C1D1D"/>
<path d="M175.501 252.9C175.801 253.5 176.001 254.2 176.101 254.9C176.201 255.5 177.101 255.4 177.101 254.8C177.101 254 176.801 253.2 176.501 252.5C176.101 251.9 175.201 252.3 175.501 252.9Z" fill="#1C1D1D"/>
<path d="M178.9 252.6C179.2 253.2 179.4 253.8 179.3 254.5C179.3 255.1 180.3 255.3 180.3 254.7C180.4 253.9 180.2 253 179.8 252.3C179.5 251.7 178.6 252 178.9 252.6Z" fill="#1C1D1D"/>
<path d="M169.1 232.3C168.9 229.2 168.1 216.9 173.4 210.8C177.1 206.5 183.9 205.1 188.6 205.7C194.5 206.4 195.9 209.9 202 209.8C206 209.7 205.8 208.2 211.4 207.3C217.3 206.4 219 207.8 225.3 207.3C230.6 206.9 233.2 206.7 235.7 205C241.8 201 243.4 191.2 241.3 183.7C241 182.7 238.7 175.1 231.4 171.3C226.3 168.6 219.5 168 218.2 170.3C217.4 171.6 219.3 173 218.7 175.1C217.8 178.5 212.1 179.7 209.6 180.2C203.2 181.5 201.1 180.1 192.6 179.9C183.6 179.8 177.1 181.2 174.9 181.7C169 183.1 166.1 183.7 163 185.8C154.2 191.6 152.2 202.6 151.9 204.5C151.4 207.3 151.6 213.1 151.9 224.8C152 228.2 151.8 229.1 152.1 230.6C153.4 238.2 158.8 246.2 163 245.6C166.2 245.1 168 239.9 168.3 239C169.4 235.9 169.2 233.3 169.1 232.3Z" fill="#1C1D1D"/>
<path d="M168.701 240.8C167.401 247.6 171.401 256.4 166.401 256.1C161.401 255.7 153.001 244.9 153.501 238.1C154.001 231.2 158.901 217.8 165.801 231.6C168.101 236.2 169.701 235.5 168.701 240.8Z" fill="#FABEB7"/>
<path d="M145.778 140.806C145.778 140.806 144.927 126.552 147.716 125.596C150.504 124.64 152.504 131.628 152.504 131.628C152.504 131.628 155.796 118.649 157.022 123.653L158.671 130.896C158.671 130.896 165.564 117.71 165.723 121.614C165.778 125.192 165.404 128.546 164.877 131.877C164.877 131.877 172.719 123.495 172.599 127.2C172.2 130.706 171.674 134.037 170.972 137.494C170.972 137.494 167.912 145.079 174.724 143.208C181.386 141.312 166.652 154.035 166.652 154.035L145.969 142.543L145.778 140.806Z" fill="#FABEB7"/>
<path d="M147.499 126.959C145.618 131.006 146.032 135.261 146.271 139.643C146.303 140.424 145.02 140.687 145.012 139.754C144.949 135.245 144.28 130.639 146.36 126.313C146.631 125.58 147.921 126.249 147.499 126.959Z" fill="#1C1D1D"/>
<path d="M156.137 123.358C154.671 125.764 152.934 128.903 152.782 131.827C152.79 132.76 151.451 132.393 151.571 131.636C151.747 128.561 153.333 125.398 154.974 122.864C155.397 122.155 156.56 122.649 156.137 123.358Z" fill="#1C1D1D"/>
<path d="M165.15 122.299C163.054 124.761 161.237 127.422 159.826 130.458C159.802 130.609 159.627 130.737 159.476 130.713C159.324 130.689 159.173 130.665 159.021 130.641C158.87 130.617 158.743 130.442 158.766 130.29C158.639 130.115 158.663 129.964 158.687 129.812C160.097 126.777 161.938 123.964 164.209 121.375C164.759 120.841 165.723 121.614 165.15 122.299Z" fill="#1C1D1D"/>
<path d="M171.691 127.057C170.607 127.041 169.157 128.363 168.28 129.001C167.229 129.765 166.28 130.857 165.635 131.996C165.212 132.705 164.049 132.211 164.471 131.502C165.316 130.084 166.416 129.016 167.643 128.124C168.567 127.184 170.169 125.885 171.579 125.798C172.512 125.79 172.623 127.049 171.691 127.057Z" fill="#1C1D1D"/>
<path d="M175.083 143.885C173.999 143.869 172.971 144.482 171.784 144.14C171.051 143.869 171.091 142.634 171.975 142.928C173.011 143.247 174.19 142.658 175.274 142.674C176.206 142.666 175.991 144.028 175.083 143.885Z" fill="#1C1D1D"/>
</g>
<defs>
<filter id="filter0_d_5560_2" x="85.1602" y="23.9598" width="420.681" height="471.98" filterUnits="userSpaceOnUse" color-interpolation-filters="sRGB">
<feFlood flood-opacity="0" result="BackgroundImageFix"/>
<feColorMatrix in="SourceAlpha" type="matrix" values="0 0 0 0 0 0 0 0 0 0 0 0 0 0 0 0 0 0 127 0" result="hardAlpha"/>
<feOffset dx="-5" dy="10"/>
<feGaussianBlur stdDeviation="2"/>
<feComposite in2="hardAlpha" operator="out"/>
<feColorMatrix type="matrix" values="0 0 0 0 0 0 0 0 0 0 0 0 0 0 0 0 0 0 0.25 0"/>
<feBlend mode="normal" in2="BackgroundImageFix" result="effect1_dropShadow_5560_2"/>
<feBlend mode="normal" in="SourceGraphic" in2="effect1_dropShadow_5560_2" result="shape"/>
</filter>
<clipPath id="clip0_5560_2">
<rect width="600" height="518" fill="white"/>
</clipPath>
</defs>
</svg>
