<svg width="445" height="471" viewBox="0 0 445 471" fill="none" xmlns="http://www.w3.org/2000/svg">
<g clip-path="url(#clip0_5562_241)">
<path d="M16.5996 218.4C16.5996 104.7 108.8 12.6 222.4 12.6C336.1 12.6 428.2 104.8 428.2 218.4V445.7C428.2 459.4 417.1 470.5 403.4 470.5H41.3996C27.6996 470.5 16.5996 459.4 16.5996 445.7V218.4Z" fill="#8EBCDD"/>
<path d="M24 218.4C24 108.8 112.9 20 222.4 20C332 20 420.8 108.8 420.8 218.4V445.7C420.8 455.3 413 463.1 403.4 463.1H41.4C31.8 463.1 24 455.3 24 445.7V218.4Z" stroke="white" stroke-width="14.8803"/>
<path d="M290.2 181C331.014 181 364.1 153.286 364.1 119.1C364.1 84.9136 331.014 57.2 290.2 57.2C249.386 57.2 216.3 84.9136 216.3 119.1C216.3 153.286 249.386 181 290.2 181Z" fill="white"/>
<path d="M284.8 234.8C318.711 234.8 346.2 216.623 346.2 194.2C346.2 171.777 318.711 153.6 284.8 153.6C250.89 153.6 223.4 171.777 223.4 194.2C223.4 216.623 250.89 234.8 284.8 234.8Z" fill="white"/>
<path d="M209.8 192.7C238.629 192.7 262 174.523 262 152.1C262 129.677 238.629 111.5 209.8 111.5C180.97 111.5 157.6 129.677 157.6 152.1C157.6 174.523 180.97 192.7 209.8 192.7Z" fill="white"/>
<path d="M359.8 242.7C393.711 242.7 421.2 221.523 421.2 195.4C421.2 169.277 393.711 148.1 359.8 148.1C325.89 148.1 298.4 169.277 298.4 195.4C298.4 221.523 325.89 242.7 359.8 242.7Z" fill="white"/>
<path d="M345.8 194.3C379.711 194.3 407.2 173.66 407.2 148.2C407.2 122.74 379.711 102.1 345.8 102.1C311.89 102.1 284.4 122.74 284.4 148.2C284.4 173.66 311.89 194.3 345.8 194.3Z" fill="white"/>
<path d="M161.3 234C186.319 234 206.6 218.151 206.6 198.6C206.6 179.049 186.319 163.2 161.3 163.2C136.282 163.2 116 179.049 116 198.6C116 218.151 136.282 234 161.3 234Z" fill="white"/>
<path d="M228.5 259.6C255.562 259.6 277.5 243.751 277.5 224.2C277.5 204.649 255.562 188.8 228.5 188.8C201.438 188.8 179.5 204.649 179.5 224.2C179.5 243.751 201.438 259.6 228.5 259.6Z" fill="white"/>
<path fill-rule="evenodd" clip-rule="evenodd" d="M97.5994 53.8C98.5994 54.7 98.6994 70.4 100.199 70.9C100.899 71.1 106.699 68.9 106.699 68.9C106.499 67.8 105.599 65.2 106.299 65.2C109.099 65 114.399 67.3 114.999 68.1C116.199 69.5 111.699 75.5 109.699 76.1C109.199 76.2 108.899 75 108.699 74.2C108.699 74.2 96.9994 78.4 95.6994 77.5C94.3994 76.7 94.7994 73 93.9994 72.2C93.0994 71.4 83.8994 73.6 83.8994 73.6C83.3994 75.6 84.3994 77.6 83.3994 78C80.7994 79 74.4994 73.2 74.2994 72.2C74.0994 71.2 80.5994 65.5 81.7994 65.2C82.9994 64.9 82.7994 67.1 83.1994 68.7C83.1994 68.7 92.6994 67.6 93.2994 65.9C93.7994 64.3 91.1994 55.8 91.2994 55.3C91.3994 53.8 96.6994 52.9 97.5994 53.8Z" fill="#F47B43"/>
<path fill-rule="evenodd" clip-rule="evenodd" d="M44.7996 101.4C48.3996 90.5 62.7996 85.4 72.0996 89.4C81.5996 93.5 85.7996 105.5 80.0996 117.3C78.7996 120.1 73.1996 128.2 72.7996 121.1C72.4996 115.5 71.5996 109.8 67.6996 105.7C59.3996 96.9 44.0996 103.6 44.7996 101.4Z" fill="#F47B43"/>
<path fill-rule="evenodd" clip-rule="evenodd" d="M54.9999 105.1C56.2999 107 57.7999 109.6 59.5999 111C60.4999 111.7 63.9999 110 65.1999 110C70.8999 109.9 63.8999 115.7 63.2999 117.7C62.6999 119.5 67.7999 123.5 66.6999 126.5C66.0999 128.1 57.6999 123.6 56.1999 124.6C55.6999 124.9 50.0999 132.4 47.8999 131.6C45.6999 130.8 50.0999 122.2 48.0999 120.9C46.3999 119.8 42.2999 119.5 42.0999 117.1C41.8999 115 51.0999 115.1 51.6999 111.9C51.7999 110.7 52.4999 102.9 54.9999 105.1Z" fill="#F47B43"/>
<path fill-rule="evenodd" clip-rule="evenodd" d="M91.1995 90.4C88.2995 83.8 82.9996 78.6 79.5996 84.3C76.6996 89.3 86.9996 102.6 93.0996 107.4C105.8 91.2 95.7995 75.5 91.1995 90.4Z" fill="#F47B43"/>
<path fill-rule="evenodd" clip-rule="evenodd" d="M69.8996 239C70.1996 239 64.2996 236.1 65.7996 238.7C66.2996 239.6 65.4996 240 64.6996 239.8C62.4996 239.1 61.4996 235 61.1996 233.1C60.8996 230.8 61.7996 228.3 60.9996 226.1C58.1996 218.4 57.2996 195.2 56.6996 193.3C55.9996 190.8 43.9996 167.4 44.4996 161.7C45.1996 154.3 50.6996 141.3 55.7996 133C58.8996 128.1 74.4996 154 74.1996 158C73.8996 162 60.8996 188.9 58.6996 192.7C56.7996 195.9 60.4996 223 62.8996 227.3C63.6996 228.7 65.5996 230.1 66.5996 231.6C68.0996 233.8 69.1996 236.4 69.8996 239C69.5996 238.1 69.4996 239 69.8996 239Z" fill="#F47B43"/>
<path fill-rule="evenodd" clip-rule="evenodd" d="M51.0004 139.4C50.5004 140.9 44.5004 150 43.1004 158.6C41.3004 168.9 50.7004 183.7 51.2004 184.5C51.5004 184.9 45.8004 186.2 44.9004 185.2C43.1004 183.1 35.8004 171.4 36.2004 157.5C36.4004 150.4 43.8004 139.1 44.9004 137.9C47.0004 138.1 49.0004 138.7 51.0004 139.4Z" fill="#F47B43"/>
<path fill-rule="evenodd" clip-rule="evenodd" d="M111.2 289.9C111.2 289.6 109.9 288.7 109.5 288.5C102.9 285.4 96.1996 275 94.3996 277.7C94.1996 278 94.1996 278.5 93.4996 278.5C92.2996 276.5 91.1996 272.3 88.8996 269.3C85.5996 265 82.2996 264.7 82.2996 266.7C82.2996 277.8 79.3996 274 79.5996 266.3C79.9996 250.4 74.3996 249.9 70.3996 255C67.9996 255.5 69.4996 248.3 69.2996 247.4C69.1996 247.1 69.0996 246.8 68.8996 246.6C68.6996 246.4 68.4996 246.2 68.1996 246.1C67.8996 246 67.5996 246 67.2996 246.1C66.9996 246.2 66.6996 246.3 66.4996 246.5C65.7996 246.9 65.0996 247.2 64.3996 247.5C61.6996 246.4 60.9996 242.9 60.0996 239.8C59.3996 237.7 58.6996 234.4 57.9996 236.4C57.0996 239.2 61.3996 247.1 62.8996 249.7C62.9996 249.9 63.1996 250.1 63.3996 250.3C63.5996 250.5 63.7996 250.6 64.0996 250.6C64.2996 250.6 64.5996 250.6 64.8996 250.6C65.1996 250.6 65.3996 250.4 65.5996 250.3C65.7996 250.2 65.8996 250.1 66.0996 250C65.9996 250.8 65.8996 251.7 65.8996 252.5C65.7996 254.1 66.2996 255.7 67.2996 256.9C67.4996 257.2 67.8996 257.4 68.1996 257.6C68.5996 257.7 68.8996 257.8 69.2996 257.8C69.6996 257.8 69.9996 257.6 70.3996 257.4C70.6996 257.2 70.9996 256.9 71.1996 256.6C71.9996 255.2 72.2996 254.2 74.8996 267.2C75.6996 271.3 77.8996 278.2 82.9996 279.6C86.4996 280.6 84.9996 272.6 85.4996 272.2C85.9996 272.5 86.0996 273 86.2996 273.5C87.6996 277.3 89.6996 280.7 91.8996 284C92.7996 285.3 93.9996 285.9 95.2996 285.6C96.5996 285.3 96.3996 283.4 97.8996 282.7C99.2996 282 101.7 285.5 103.1 286.5C107.7 290.2 111.1 290.2 111.2 289.9Z" fill="#F47B43"/>
<path fill-rule="evenodd" clip-rule="evenodd" d="M185.599 33.1C183.299 30.6 182.999 28.9 184.299 25.8C184.999 24 185.799 21.3 188.199 21.7C190.799 22.1 192.999 20.9 195.199 20C197.099 19.2 199.999 17.6 202.099 18.1C203.099 18.4 203.999 18.9 204.799 19.6C206.199 20.9 203.999 21.4 203.299 21.9C201.499 23.1 200.299 25.7 202.199 27.1C204.299 28.7 207.099 27.6 209.299 26.6C213.699 24.4 219.599 28.4 220.999 32.7C221.299 33.5 221.099 38.6 218.799 36.4C216.199 33.8 201.699 33.1 197.799 36.3C194.899 38.7 187.299 35 185.599 33.1Z" fill="#F47B43"/>
<path fill-rule="evenodd" clip-rule="evenodd" d="M218.7 18.8C222.1 20 226.4 26.2 223.5 29.7C221.5 32 220 29.2 218.8 27.7C217.4 26 215.9 24.8 213.7 24.5C210.9 24.1 208.6 26.1 205.9 26.5C203.5 26.8 201.4 25.2 203.4 23.2C206.9 19.3 213.6 17.5 218.7 18.8C220.6 19.5 217.1 18.4 218.7 18.8Z" fill="#F47B43"/>
<path fill-rule="evenodd" clip-rule="evenodd" d="M205.399 42.4C202.199 42.4 202.699 36.3 205.299 35.8C208.899 35.1 208.999 42.4 205.399 42.4Z" fill="#F47B43"/>
<path fill-rule="evenodd" clip-rule="evenodd" d="M199.2 36.5C201.5 33.7 203.8 38.3 201.7 40.6C199.1 43.5 196.9 39.3 199.2 36.5Z" fill="#F47B43"/>
<path fill-rule="evenodd" clip-rule="evenodd" d="M210.2 36.5C212.5 33.7 214.8 38.3 212.7 40.6C210.1 43.6 207.8 39.3 210.2 36.5Z" fill="#F47B43"/>
<path fill-rule="evenodd" clip-rule="evenodd" d="M215.3 36.5C217.2 34.2 219.1 38 217.4 39.9C215.2 42.3 213.4 38.8 215.3 36.5Z" fill="#F47B43"/>
<path fill-rule="evenodd" clip-rule="evenodd" d="M73.9998 141.1C72.2998 139.5 70.4998 138.1 68.9998 136.4C67.9998 135.3 67.8998 134.8 68.5998 133.5C68.7998 133.2 68.8998 132.9 68.9998 132.6C69.5998 130.7 70.5998 128.8 71.6998 127.1C71.8998 126.8 72.0998 126.6 72.3998 126.5C72.6998 126.4 72.9998 126.4 73.2998 126.4C73.8998 126.6 74.1998 127.1 74.1998 127.9C74.1998 129.7 73.3998 131.2 72.7998 132.8C72.3998 134 72.2998 133.8 73.2998 134.6C73.7998 135 74.2998 135.7 74.7998 135.6C75.4998 135.5 75.3998 134.6 75.5998 134C76.0998 133 77.0998 132.1 77.3998 132.5C77.9998 133.1 77.8998 133.9 77.5998 134.7C77.4998 135.2 77.2998 135.8 76.9998 136.2C76.4998 136.9 76.6998 137.4 77.2998 137.9C78.1998 138.6 78.9998 139.4 79.8998 140.1C80.4998 140.6 80.7998 140.6 81.1998 139.9C81.5998 139.4 81.8998 138.8 82.0998 138.2C82.1998 137.9 82.3998 137.5 82.4998 137.2C83.0998 136.2 83.7998 135.7 84.3998 136C85.6998 136.7 86.1998 138 85.5998 139.1C84.4998 140.8 83.3998 142.4 82.1998 144C81.9998 144.3 81.5998 144.6 81.2998 144.7C80.8998 144.9 80.4998 144.9 80.0998 144.9C78.7998 144.9 77.5998 144.4 76.6998 143.4C75.8998 142.7 74.8998 141.9 73.9998 141.1Z" fill="#F47B43"/>
<path fill-rule="evenodd" clip-rule="evenodd" d="M89.7004 119.7C90.0004 119.4 90.5004 119.3 90.9004 119.3C91.8004 119.4 92.0004 119 92.0004 118.2C92.0004 117.6 92.2004 116.9 92.5004 116.4C92.6004 116.1 92.8004 115.8 93.1004 115.6C93.3004 115.4 93.6004 115.2 93.9004 115.1C94.2004 115 94.5004 115 94.8004 115C95.1004 115 95.4004 115.1 95.7004 115.3C96.6004 115.8 97.4004 116.4 98.0004 117.2C98.7004 118 99.2004 119 100.4 119.4C100.8 119.5 100.8 119.9 100.8 120.3C100.8 120.6 100.7 120.8 100.5 121C100.3 121.2 100.1 121.3 99.9004 121.4C99.6004 121.5 99.3004 121.5 99.0004 121.4C98.7004 121.3 98.5004 121.2 98.2004 121C97.7004 120.6 97.3004 120.1 97.0004 119.5C96.5004 118.7 95.8004 118 95.1004 117.4C94.7004 117.1 94.4004 117.2 94.3004 117.6C94.1004 118.3 94.1004 119 94.3004 119.6C94.5004 120.5 94.9004 121.3 95.4004 122.1C95.6004 122.3 95.7004 122.6 95.8004 123C95.9004 123.2 95.8004 123.5 95.8004 123.7C95.7004 123.9 95.6004 124.1 95.4004 124.2C95.2004 124.3 95.0004 124.3 94.8004 124.3C94.6004 124.3 94.4004 124.2 94.2004 124.1C93.8004 123.8 93.4004 123.5 93.1004 123C92.9004 122.6 92.6004 122.3 92.3004 121.9C91.6004 121.2 91.2004 121.2 90.5004 121.8C89.9004 122.3 89.9004 122.8 90.5004 123.4C91.2004 124 91.9004 124.5 92.7004 125C93.5004 125.5 93.7004 126 93.4004 126.7C93.2004 127 93.0004 127.2 92.7004 127.4C92.4004 127.5 92.0004 127.5 91.7004 127.4C91.1004 127.3 90.6004 127 90.2004 126.6C89.8004 126.1 89.4004 125.7 89.0004 125.3C88.6004 125 88.3004 124.6 88.1004 124.2C87.9004 123.8 87.9004 123.3 87.9004 122.8C88.0004 122.2 88.2004 121.6 88.5004 121C88.7004 120.5 89.2004 120 89.7004 119.7Z" fill="#F47B43"/>
<path fill-rule="evenodd" clip-rule="evenodd" d="M103.7 114.2C104.2 113.8 104.7 113.5 105.3 113.1C105.7 112.9 106 113 106.1 113.5C106.3 114.1 106.3 114.7 106.2 115.2C106 115.8 105.6 116.3 105.1 116.6C104.6 117 104 117.4 103.4 117.7C101.9 118.5 100 118.6 98.8004 116.4C98.1004 115.1 97.7004 113.6 97.8004 112.1C97.8004 111.6 98.0004 111.1 98.3004 110.8C98.6004 110.4 99.1004 110.2 99.6004 110.2C100.6 110.1 101.3 110.8 100.8 111.7C100.1 113 100.5 114 101.2 115.1C101.5 115.6 101.8 115.7 102.3 115.4C102.6 114.9 103.2 114.6 103.7 114.2Z" fill="#F47B43"/>
<path fill-rule="evenodd" clip-rule="evenodd" d="M101.4 106.4C101 104.9 101.6 102.9 102.6 102.2C102.9 102 103.3 101.9 103.6 101.9C104 102 104.3 102.1 104.5 102.4C104.8 102.7 105.1 103.1 105.3 103.5C105.5 103.9 105.6 104.2 105.7 104.6C105.8 104.6 105.9 104.7 106 104.7C106.1 104.7 106.2 104.7 106.3 104.6C106.5 104.4 106.8 104.4 107 104.4C107.3 104.4 107.5 104.6 107.6 104.7C107.8 104.9 107.8 105.2 107.8 105.5C107.8 105.8 107.7 106 107.5 106.2C107 106.8 106.4 107.2 105.8 107.4C105.6 107.5 105.5 107.5 105.3 107.5C105.1 107.5 105 107.4 104.8 107.4C104.6 107.3 104.5 107.2 104.4 107.1C104.3 107 104.2 106.8 104.2 106.6C104 106 103.9 105.3 103.8 104.7C103.7 104.4 103.6 104.1 103.3 104C102.9 103.9 102.8 104.2 102.7 104.4C102.2 105.1 101.8 105.6 101.4 106.4Z" fill="#F47B43"/>
<path fill-rule="evenodd" clip-rule="evenodd" d="M82.7995 130.6C82.0995 131.1 81.4995 131.3 81.0995 130.9C80.5995 130.5 80.8995 129.9 81.1995 129.4C81.8995 128.5 82.4995 127.6 83.1995 126.7C83.2995 126.5 83.4995 126.3 83.5995 126.2C83.7995 126 83.9995 126 84.2995 126C84.5995 126 84.7995 126.1 84.9995 126.2C85.1995 126.3 85.2995 126.5 85.2995 126.8C85.2995 127 85.2995 127.3 85.0995 127.5C84.5995 128.6 83.7995 129.7 82.7995 130.6Z" fill="#F47B43"/>
<path fill-rule="evenodd" clip-rule="evenodd" d="M86.2995 128C86.7995 127.6 87.2995 127.4 87.5995 127.6C87.8995 127.8 87.8995 128.3 87.8995 128.6C87.5995 129.9 86.7995 131.1 85.6995 132C85.5995 132.1 85.3995 132.2 85.1995 132.2C84.9995 132.2 84.7995 132.2 84.6995 132.2C84.0995 132.1 83.6995 131.5 83.9995 131C84.6995 129.9 85.5995 128.8 86.2995 128Z" fill="#F47B43"/>
<path fill-rule="evenodd" clip-rule="evenodd" d="M128.3 71.9C126.7 71.5 107.5 79 105.3 80.9C103.7 82.2 103.5 89.1 102.4 97.3C104.1 96.8 105.7 96.2 107.3 95.5C110.2 100.7 113.6 112.3 115 111.9C116.4 111.5 119.3 108.6 131 104.8C138.9 102.2 145.2 100.7 145.2 100.7C144.7 98.9 139.7 87.7 138.1 84.4L142.1 82.3C138.2 79.1 128.3 71.9 128.3 71.9ZM119.4 100.6L115.3 102.5L113.6 98.5L117.9 96.8L119.4 100.6ZM117.4 95.6L113.2 97.4L111.7 93.6L116.2 91.7L117.4 95.6ZM124.5 98.5L120.6 100.4C120.4 99.8 119 96.3 119 96.3L123.1 94.7C123.4 95.3 124.5 98.5 124.5 98.5ZM122.6 93.6C122.6 93.6 119.2 95.1 118.6 95.3C118.6 95.3 117.3 91.9 117.1 91.4L121.1 89.9C121.1 89.9 122.3 93 122.6 93.6ZM141.2 100C138.1 100.4 135.1 101.1 132.2 102.3L126.7 88.6C126.7 88.6 132.9 86.1 135.1 85.4C135.2 85.3 140.5 97.9 141.2 100Z" fill="#F47B43"/>
<path fill-rule="evenodd" clip-rule="evenodd" d="M37.3002 110.9C37.4002 111.6 37.4002 112.3 37.3002 113C33.7002 113.4 19.0002 101.8 17.8002 102.3C16.8002 102.8 18.3002 103.9 18.3002 103.9C18.0002 105.8 9.60018 117.9 7.90018 118.3C7.10018 117.5 5.90018 116.6 6.10018 118C6.40018 120.5 7.70018 139.6 7.00018 145.4C6.00018 145.4 4.40018 143.4 4.20018 144.8C4.10018 145.6 7.90018 148 8.30018 148C11.7002 147.8 12.8002 144 16.0002 143.8C12.2002 137.9 8.60018 123.6 8.70018 123.6C11.0002 127.6 15.8002 136.9 18.8002 142.8C21.7002 139.8 30.2002 146 36.2002 141.4C37.2002 131.2 37.0002 118.6 39.3002 113.2L39.1002 111.8C38.5002 109.2 37.1002 109.8 37.3002 110.9ZM31.9002 136.8C29.4002 138.1 8.70018 120.3 9.80018 120.3C11.3002 120.3 15.8002 124.6 21.5002 128.8C27.8002 133.5 31.9002 136.8 31.9002 136.8Z" fill="#F47B43"/>
<path fill-rule="evenodd" clip-rule="evenodd" d="M170.5 97.2C174.1 97.7 186.5 99.1 189 99.3C190.5 99.4 191.3 98.6 191.5 97.1C192.4 92.5 195.1 76.6 189.7 66.8C188.8 65.2 185.6 65.8 185 64.5C184.4 63.3 187.6 60.2 183.6 61.6C177.8 63.6 167.4 69 167 69.7C166.6 70.4 166.6 74.4 166.6 75.7C166.6 76.1 160.8 78.7 160.4 82C159.9 87.3 167.6 88.5 167.7 89.5C167.9 91.3 168.5 96.9 170.5 97.2ZM170.2 69.3C175.9 68.5 181.7 68.3 187.4 67C187.9 66.9 188.1 67.6 187.7 67.7C182 69 176.1 69.2 170.3 70C169.8 70.1 169.7 69.3 170.2 69.3ZM167.1 78.9C167.2 80.4 167.6 85 167.7 86.5C167.7 87 162.6 84.8 162.5 82.5C162.3 79.8 167.1 78.4 167.1 78.9ZM170.5 93.9C173 93.8 175.6 94.3 178.5 93.5C180.2 93 179.1 75.6 178.5 73.9C177.9 72.1 171.6 73.6 168.2 73C167.7 72.9 168 71.5 168.5 71.6C172 72.2 179.5 71.1 180.2 72.4C180.9 73.7 181.7 89.9 180.9 94.1C180.6 95.5 172.5 95.5 170.8 95.5C170.3 95.4 170 93.9 170.5 93.9Z" fill="#F47B43"/>
<path fill-rule="evenodd" clip-rule="evenodd" d="M54.1997 46.7C48.8997 52.2 43.9997 55.5 37.4997 60.8C33.7997 59 32.3997 61.4 34.4997 63.7C35.6997 64.9 39.0997 69.9 41.3997 68C42.7997 66.8 40.2997 65.2 41.8997 63.6C44.3997 61.2 55.4997 54.1 57.6997 51.6C72.2997 61.2 85.9997 43.3 76.1997 32.5C67.6997 23.1 50.3997 31.6 54.1997 46.7ZM68.6997 32.1C68.7997 33 62.9997 34.4 62.0997 35C61.0997 35.7 59.1997 39.3 57.8997 38.7C53.6997 36.5 68.3997 28.2 68.6997 32.1ZM70.7997 32.5C72.2997 31.5 73.3997 33.7 72.0997 34.6C71.4997 35 69.3997 33.5 70.7997 32.5Z" fill="#F47B43"/>
<path fill-rule="evenodd" clip-rule="evenodd" d="M87.1002 50.5C86.1002 49.5 80.0002 41.8 81.0002 47.4C81.2002 48.7 69.8002 60.2 67.3002 61.3C65.3002 62.2 47.0002 62.1 47.7002 67C48.7002 73.6 58.1002 84.1 65.0002 85.7C69.5002 86.8 71.7002 69.6 72.6002 66.4C74.2002 60.6 83.2002 53.9 84.6002 52.2C84.6002 52.3 89.7002 53.3 87.1002 50.5C87.7002 51.1 84.6002 47.7 87.1002 50.5ZM64.0002 64.7C64.7002 66.3 51.7002 68.3 51.5002 67.9C50.5002 66.2 63.3002 63.1 64.0002 64.7ZM66.0002 66.3C65.9002 66.4 65.7002 66.4 65.5002 66.4C65.3002 66.4 65.2002 66.3 65.1002 66.2C65.0002 66.1 64.9002 65.9 64.9002 65.8C64.9002 65.6 64.9002 65.5 65.0002 65.3C65.8002 63.7 67.7002 65.5 66.0002 66.3Z" fill="#F47B43"/>
<path fill-rule="evenodd" clip-rule="evenodd" d="M47.8002 244.9C46.2002 245.7 45.8002 247.1 45.5002 248.6C44.9002 248.4 44.3002 248 43.8002 247.5C41.4002 245.2 39.1002 243 36.8002 240.6C32.7002 236.3 29.7002 231.2 26.4002 226.2C24.8002 223.8 23.2002 221.4 21.6002 219C21.1002 218.2 20.5002 217.4 20.0002 216.6C19.8002 216.3 19.7002 216 19.7002 215.7C19.7002 215.4 19.7002 215.1 19.8002 214.8C20.0002 213.8 20.4002 213.7 21.4002 213.8C22.6002 213.9 23.3002 214.7 23.9002 215.6C24.8002 217 25.8002 218.4 26.6002 219.8C28.8002 223.5 31.6002 226.9 34.3002 230.2C35.4002 231.6 36.4002 233.1 37.6002 234.5C40.4002 237.9 43.5002 241 46.7002 243.8L47.8002 244.9Z" fill="#F47B43"/>
<path fill-rule="evenodd" clip-rule="evenodd" d="M49.8997 246.6C49.7997 246.5 48.4997 245.2 48.0997 245.5C47.8997 245.7 45.7997 247.4 46.4997 249C46.6997 249.5 47.2997 249.7 47.7997 250C47.8997 250 48.3997 247.1 49.8997 246.6Z" fill="#F47B43"/>
<path fill-rule="evenodd" clip-rule="evenodd" d="M61.9 252.4C59.8 249.3 55.6 245.7 50.8 247C49 248 48.9 250.3 48.8 250.3C48.5 253.3 50.9 257 52.7 257.8C56.5 259.5 60.8 263 61 262.7C61.2 262.5 59.2 259.8 58.3 258.8C58 258.5 57.7 258.3 57.7 257.9C57.9 257.7 59.9 258.3 60.7 258.9C62 259.9 63.1 261 64 262.4C64.1 262.5 64.2 262.8 64.4 262.7C64.7 262.7 65.2 257.3 61.9 252.4ZM58.2 251.2C57.9 251.5 57.6 251.3 57.4 251.1C56.8 250.6 56.2 250.1 55.5 249.8C54.5 249.2 53.3 248.8 52.2 248.9H52C51.7 248.9 51.4 248.9 51.3 248.6C51.2 248.3 51.6 248.1 51.9 248C52.3 247.9 52.8 247.9 53.2 247.9C54.7 248 57.4 249.4 58.2 250.5C58.2 250.7 58.6 250.9 58.2 251.2ZM60.3 253.5C59.9 253.7 59.9 253.2 59.7 253.1C59.6 252.9 59.5 252.8 59.4 252.6C59.3 252.5 59.2 252.2 59.4 252C59.7 251.9 59.8 252 59.9 252.2C60 252.3 60.1 252.4 60.2 252.6C60.3 252.9 60.7 253.2 60.3 253.5Z" fill="#F47B43"/>
<path fill-rule="evenodd" clip-rule="evenodd" d="M236.8 30.9C235.1 29.8 233.4 30.4 232.1 31.7C229.5 34.6 215.7 45.6 211.2 48.1C210.8 48.3 210.7 48.2 210.5 48C209.9 47.1 209.9 47.1 209 47.5C208.7 47.6 208.5 47.7 208.2 47.8C207.3 48.3 206.6 48 205.8 47.4C192.9 37.3 183.8 50.9 187.2 58.9C190.7 66.8 203.5 69.5 208.5 57.7C208.7 57.2 211.2 56 211.9 56.1C212.2 56.1 212.1 55.5 212.1 54.6C221.9 47.9 234.5 39 237.5 35.7C238.9 34.2 238.2 31.8 236.8 30.9ZM210.2 52.3C210.6 52.3 210.8 52.6 210.8 53.1C210.8 53.2 210.7 53.3 210.7 53.4C210.2 53.7 209.5 53.8 208.9 53.7C208.7 53.5 208.7 53.3 208.7 53.1C208.8 52.6 209.3 52.3 210.2 52.3ZM209.3 49.6C208.9 49.8 208.5 49.9 208.1 49.9H208L207.9 49.8V49.7V49.6C208.1 49.4 208.3 49.3 208.5 49.2C208.7 49.1 208.9 49.1 209.2 49.1C209.4 49.2 209.5 49.3 209.3 49.6ZM189.3 52.9C190.6 47.7 195.7 46.1 197.2 46.3C199.7 46.6 207.1 49 205.6 55.7C202.8 68.4 187 61.6 189.3 52.9ZM209.9 50.4C210.1 50.4 210.2 50.6 210.3 50.8C210.3 50.9 210.4 51 210.4 51.1C210.4 51.2 210.4 51.3 210.3 51.4C209.8 51.7 209.2 51.8 208.7 51.7C208.5 51.5 208.4 51.2 208.6 51C208.9 50.5 209.4 50.4 209.9 50.4Z" fill="#F47B43"/>
<path fill-rule="evenodd" clip-rule="evenodd" d="M193 50.5C193.6 49.8 194.4 49.3 195.3 49C195.7 48.9 196 48.8 196.4 48.8C196.7 48.8 197.1 48.8 197.3 49.2C197.4 49.6 197 49.7 196.8 49.8C195.8 50.3 194.8 51 194 51.8C193.6 52.1 193.3 52.5 193.2 53C193.2 53.4 192.9 53.6 192.5 53.5C192.3 53.5 192.2 53.4 192 53.3C191.9 53.2 191.8 53 191.8 52.8C191.7 52.5 191.7 52.2 191.8 51.9C191.9 51.6 192 51.4 192.2 51.1C192.5 51 192.8 50.7 193 50.5Z" fill="#F47B43"/>
<path fill-rule="evenodd" clip-rule="evenodd" d="M192.8 56.5C192.4 56.8 192.1 56.6 191.9 56.4C191.8 56.4 191.7 56.3 191.7 56.2C191.6 56.1 191.6 56 191.6 55.9C191.6 55.8 191.6 55.7 191.6 55.6C191.6 55.5 191.7 55.4 191.7 55.3C191.8 55.2 191.8 55.1 191.9 55.1C192 55 192.1 55 192.2 55C192.3 55 192.4 55 192.5 55C192.6 55 192.7 55.1 192.8 55.2C193.1 55.5 193 56 192.8 56.5Z" fill="#F47B43"/>
<path fill-rule="evenodd" clip-rule="evenodd" d="M121.1 21.2C120.7 21.3 120.3 21.3 119.9 21.2C118.6 20.7 117.3 20.1 116.1 19.4C116 19.4 115.9 19.3 115.8 19.2C115.7 19.1 115.6 19 115.6 18.9C115.6 18.8 115.5 18.6 115.5 18.5C115.5 18.4 115.6 18.2 115.6 18.1C115.7 17.9 115.9 17.7 116.2 17.6C116.4 17.5 116.7 17.5 117 17.5C118.5 17.8 120 18.3 121.5 18.9C121.8 19 122 19.2 122.1 19.4C122.2 19.6 122.2 19.9 122.1 20.2C122 20.4 121.9 20.7 121.7 20.8C121.5 21 121.3 21.1 121.1 21.2Z" fill="#F47B43"/>
<path fill-rule="evenodd" clip-rule="evenodd" d="M119.2 13.6C118.5 13.7 117.8 13.8 117.1 13.8C116.1 13.9 115.6 13.6 115.6 13.1C115.6 12.4 116.2 12.2 116.8 12C118.3 11.6 119.8 11.3 121.2 11C122.1 10.8 122.8 11.3 122.8 12C122.8 12.7 122.3 13.2 121.4 13.4C120.7 13.5 120 13.6 119.2 13.6Z" fill="#F47B43"/>
<path fill-rule="evenodd" clip-rule="evenodd" d="M113.9 9.00001C113.4 9.20001 112.9 9.20001 112.6 8.80001C112.5 8.60001 112.4 8.40001 112.4 8.10001C112.4 7.90001 112.5 7.60001 112.7 7.50001C113.5 6.70001 114.4 5.90001 115.4 5.30001C115.6 5.10001 115.9 5.10001 116.1 5.10001C116.4 5.10001 116.6 5.20001 116.8 5.40001C116.9 5.50001 117 5.60001 117 5.70001C117 5.80001 117.1 6.00001 117.1 6.10001C117.1 6.20001 117.1 6.40001 117 6.50001C116.9 6.60001 116.9 6.70001 116.7 6.80001C115.9 7.70001 114.9 8.50001 113.9 9.00001Z" fill="#F47B43"/>
<path fill-rule="evenodd" clip-rule="evenodd" d="M92.7004 20.2C92.5004 20.4 92.6004 20.6 92.5004 20.9C92.4004 21.1 92.3004 21.3 92.1004 21.4C91.9004 21.5 91.7004 21.6 91.5004 21.6C91.3004 21.6 91.1004 21.5 90.9004 21.4C90.7004 21.3 90.6004 21.1 90.5004 20.9C90.3004 20.1 90.1004 19.4 89.9004 18.6C89.9004 18.4 89.9004 18.2 90.0004 18.1C90.1004 17.9 90.2004 17.8 90.4004 17.7C90.5004 17.6 90.7004 17.6 90.9004 17.6C91.1004 17.6 91.2004 17.7 91.3004 17.8C91.8004 18.1 92.1004 18.6 92.3004 19.1C92.3004 19.5 92.5004 19.9 92.7004 20.2Z" fill="#F47B43"/>
<path fill-rule="evenodd" clip-rule="evenodd" d="M115.8 23.7C115.9 23.9 116 24.2 115.9 24.4C115.9 24.6 115.7 24.9 115.5 25C115.4 25.1 115.3 25.2 115.2 25.2C115.1 25.3 115 25.3 114.8 25.3C114.7 25.3 114.5 25.3 114.4 25.2C114.3 25.1 114.2 25.1 114.1 25C113.6 24.6 113.1 24.2 112.6 23.9C112.4 23.8 112.2 23.6 112.1 23.4C112 23.2 112 23 112.1 22.8C112.1 22.6 112.2 22.4 112.4 22.3C112.5 22.2 112.7 22.1 112.8 22C113 22 113.1 22 113.3 22C114.4 22.3 115.2 22.9 115.8 23.7Z" fill="#F47B43"/>
<path d="M111.9 13.3C109 6.4 97.7004 7.9 95.1004 17C95.0004 17 94.9004 16.9 94.9004 16.8C94.8004 16.6 94.6004 16.4 94.3004 16.3C94.0004 16.2 93.8004 16.2 93.5004 16.3C93.3004 16.4 93.1004 16.6 93.0004 16.8C92.9004 17 92.9004 17.3 92.9004 17.6C93.0004 18.1 93.0004 18.5 93.1004 19C93.1004 19.3 93.3004 19.6 93.1004 19.9C93.3004 20.4 93.5004 20.9 94.2004 21C94.9004 21.1 95.3004 20.5 95.7004 20.1C107.2 30.3 114.5 19.4 111.9 13.3ZM104.7 21.8C104.2 21.8 103.8 21.7 103.8 21.1C103.8 20.5 104.2 20.5 104.6 20.5C105.2 20.5 105.9 20.3 106.5 20.1C107 20 107.4 19.8 107.8 19.5C108.2 19.2 108.4 18.8 108.6 18.3C108.7 18 108.8 17.7 109 17.4C109.1 17.2 109.3 16.9 109.6 17C109.9 17.1 109.9 17.4 109.9 17.7C109.6 19.2 108.9 20.5 107.3 21.1C107 21.2 106.8 21.3 106.5 21.4C105.9 21.7 105.3 21.8 104.7 21.8Z" fill="#F47B43"/>
<path fill-rule="evenodd" clip-rule="evenodd" d="M236.6 92.9C237.6 93.7 230 104.5 230.7 112.6C230.9 114.5 230.5 114.9 232 116.1C232.8 116.7 235.6 117.9 236.1 117.7C235.6 115.3 236.7 111.8 239.1 110.2C234.1 105.2 237.6 94.5 239.2 94.5C239.9 94.5 237.4 98.9 238 103.1C238.6 107.9 242.4 112.7 242.9 113.3C243.2 113.7 243.9 113.9 243.9 114.4C244 114.9 243.5 115.3 243.3 115.7C242.9 116.7 242.6 117.6 242.3 118.6C242.1 119.2 242 119.4 241.4 119.2C240.1 118.8 238.6 118.8 237.3 119.2C236.3 119.5 230.4 117.6 229.6 115.3C227.3 109 235.6 92.2 236.6 92.9Z" fill="#F47B43"/>
<path fill-rule="evenodd" clip-rule="evenodd" d="M244.9 114.6L243.5 119.2C243.5 119.2 262 137.3 264 160.2L272.3 165L276.3 154.6C276.2 154.7 277.5 142 244.9 114.6Z" fill="#F47B43"/>
<path fill-rule="evenodd" clip-rule="evenodd" d="M92.7995 44.9C87.0995 46.9 86.8995 35.3 92.7995 36.9C97.4995 38.2 96.3995 43.7 92.7995 44.9Z" fill="#F47B43"/>
<path fill-rule="evenodd" clip-rule="evenodd" d="M87.6002 34.5C83.4002 35.9 83.4002 27.5 87.6002 28.7C91.0002 29.7 90.2002 33.6 87.6002 34.5Z" fill="#F47B43"/>
<path fill-rule="evenodd" clip-rule="evenodd" d="M80.6996 26.2C77.8996 27.2 77.8996 21.6 80.6996 22.3C82.8996 22.9 82.3996 25.6 80.6996 26.2Z" fill="#F47B43"/>
<path fill-rule="evenodd" clip-rule="evenodd" d="M93.7996 31.7C91.6996 32.4 91.6996 28.3 93.7996 28.8C95.3996 29.3 95.0996 31.2 93.7996 31.7Z" fill="#F47B43"/>
<path fill-rule="evenodd" clip-rule="evenodd" d="M85.2996 42C82.1996 43.1 82.1996 36.9 85.2996 37.7C87.7996 38.4 87.1996 41.3 85.2996 42Z" fill="#F47B43"/>
<path fill-rule="evenodd" clip-rule="evenodd" d="M85.7 25.8C84.1 26.3 84.1 23.2 85.7 23.6C86.9 24 86.6 25.4 85.7 25.8Z" fill="#F47B43"/>
<path fill-rule="evenodd" clip-rule="evenodd" d="M273.599 87.6C273.899 89.2 273.699 90.9 273.099 92.4C272.799 93.1 272.399 93.6 271.799 94.1C271.199 94.5 270.499 94.8 269.799 94.8C267.599 95.1 265.599 94.6 264.199 93.1C262.199 91 263.299 86.2 266.099 84.7C268.799 83.3 272.699 84.7 273.599 87.6Z" fill="#F47B43"/>
<path fill-rule="evenodd" clip-rule="evenodd" d="M277.1 102C278.7 106.4 275.1 108.2 273.7 108.4C271.7 108.7 270 108.2 268.7 106.9C266.9 105.1 267.9 100.7 270.4 99.4C272.9 98.1 276.3 99.4 277.1 102Z" fill="#F47B43"/>
<path fill-rule="evenodd" clip-rule="evenodd" d="M181.7 55.4C182.3 44.5 178.9 31.2 180.7 19.8C184.2 19.1 192.1 18.1 194.8 10.3C196.1 6.60001 193.2 6.70001 192.2 8.40001C190.3 11.7 188 12.8 182.1 13C178.5 13.1 174.9 12.7 171.4 11.8C168.4 10.9 165.4 10.3 162.3 10.2C157.3 9.90001 149.3 10.1 146.1 10.1C144.4 10.1 143.1 9.60001 140 9.80001C135.9 10.1 131.2 10.2 125.1 6.00001C123.2 4.90001 122.9 5.70001 124.1 7.60001C125.5 9.80001 132.7 14.1 138.9 13.1C133.3 22.8 122.4 27.9 121 28.8C119.3 29.9 120.3 31.2 121.8 30.6C122.9 30.1 129.2 28.7 134.1 25.9C133.3 30.1 127.7 37.5 127.5 38.3C127.3 39.4 127.9 40 129 39.7C129.7 39.5 141.1 27.2 146.3 13.1C150.7 13.6 154.3 13.6 155 13.7C149.1 30.3 136.3 39.4 138.6 41C139.1 41.7 148.3 37.7 153.9 28.2C153.7 33.8 150 45.1 149.9 46.3C149.8 48.6 152.2 48.1 152.4 47.5C161.5 28.2 162.8 14.2 163.6 13.8C165.5 12.9 171.6 14.7 171.5 15.6C171.3 18 159.4 47.2 159.2 48.3C159 49.2 159.4 49.7 160.3 49.6C161.1 49.5 161.8 49.1 162.4 48.6C165.7 45.6 168.7 39.3 173.6 33.1C174 33.8 175.4 49.2 178.2 55.9C180.3 61.2 181.5 57.6 181.7 55.4Z" fill="#F47B43"/>
<path fill-rule="evenodd" clip-rule="evenodd" d="M149.1 3.00001C150.6 7.10001 147.2 8.9 145.9 9C145.1 9.2 144.2 9.1 143.4 8.9C142.6 8.7 141.8 8.20001 141.2 7.60001C139.5 5.90001 140.5 1.8 142.8 0.500005C145.1 -0.799995 148.3 0.500005 149.1 3.00001Z" fill="#F47B43"/>
<path fill-rule="evenodd" clip-rule="evenodd" d="M180.5 5.90001C182 10 178.6 11.8 177.3 11.9C176.5 12.1 175.6 12 174.8 11.8C174 11.6 173.2 11.1 172.6 10.5C170.9 8.80001 171.9 4.70001 174.2 3.40001C176.5 2.20001 179.7 3.50001 180.5 5.90001Z" fill="#F47B43"/>
<path fill-rule="evenodd" clip-rule="evenodd" d="M163.7 3.4C165.2 7.5 161.8 9.3 160.5 9.4C159.7 9.6 158.8 9.5 158 9.3C157.2 9.1 156.4 8.6 155.8 8C154.1 6.3 155.1 2.2 157.4 0.899999C159.8 -0.400001 163 0.899999 163.7 3.4Z" fill="#F47B43"/>
<path fill-rule="evenodd" clip-rule="evenodd" d="M279.1 114.7C279.3 116 279.2 117.2 278.7 118.4C278.5 118.9 278.1 119.4 277.7 119.7C277.2 120 276.7 120.2 276.1 120.3C275.3 120.4 274.5 120.4 273.8 120.2C273 120 272.4 119.6 271.8 119C270.2 117.4 271.1 113.6 273.3 112.5C275.4 111.2 278.4 112.4 279.1 114.7Z" fill="#F47B43"/>
<path fill-rule="evenodd" clip-rule="evenodd" d="M246.7 109C245.2 110.6 249.4 112.3 252.3 115.2C255.3 118.2 256.6 121.5 258.2 120.3C259.9 119 270.7 112.7 267.5 106.4C263.8 99.5 249.8 105.7 246.7 109Z" fill="#F47B43"/>
<path fill-rule="evenodd" clip-rule="evenodd" d="M260 89.1C262.9 90.8 264 95.9 260.8 99.6C258.6 102.1 248.8 103.4 244.9 107C243.4 108.4 239.1 97.5 244.2 95.1C249.2 92.6 253.2 85 260 89.1Z" fill="#F47B43"/>
<path fill-rule="evenodd" clip-rule="evenodd" d="M269.4 118.7C274.5 122.4 271.3 129 267.7 132.9C267 133.6 265.4 129.6 262.9 126.9C260.4 124.1 257.2 122.6 259.6 121.2C262.1 119.6 266 116.3 269.4 118.7Z" fill="#F47B43"/>
<path fill-rule="evenodd" clip-rule="evenodd" d="M10.8999 163.2C10.5999 167.1 10.7999 179.4 10.9999 182C11.0999 183.1 11.1999 184.2 11.2999 185.3C12.8999 182.6 14.1999 179.8 15.2999 176.8C21.3999 160.5 9.09992 150 9.09992 150C9.09992 150 8.19992 153.9 5.29992 161.8C-1.40008 180 13.4999 193.8 11.9999 190.2C11.4999 189 5.69992 173 10.8999 163.2Z" fill="#F47B43"/>
<path fill-rule="evenodd" clip-rule="evenodd" d="M24.3995 155.2C25.9995 157.2 28.5995 162.1 29.4995 163.6C29.8995 164.2 30.1995 164.9 30.5995 165.5C28.5995 164.8 26.6995 163.9 24.8995 162.8C14.7995 156.7 18.6995 145.4 18.6995 145.4C20.8995 147.1 23.1995 148.7 25.5995 150.1C36.7995 156.9 32.4995 171.3 32.0995 168.7C31.7995 167.6 30.0995 156.9 24.3995 155.2Z" fill="#F47B43"/>
<path fill-rule="evenodd" clip-rule="evenodd" d="M25.2 181.1C26 184.8 29.7 195 36.3 199.9C35.7 197 35.6 194.4 36.1 189.9C37.9 173.3 20.8 165.7 20.8 165.7C21 170.5 20.4 175.3 19 180C14.6 194.4 31.2 201.8 37.5 204.6C34 202 23.4 191.1 25.2 181.1Z" fill="#F47B43"/>
<path fill-rule="evenodd" clip-rule="evenodd" d="M18.1003 202.8C20.0003 204.7 23.2003 209.5 24.3003 211C24.8003 211.6 25.2003 212.2 25.6003 212.9C23.5003 212.3 21.6003 211.5 19.6003 210.5C9.00026 205 10.8003 193.3 10.8003 193.3C13.2003 194.9 15.6003 196.3 18.2003 197.6C30.0003 203.7 28.2003 218.5 27.5003 215.9C27.2003 214.8 25.6003 204.7 18.1003 202.8Z" fill="#F47B43"/>
<path fill-rule="evenodd" clip-rule="evenodd" d="M108.5 38.2L107.2 43.5C108.5 44.2 109.7 45 110.8 45.9L112.2 40.7C111.1 39.8 109.9 38.9 108.5 38.2Z" fill="#F47B43"/>
<path fill-rule="evenodd" clip-rule="evenodd" d="M109.3 31.8C108.1 31.5 106.8 31.3 105.6 31.4L104.5 35.9C105.7 36.2 106.9 36.6 108.1 37.1L109.3 31.8Z" fill="#F47B43"/>
<path fill-rule="evenodd" clip-rule="evenodd" d="M112.5 40L114 34.5C113.1 33.7 112 33 110.9 32.5C110.6 32.4 110.3 32.2 110 32.1L108.7 37.6C110.1 38.2 111.3 39 112.5 40Z" fill="#F47B43"/>
<path fill-rule="evenodd" clip-rule="evenodd" d="M116.7 44.6L118.1 40.2C118 40 117.9 39.9 117.8 39.7C117 38 115.9 36.4 114.6 35L113.1 40.5C114.5 41.7 115.7 43.1 116.7 44.6Z" fill="#F47B43"/>
<path fill-rule="evenodd" clip-rule="evenodd" d="M111.5 46.5C112.8 47.6 113.9 48.8 114.9 50.1L116.3 45.5C115.3 44 114.1 42.6 112.8 41.3L111.5 46.5Z" fill="#F47B43"/>
<path fill-rule="evenodd" clip-rule="evenodd" d="M125.2 49.8L126.3 45.8C125.3 45.6 124.4 45.3 123.4 44.9C123.2 44.8 122.9 44.7 122.7 44.6L121.4 48.8C122.6 49.3 123.9 49.6 125.2 49.8Z" fill="#F47B43"/>
<path fill-rule="evenodd" clip-rule="evenodd" d="M134.2 50.3L134.5 46.6C133.9 46.7 132.3 46.5 131.3 46.5L130.6 50.3C131.9 50.2 133.7 50.4 134.2 50.3Z" fill="#F47B43"/>
<path fill-rule="evenodd" clip-rule="evenodd" d="M125.7 50.7L124.2 56.2C125.7 56.5 127.1 56.6 128.6 56.7L129.6 51C128.3 50.9 127 50.8 125.7 50.7Z" fill="#F47B43"/>
<path fill-rule="evenodd" clip-rule="evenodd" d="M129.8 50.2L130.5 46.4C129.3 46.4 128.1 46.2 127 46L125.9 49.9C127.2 50.1 128.5 50.2 129.8 50.2Z" fill="#F47B43"/>
<path fill-rule="evenodd" clip-rule="evenodd" d="M117.5 45.8C118.3 47 119.4 48 120.8 48.5L122.1 44.2C120.7 43.4 119.6 42.3 118.7 41L117.3 45.4L117.5 45.8Z" fill="#F47B43"/>
<path fill-rule="evenodd" clip-rule="evenodd" d="M129.4 56.6C130.6 56.6 131.9 56.6 133.1 56.5L133.9 50.9C133.3 51 131.8 50.9 130.5 50.9L129.4 56.6Z" fill="#F47B43"/>
<path fill-rule="evenodd" clip-rule="evenodd" d="M118.9 54.3L120.5 49.2C119.1 48.6 117.8 47.6 116.9 46.3L115.5 50.8C115.7 51.1 116 51.5 116.2 51.8C116.9 52.9 117.8 53.8 118.9 54.3Z" fill="#F47B43"/>
<path fill-rule="evenodd" clip-rule="evenodd" d="M119.6 55.5L119.4 55.4L117.7 60.9C118.4 61.6 119.2 62.1 120.1 62.5C120.6 62.7 121.1 62.9 121.6 63L123.3 56.7C122 56.4 120.8 56 119.6 55.5Z" fill="#F47B43"/>
<path fill-rule="evenodd" clip-rule="evenodd" d="M124 56.8L122.3 63.1C124 63.4 125.7 63.4 127.4 63.1L128.5 57.3C127 57.3 125.5 57.1 124 56.8Z" fill="#F47B43"/>
<path fill-rule="evenodd" clip-rule="evenodd" d="M129.2 57.4L128.2 63C129.7 62.7 131.2 62.3 132.7 61.7L133 57.3C131.8 57.4 130.5 57.4 129.2 57.4Z" fill="#F47B43"/>
<path fill-rule="evenodd" clip-rule="evenodd" d="M138.3 42.9C137.4 42.2 124.1 45.8 120.2 36C116.4 26.4 102.6 27.9 102.3 28.3C102 28.9 97.1003 48.4 96.9003 50C96.8003 50.8 105.6 49.4 113.1 61.5C116.9 67.7 124.4 67.7 136.1 64.8L138.3 42.9ZM119.6 63.5C117.7 62.7 116.2 61.2 115.2 59.4C112.3 54.2 107.6 51.3 104.1 49.7C103 49.2 101.9 48.8 100.8 48.5L100.3 48.4L104.6 30.4L105 30.3C107.2 30.1 109.4 30.4 111.4 31.3C114.6 32.7 117.1 35.3 118.9 39.1C119.9 41.2 121.7 42.9 123.9 43.8C128.6 45.9 135 45.3 135.1 45.3L135.8 45.2L133.9 62.3L133.6 62.4C133.2 62.7 125.5 66.1 119.6 63.5Z" fill="#F47B43"/>
<path fill-rule="evenodd" clip-rule="evenodd" d="M125 50.5C123.7 50.3 122.4 49.9 121.2 49.5L119.6 54.7C120.8 55.3 122.2 55.7 123.5 56L125 50.5Z" fill="#F47B43"/>
<path fill-rule="evenodd" clip-rule="evenodd" d="M102.8 42.6L101.6 47.6C102.6 47.9 103.6 48.3 104.5 48.7L105.2 49L106.4 43.9C105.3 43.4 104.1 42.9 102.8 42.6Z" fill="#F47B43"/>
<path fill-rule="evenodd" clip-rule="evenodd" d="M115.6 52.3L115.3 51.8L114.1 55.7C114.9 56.7 115.6 57.7 116.3 58.9C116.6 59.4 116.9 59.8 117.2 60.3L118.8 55.1C117.4 54.4 116.4 53.5 115.6 52.3Z" fill="#F47B43"/>
<path fill-rule="evenodd" clip-rule="evenodd" d="M106.6 43.2L107.9 37.9C106.8 37.4 105.6 36.9 104.3 36.7L103 41.9C104.2 42.2 105.4 42.7 106.6 43.2Z" fill="#F47B43"/>
<path fill-rule="evenodd" clip-rule="evenodd" d="M107.1 44.3L105.9 49.3C107.1 49.9 108.3 50.6 109.4 51.4L110.7 46.7C109.6 45.8 108.4 45 107.1 44.3Z" fill="#F47B43"/>
<path fill-rule="evenodd" clip-rule="evenodd" d="M111.3 47.3L110 52C111.2 52.9 112.3 53.9 113.4 55.1L114.7 51.1C113.7 49.6 112.6 48.4 111.3 47.3Z" fill="#F47B43"/>
<path fill-rule="evenodd" clip-rule="evenodd" d="M37.5003 214C37.0003 212.9 32.8003 215 33.4003 217.1C35.4003 224.1 49.1003 240.6 50.4003 240.8C52.2003 241.2 56.1003 242.2 56.2003 242C56.3003 241.8 54.6003 236.4 54.2003 236.1C47.3003 229.7 38.7003 216.7 37.5003 214ZM54.4003 238.1C54.5003 238.3 54.6003 238.9 54.7003 239.1C54.9003 239.5 55.0003 240 54.8003 240.3C54.1003 241.3 53.3003 241.2 52.2003 240.8C51.7003 240.7 51.1003 240.5 50.6003 240.3C50.8003 239.9 51.4003 239.7 51.8003 239.6C52.0003 239.6 52.3003 239.5 52.4003 239.3C52.6003 239.1 52.6003 238.9 52.6003 238.6C52.6003 238.2 53.4003 237.4 53.6003 237.2C54.2003 236.7 54.2003 237.4 54.4003 238.1Z" fill="#F47B43"/>
<path fill-rule="evenodd" clip-rule="evenodd" d="M32.1998 214.1C32.1998 214.1 33.7998 211.4 36.3998 211.5C36.3998 211.5 35.0998 208.2 34.0998 208.4C33.0998 208.6 31.1998 209.7 30.8998 210.7C30.5998 211.7 32.1998 214.1 32.1998 214.1Z" fill="#F47B43"/>
<path fill-rule="evenodd" clip-rule="evenodd" d="M164 60.9C164 59.5 164.2 55.7 164 54.8C162.6 48.6 157.7 53.4 141.8 47.5C139.8 46.8 141.3 62.1 141.7 63.3C140.5 64 139.6 65.9 139.4 66.8C139.3 67.4 139.3 68.1 139.5 68.7C139.7 69.3 140.1 69.8 140.6 70.2C141.7 71.1 143.2 71.1 144.6 70.9C146.4 74.3 149.9 78.6 153.8 77.7C157 77 159 74.8 162.1 69.1C166.4 68.6 169.5 62 164 60.9ZM141.2 66.6C141.3 66.3 141.4 65.9 141.6 65.6C141.8 65.3 142 65.1 142.3 64.9C142.8 66.6 143.4 68.3 144 69.9C142.2 70.1 140.9 69 141.2 66.6ZM162.5 68.2C162.8 66.2 163.8 64.3 163.8 62.4C166.7 63 164.7 67 162.5 68.2Z" fill="#F47B43"/>
<path fill-rule="evenodd" clip-rule="evenodd" d="M148.1 96.4C147.5 96.5 147.5 100.8 148.3 100.5C155.1 98.5 163.2 98.5 164.4 98.5C165.6 98.5 164 94.5 163 94.5C162.1 94.5 150.3 96.1 148.1 96.4Z" fill="#F47B43"/>
<path fill-rule="evenodd" clip-rule="evenodd" d="M150.099 92.5C149.699 92.6 149.599 95.7 150.299 95.5C155.199 94.1 161.099 94 161.899 94C162.699 94 161.599 91.1 160.899 91.1C160.199 91.1 151.599 92.3 150.099 92.5Z" fill="#F47B43"/>
<path fill-rule="evenodd" clip-rule="evenodd" d="M152.5 79.6C153.5 83.2 153.7 86.9 153.1 90.6L157.5 89.9C157.5 89.9 155.4 88.3 154.9 78.9L152.5 79.6Z" fill="#F47B43"/>
<path fill-rule="evenodd" clip-rule="evenodd" d="M70.2997 262.6C69.9997 262.1 69.5997 261.8 69.0997 261.6C68.5997 261.4 67.9997 261.5 67.4997 261.7C66.4997 262.2 68.8997 263.5 66.9997 266.6C65.0997 269.7 70.0997 272.9 71.6997 268.3C72.2997 266.5 71.1997 264.2 70.2997 262.6Z" fill="#F47B43"/>
<path fill-rule="evenodd" clip-rule="evenodd" d="M220.4 59.2C237.4 71.5 245.3 86.4 245.7 86C250.5 76.7 262.5 78.5 265.3 74C267.1 75.5 268.5 77.4 269.3 79.5C267.4 81.6 263.1 82.2 256.4 83.5C249.2 85 245.7 91.5 243.4 92.3C242.2 90.7 227.4 70.5 215.8 63.6C216.5 62.8 217 59.9 220.4 59.2Z" fill="#F47B43"/>
<path fill-rule="evenodd" clip-rule="evenodd" d="M246.3 42.3C246.3 42.3 225.5 45.3 220 57.4C224.6 59.2 239.5 75.2 245.9 83.5C252 74.5 255.9 79.1 266.6 71.2C264.4 64 254.8 50.7 246.3 42.3ZM252 55.5C252.9 55.1 253.6 56.4 252.7 56.8C250.7 57.6 248.8 58.5 247.1 59.7C246.3 60.2 245.3 59.2 246.1 58.6C247.9 57.4 249.9 56.4 252 55.5ZM248.8 51.1C249.7 50.7 250.3 52 249.5 52.4C247.7 53.3 245.8 54 244.1 55.2C243.3 55.7 242.3 54.7 243.1 54.1C244.9 52.9 246.9 52.1 248.8 51.1ZM238.5 49.6C241.1 48.5 243.6 47.1 246.3 46.4C247.2 46.1 247.5 47.6 246.6 47.8C244 48.6 241.7 49.8 239.2 50.9C238.4 51.4 237.7 50.1 238.5 49.6ZM228.2 57.9C228.1 56.5 231.8 52 235.3 52.4C237.5 52.6 243.8 61.7 243.8 61.7C243.8 61.7 238.7 64.7 237.5 66.5L228.2 57.9ZM240.6 68.9C245.3 65.1 250.7 62.3 256.5 60.6C256.6 60.6 256.7 60.6 256.8 60.6C256.9 60.6 257 60.7 257.1 60.8C257.2 60.9 257.3 61 257.3 61.1C257.3 61.2 257.4 61.3 257.4 61.4V61.6C257.4 61.7 257.4 61.9 257.3 62C257.2 62.1 257.1 62.2 257 62.3L256.7 62.4C256.5 62.5 256.3 62.5 256.1 62.4C250.8 64.1 245.9 66.7 241.6 70.1C240.8 70.6 239.8 69.5 240.6 68.9ZM260.1 66.2L259.5 66.4C259.4 66.5 259.2 66.5 259.1 66.4C258.7 66.6 258.2 66.9 257.9 67C257.2 67.3 256.5 67.6 255.8 67.9C254.5 68.5 253.3 69 252.1 69.7C249.5 71.1 247.1 72.7 245.2 74.9C244.6 75.6 243.3 74.8 244 74.1C246.1 71.7 248.6 69.8 251.5 68.4C253.1 67.6 254.7 66.8 256.3 66.1C257.3 65.7 258.8 64.6 259.9 64.7C260.5 64.9 260.8 66 260.1 66.2Z" fill="#F47B43"/>
<path fill-rule="evenodd" clip-rule="evenodd" d="M231.8 81.5C231.8 81.5 223.1 72.7 213.1 70.3L216 66.1C216 66.1 228.2 74.1 231.8 81.5Z" fill="#F47B43"/>
<path fill-rule="evenodd" clip-rule="evenodd" d="M224.2 112.3C217.7 108.7 209 103.3 196.2 100.1C198.7 93 200.8 79.3 200.2 72.2C200.1 71.2 199.2 71.6 199.3 72.6C199.9 79.7 197.7 92.8 195.1 99.9C195 100.3 195 100.8 195.5 100.9C207.6 104.4 217.2 109 223.3 113.2C224.1 113.8 225.1 112.8 224.2 112.3Z" fill="#F47B43"/>
<path fill-rule="evenodd" clip-rule="evenodd" d="M165.5 53.8C165.5 53.8 168.8 53.8 169.6 49.3C169.6 49.3 169.9 53.6 172.3 53.9C172.3 53.9 169.8 54.2 168.6 59.1C168.6 59.2 169 53.1 165.5 53.8Z" fill="#F47B43"/>
<path fill-rule="evenodd" clip-rule="evenodd" d="M170.9 60.7C170.9 60.7 172.8 60.7 173.3 58.1C173.3 58.1 173.5 60.6 174.9 60.8C174.9 60.8 173.5 61 172.7 63.8C172.8 63.9 173 60.3 170.9 60.7Z" fill="#F47B43"/>
<path fill-rule="evenodd" clip-rule="evenodd" d="M132.4 70.6C132.4 70.6 134.2 69.9 133.7 67.3C133.7 67.3 134.8 69.5 136.1 69.2C136.1 69.2 134.8 69.9 135.2 72.8C135.2 72.8 134.2 69.4 132.4 70.6Z" fill="#F47B43"/>
<path fill-rule="evenodd" clip-rule="evenodd" d="M140.7 77.7C140.7 77.7 142.7 76.8 142 73.9C142 73.9 143.3 76.3 144.9 75.9C144.9 75.9 143.5 76.8 144.1 80C144 80 142.6 76.3 140.7 77.7Z" fill="#F47B43"/>
<path fill-rule="evenodd" clip-rule="evenodd" d="M198.1 99.3C198.1 99.3 201.5 86.4 201.6 81.7C201.6 79.8 206.4 79.4 206.8 81.5C207.7 86.3 203.3 101.1 203.3 101.1L198.1 99.3Z" fill="#F47B43"/>
<path fill-rule="evenodd" clip-rule="evenodd" d="M204.5 101.2C204.5 101.2 207.1 94.5 207.5 89.6C207.7 87.1 213 88.3 213.4 89.3C214.8 92.2 210.4 103.1 210.4 103.1L204.5 101.2Z" fill="#F47B43"/>
<path fill-rule="evenodd" clip-rule="evenodd" d="M212 104.2C212 104.2 215.4 91.5 216.7 88.2C217.8 85.3 221.8 86.6 222.1 87.8C223 91.3 218.5 108.3 216.9 106.8C215.2 105.3 212 104.2 212 104.2Z" fill="#F47B43"/>
<path fill-rule="evenodd" clip-rule="evenodd" d="M219.2 108.1C219.2 108.1 224 92.7 225.6 88.7C227 85.2 230.8 86.3 230.9 87.6C231.3 91.6 225.1 112.3 223.7 110.7C222.2 109 219.2 108.1 219.2 108.1Z" fill="#F47B43"/>
<path d="M229.6 82.9L229.5 82.8C229.5 82.7 229.4 82.7 229.3 82.7C228.9 82.4 228.5 82 228.1 81.7C227.7 81.4 227.1 81.9 227.5 82.2L228 82.6L220.5 82.1C220.4 82.1 220.4 82.1 220.3 82.1L212.3 85.2L204.6 75C204.5 74.9 204.4 74.9 204.3 74.8C204.2 74.8 204.1 74.8 204 74.9L203.9 75C203.9 75 203.9 75.1 203.8 75.1V75.2C203.8 75.2 203.8 75.3 203.9 75.3L212 85.6C212.1 85.7 212.1 85.7 212.2 85.7C212.3 85.7 212.4 85.7 212.5 85.7L220.6 82.6L228.6 83.1C228.3 83.5 228 83.8 227.6 84C227.2 84.2 227.5 84.9 228 84.7C228.7 84.3 229.2 83.7 229.7 83.1C229.7 83 229.8 82.9 229.8 82.9C229.7 83 229.7 83 229.6 82.9Z" fill="#F47B43"/>
<path d="M215.4 78.5C214.8 78.2 214.3 77.8 213.8 77.3C214.9 76 215 74 213 73.6H212.9C212.8 73.1 211.9 73.1 212 73.7C212 74.3 212 74.7 212 75.2V75.3C212 75.4 212 75.4 212 75.5C212 75.6 212 75.6 212 75.7C212 76.6 211.9 77.5 211.9 78.4C211.8 79.6 211.6 81 211.9 82.3C211.9 82.4 212 82.5 212.1 82.6C212.2 82.7 212.3 82.7 212.5 82.7C212.6 82.7 212.7 82.6 212.8 82.5C212.9 82.4 212.9 82.3 212.9 82.1C212.7 81 212.9 79.6 212.9 78.5V78C213.7 78.3 214.1 79 214.9 79.4C215.4 79.5 216 78.7 215.4 78.5ZM212.9 76.9C212.9 76.4 212.9 75.9 213 75.3L213.2 74.6C214.1 75.1 213.6 76.2 212.9 76.9Z" fill="#F47B43"/>
<path d="M217.5 80.4C217.4 80 217.4 79.6 217.3 79.1V78.7C218.1 78.5 218.9 78.2 219.2 77.3C219.2 77.2 219.2 77.1 219.2 77.1C219.2 77 219.1 76.9 219.1 76.9C218.8 76.6 218.3 76.3 217.8 76.2C217.5 76.2 217.3 76.2 217 76.3C216.9 76.2 216.9 76.1 216.8 76.1C216.7 76.1 216.6 76.1 216.5 76.1C216.4 76.1 216.3 76.2 216.2 76.3C216.1 76.4 216.1 76.5 216.1 76.6C216.1 77.9 216.2 79.2 216.4 80.4C216.5 80.8 216.5 81.4 216.8 81.6C217.3 81.9 217.6 81.4 217.7 80.9C217.7 80.8 217.7 80.8 217.7 80.7C217.7 80.6 217.7 80.6 217.6 80.6C217.5 80.6 217.5 80.5 217.5 80.5C217.6 80.4 217.5 80.4 217.5 80.4ZM218.1 77.4C217.8 77.6 217.5 77.8 217.2 77.9C217.2 77.7 217.2 77.6 217.2 77.4C217.5 77.2 217.8 77.2 218.1 77.4Z" fill="#F47B43"/>
<path fill-rule="evenodd" clip-rule="evenodd" d="M53.9995 220.3C56.0995 216.8 56.8995 211.5 55.3995 208.6C54.0995 211.2 54.2995 211.1 53.4995 211.2C54.2995 208.4 54.6995 206.9 53.1995 204.1C52.9995 203.7 52.9995 204.8 52.4995 205.1C52.4995 203.1 50.3995 196.9 50.1995 194.8C50.0995 194.1 49.2995 198.1 49.0995 198.9C47.5995 194.1 46.5995 191.3 41.0995 186.9C37.9995 196.1 39.9995 199.7 42.1995 204C41.2995 203.6 40.4995 202.1 40.4995 202.5C40.3995 206 42.3995 209.9 44.7995 212.1C44.3995 212.1 41.9995 211 42.2995 211.4C42.2995 211.4 44.1995 217.4 50.8995 221.3C50.8995 221.3 46.2995 207.3 46.1995 201.9C48.7995 208.1 55.9995 232.1 56.8995 233.2C59.0995 230.5 53.9995 222.4 53.9995 220.3Z" fill="#F47B43"/>
<path fill-rule="evenodd" clip-rule="evenodd" d="M48.3999 83.3C47.6999 83.1 46.8999 83.1 46.1999 83.4C45.1999 82.8 44.1999 82.2 43.1999 81.7C43.8999 80.5 44.4999 79.3 45.1999 78.1C45.7999 78.1 46.3999 77.8 46.8999 77.4C47.3999 77 47.7999 76.5 47.9999 75.9C48.0999 75.5 48.1999 75.1 48.1999 74.7C48.1999 74.3 48.0999 73.9 47.8999 73.5C47.6999 73.1 47.4999 72.8 47.1999 72.5C46.8999 72.2 46.4999 72 46.0999 71.9C45.2999 71.6 44.3999 71.7 43.6999 72.1C42.9999 72.5 42.3999 73.1 42.0999 73.9C41.8999 74.4 41.8999 75 41.9999 75.5C42.0999 76 42.2999 76.5 42.6999 77C42.0999 78.1 41.4999 79.2 40.8999 80.3C37.2999 78.4 33.6999 76.4 30.5999 73.8C30.7999 73 30.6999 72.2 30.2999 71.5C29.8999 70.8 29.2999 70.3 28.4999 70C28.0999 69.9 27.6999 69.8 27.2999 69.8C26.8999 69.8 26.4999 69.9 26.0999 70.1C25.6999 70.3 25.3999 70.5 25.0999 70.9C24.7999 71.2 24.5999 71.6 24.4999 72C24.3999 72.4 24.2999 72.8 24.2999 73.2C24.2999 73.6 24.3999 74 24.5999 74.4C24.7999 74.8 24.9999 75.1 25.2999 75.4C25.5999 75.7 25.9999 75.9 26.3999 76C27.0999 76.2 27.8999 76.2 28.5999 75.9L28.6999 76C30.1999 77.3 31.7999 78.4 33.3999 79.4C33.1999 79.6 32.9999 79.8 32.7999 80C30.4999 84.8 28.9999 90.1 26.5999 94.8C25.6999 94.1 24.6999 93.4 23.6999 92.9C24.8999 89.7 26.1999 86.5 27.6999 83.4C28.4999 81.7 25.7999 80.9 25.0999 82.5C23.6999 85.5 22.3999 88.5 21.2999 91.6L20.4999 91.2C20.4999 90.5 20.3999 89.8 19.9999 89.3C19.5999 88.7 19.0999 88.3 18.3999 88.1C17.9999 88 17.5999 87.9 17.1999 87.9C16.7999 87.9 16.3999 88 15.9999 88.2C15.5999 88.4 15.2999 88.6 14.9999 89C14.6999 89.3 14.4999 89.7 14.3999 90.1C14.0999 90.9 14.1999 91.8 14.4999 92.5C14.8999 93.3 15.4999 93.8 16.2999 94.1C16.7999 94.3 17.2999 94.3 17.6999 94.2C18.1999 94.1 18.5999 93.9 18.9999 93.7L21.3999 94.9C22.5999 95.5 24.2999 96.2 25.0999 97.3C25.1999 97.5 25.3999 97.6 25.5999 97.7C25.7999 97.8 26.0999 97.8 26.2999 97.7C26.3999 97.8 26.5999 97.9 26.7999 98C26.9999 98.1 27.1999 98.1 27.3999 98.1C27.5999 98.1 27.7999 98 27.8999 97.9C28.0999 97.8 28.1999 97.6 28.2999 97.5C29.9999 94.4 31.3999 91.2 32.5999 87.8C33.8999 88.5 35.1999 89.3 36.3999 90C36.3999 90 36.3999 90 36.3999 90.1C34.9999 93.3 33.6999 96.5 32.2999 99.6C31.5999 99.6 30.8999 99.8 30.3999 100.2C29.7999 100.6 29.3999 101.2 29.1999 101.8C28.8999 102.6 28.9999 103.5 29.2999 104.2C29.6999 105 30.2999 105.5 31.0999 105.8C31.8999 106.1 32.7999 106 33.4999 105.6C34.1999 105.2 34.7999 104.6 35.0999 103.8C35.2999 103.3 35.2999 102.8 35.1999 102.4C35.0999 102 34.9999 101.4 34.6999 101C36.0999 97.9 37.3999 94.6 38.7999 91.5C39.6999 92.1 40.5999 92.7 41.4999 93.3C42.9999 94.4 44.5999 92 43.0999 91C40.0999 88.8 36.7999 87.1 33.5999 85.2C34.1999 83.7 34.7999 82.3 35.4999 80.9C35.4999 80.8 35.5999 80.7 35.5999 80.6C36.4999 81.1 37.2999 81.6 38.1999 82C38.2999 82 38.2999 82.1 38.3999 82.1C40.3999 83.2 42.3999 84.3 44.2999 85.5C44.0999 86.3 44.1999 87.1 44.5999 87.8C44.9999 88.5 45.5999 89 46.2999 89.3C47.0999 89.6 47.9999 89.5 48.6999 89.1C49.3999 88.7 49.9999 88.1 50.2999 87.3C50.3999 86.9 50.4999 86.5 50.4999 86.1C50.4999 85.7 50.3999 85.3 50.1999 84.9C49.9999 84.5 49.7999 84.2 49.4999 83.9C49.1999 83.7 48.7999 83.5 48.3999 83.3Z" fill="#F47B43"/>
<path d="M294.8 362.7C324 353.9 352.8 324.2 368.6 286.1C384.4 248 412.6 258.6 427.1 279.1C443 301.8 465.6 373.8 406.7 423.4C347.8 473 258.7 442 242.4 422.5C227 404 225.5 389.5 232 377C238.2 365.1 272.5 373.4 294.8 362.7Z" fill="#D2EDFB"/>
<path d="M389.799 272.4C400.199 278.1 405.499 306.4 392.899 338.5C380.399 370.6 366.199 384.7 322.199 395.3C278.199 405.9 243.999 388.4 241.799 380.5C239.599 372.6 260.899 372 283.799 369.5C306.799 367 330.299 367.4 348.699 336.2C367.199 305 378.299 264.4 389.799 272.4Z" fill="#9BC9DD"/>
<path d="M293.181 438.165C292.157 438.368 292.389 439.093 292.701 440.027C293.287 442.294 289.285 440.729 289.861 443.095C290.013 443.612 292.014 441.029 293.491 445.275C293.263 439.197 293.114 446.346 293.412 446.374C293.9 446.522 295.706 451.651 295.482 452.935L295.746 458.114C295.474 459.896 296.4 462.182 297.281 463.472C297.991 464.445 299.375 464.678 300.627 464.196C301.988 463.623 303.179 462.733 304.09 461.615C307.814 457.351 309.341 450.868 307.671 446.287C307.43 445.661 307.189 445.035 307.156 444.329C307.162 443.224 307.765 442.177 308.268 441.12C310.092 436.775 308.659 431.815 305.28 430.386C304.802 430.139 304.304 430.091 303.887 430.252C302.962 430.464 302.17 431.393 301.487 432.231C299.446 434.647 296.857 436.508 294.035 437.644" fill="white"/>
<path d="M299.068 464.749C298.66 464.81 298.528 464.094 299.035 464.042C306.531 462.351 308.05 453.857 307.368 447.362C307.084 446.13 307.109 444.826 307.323 443.641C307.666 442.167 308.487 440.94 308.64 439.347C308.965 435.963 307.709 430.216 303.38 430.303C302.883 430.255 302.85 429.549 303.348 429.597C306.87 429.533 308.474 432.701 309.084 435.773C309.518 437.523 309.536 439.433 309.065 441.196C308.77 442.173 308.286 443.03 308.101 443.917C307.886 445.102 307.971 446.315 308.164 447.439C308.818 454.232 306.981 462.897 299.068 464.749Z" fill="#1C1D1D"/>
<path d="M292.395 437.989C296.061 436.432 299.305 434.031 301.811 430.957C301.92 430.867 301.92 430.867 302.019 430.876C302.119 430.886 302.218 430.895 302.308 431.004C302.408 431.014 302.398 431.113 302.389 431.213C302.379 431.313 302.37 431.412 302.36 431.512C299.746 434.676 296.392 437.167 292.617 438.814C292.21 438.875 291.878 438.14 292.395 437.989Z" fill="#1C1D1D"/>
<path d="M333.901 441.164C332.937 441.565 333.308 442.23 333.798 443.085C334.82 445.191 330.587 444.447 331.619 446.652C331.87 447.129 333.322 444.203 335.608 448.073C334.184 442.16 335.449 449.197 335.748 449.167C336.255 449.215 339.037 453.886 339.071 455.19L340.353 460.214C340.438 462.015 341.797 464.074 342.915 465.165C343.803 465.978 345.206 465.933 346.338 465.213C347.559 464.383 348.551 463.276 349.223 462C352.033 457.085 352.25 450.427 349.709 446.266C349.349 445.7 348.989 445.134 348.818 444.448C348.605 443.365 348.989 442.219 349.274 441.084C350.204 436.464 347.821 431.884 344.227 431.15C343.709 431.002 343.212 431.054 342.834 431.294C341.97 431.685 341.376 432.751 340.872 433.708C339.349 436.479 337.177 438.815 334.635 440.485" fill="white"/>
<path d="M344.918 466.063C344.531 466.204 344.26 465.528 344.747 465.377C351.762 462.24 351.574 453.613 349.624 447.381C349.102 446.228 348.869 444.945 348.846 443.742C348.89 442.229 349.453 440.864 349.289 439.272C348.939 435.89 346.574 430.505 342.348 431.444C341.85 431.496 341.679 430.81 342.176 430.758C345.617 430.001 347.815 432.79 349.018 435.681C349.79 437.311 350.184 439.18 350.071 441.001C349.974 442.016 349.669 442.953 349.662 443.858C349.686 445.062 350.008 446.235 350.419 447.299C352.401 453.83 352.31 462.686 344.918 466.063Z" fill="#1C1D1D"/>
<path d="M333.095 441.147C336.381 438.897 339.088 435.903 340.937 432.395C341.027 432.285 341.027 432.285 341.126 432.275C341.225 432.264 341.325 432.254 341.435 432.343C341.534 432.333 341.544 432.432 341.555 432.532C341.565 432.631 341.575 432.731 341.586 432.83C339.647 436.449 336.851 439.552 333.476 441.912C333.088 442.052 332.618 441.397 333.095 441.147Z" fill="#1C1D1D"/>
<path d="M293.4 347.9C292.3 347 279.1 345.4 265.8 349.8C252.5 354.2 247.7 365.1 247.9 375.2C248.1 386.2 249 387.5 256.4 400.6C261.744 410.122 273.98 425.781 277.238 445.375C277.402 446.361 278.244 447.1 279.244 447.1H359.396C360.85 447.1 361.821 445.607 361.216 444.284C357.892 437.009 349.079 417.852 346.5 413.5C342.7 404.5 329.2 390.2 342.7 388C370.9 383.5 366.2 352.4 366.2 352.4L293.4 347.9Z" fill="#25223A"/>
<path d="M275.5 400.5C279.667 408.333 288.3 426.6 289.5 437" stroke="#1C1D1D"/>
<path d="M308 394C312.167 401.833 320.8 420.1 322 430.5" stroke="#1C1D1D"/>
<path d="M327 401C331.167 408.833 339.8 427.1 341 437.5" stroke="#1C1D1D"/>
<path d="M312.5 363.5C303.167 361.333 282.199 366.8 284.999 380C287.799 393.2 294.833 399.667 300 404.5" stroke="#1C1D1D"/>
<path d="M284 352.5C274.667 350.333 250.699 362.3 253.499 375.5C256.299 388.7 260 392 268 404" stroke="#1C1D1D"/>
<path d="M360.5 360.586C360.5 360.586 362.081 369.557 360.691 370.377C359.301 371.198 357.458 367.671 357.458 367.671C357.458 367.671 357.125 374.994 355.915 372.446L354.232 368.745C354.232 368.745 351.991 376.576 351.475 374.5C351.05 372.588 350.881 370.748 350.796 368.904C350.796 368.904 347.516 374.263 347.172 372.263C346.998 370.34 346.913 368.496 346.908 366.564C346.908 366.564 347.712 362.159 344.265 363.915C340.902 365.666 347.399 357.218 347.399 357.218L360.052 358.586L360.5 360.586Z" fill="#FABEB7"/>
<path d="M360.327 369.957C361.097 367.341 360.606 364.773 360.202 362.113C360.136 361.638 360.817 361.38 360.88 361.949C361.196 364.7 361.848 367.464 360.987 370.265C360.886 370.733 360.142 370.422 360.327 369.957Z" fill="#1C1D1D"/>
<path d="M356.423 372.921C356.943 371.469 357.529 369.594 357.287 368.009C357.18 367.51 357.938 367.559 357.958 367.978C358.203 369.647 357.702 371.518 357.101 373.058C356.953 373.485 356.274 373.348 356.423 372.921Z" fill="#1C1D1D"/>
<path d="M351.706 374.483C352.559 372.932 353.239 371.305 353.661 369.521C353.657 369.438 353.737 369.35 353.82 369.346C353.904 369.342 353.988 369.338 354.072 369.334C354.156 369.33 354.243 369.41 354.247 369.494C354.335 369.574 354.339 369.658 354.343 369.742C353.921 371.525 353.245 373.236 352.313 374.875C352.077 375.222 351.474 374.914 351.706 374.483Z" fill="#1C1D1D"/>
<path d="M347.675 372.654C348.257 372.543 348.889 371.674 349.289 371.236C349.768 370.709 350.156 370.019 350.377 369.337C350.525 368.911 351.203 369.047 351.055 369.474C350.759 370.328 350.287 371.021 349.727 371.635C349.335 372.241 348.62 373.114 347.873 373.317C347.374 373.424 347.176 372.761 347.675 372.654Z" fill="#1C1D1D"/>
<path d="M343.998 364.005C344.581 363.894 345.064 363.452 345.739 363.505C346.162 363.569 346.277 364.236 345.77 364.175C345.179 364.118 344.612 364.565 344.029 364.676C343.53 364.783 343.495 364.028 343.998 364.005Z" fill="#1C1D1D"/>
<path d="M295.299 279.6L299.399 273.4L310.899 259.6L322.499 244.5C322.499 244.5 332.299 252 337.799 253.9C343.299 255.8 352.499 256.7 358.799 255.1C365.099 253.5 370.499 252.3 370.499 252.3L379.299 269.5C379.299 269.5 385.899 282.5 389.599 302.6C393.299 322.7 360.599 358.9 360.599 358.9L346.199 358.3L367.599 307L365.499 353.8L294.999 348.1L304.899 305.1C304.899 305.1 293.299 311 284.499 311.4C275.699 311.8 275.799 301.3 274.599 287.1C273.399 272.9 279.799 248.5 279.799 248.5L294.699 253.5L295.299 279.6Z" fill="#F47B43"/>
<path d="M280.181 248.055C280.181 248.055 279.245 238.994 280.69 238.275C282.135 237.556 283.721 241.205 283.721 241.205C283.721 241.205 284.576 233.925 285.601 236.553L287.016 240.365C287.016 240.365 289.811 232.714 290.177 234.822C290.464 236.759 290.501 238.607 290.455 240.452C290.455 240.452 294.109 235.341 294.31 237.36C294.345 239.291 294.298 241.137 294.166 243.064C294.166 243.064 293.049 247.4 296.612 245.895C300.091 244.388 293.008 252.351 293.008 252.351L280.485 250.082L280.181 248.055Z" fill="#FABEB7"/>
<path d="M281.023 238.721C280.069 241.275 280.375 243.872 280.588 246.554C280.62 247.032 279.922 247.24 279.9 246.668C279.781 243.902 279.328 241.099 280.387 238.366C280.522 237.906 281.242 238.27 281.023 238.721Z" fill="#1C1D1D"/>
<path d="M285.13 236.043C284.507 237.454 283.789 239.282 283.917 240.88C283.988 241.386 283.235 241.283 283.246 240.863C283.12 239.182 283.754 237.351 284.463 235.858C284.641 235.443 285.308 235.628 285.13 236.043Z" fill="#1C1D1D"/>
<path d="M289.945 234.822C288.984 236.308 288.189 237.883 287.641 239.631C287.639 239.715 287.553 239.797 287.469 239.795C287.386 239.793 287.302 239.791 287.218 239.789C287.134 239.787 287.052 239.701 287.054 239.617C286.972 239.531 286.975 239.447 286.977 239.363C287.524 237.614 288.322 235.956 289.369 234.387C289.629 234.058 290.207 234.409 289.945 234.822Z" fill="#1C1D1D"/>
<path d="M293.836 236.934C293.247 237.003 292.555 237.825 292.125 238.234C291.609 238.725 291.172 239.385 290.904 240.05C290.726 240.465 290.059 240.28 290.237 239.865C290.594 239.035 291.114 238.376 291.716 237.804C292.15 237.228 292.926 236.408 293.685 236.259C294.191 236.188 294.342 236.863 293.836 236.934Z" fill="#1C1D1D"/>
<path d="M296.885 245.824C296.295 245.893 295.782 246.3 295.113 246.199C294.695 246.105 294.629 245.431 295.13 245.528C295.715 245.627 296.312 245.222 296.902 245.153C297.407 245.082 297.388 245.837 296.885 245.824Z" fill="#1C1D1D"/>
<path d="M357.2 186.2C357.2 186.2 364.3 191 371.4 201.9C375.6 208.4 379.4 215.2 382.6 222.3L377 226L383.2 235.3L374.5 245.7C375.1 251.1 376.7 256.4 379.3 261.2C383.5 268.5 392.1 290 392.1 290C392.1 290 395.8 301.6 381.2 312.3C366.7 322.9 349.8 338.8 336.4 337.7C323 336.6 307.8 327.8 304.4 324.4C301 320.9 289.3 296.2 289.3 289.4C289.4 282.5 293.9 274.3 302.6 263C311.3 251.7 320.5 240.1 320.5 240.1C320.5 240.1 316.7 221 317 216.8C317.3 212.6 318.1 202.7 327.4 193.7C336.7 184.7 344.5 182.2 350.2 183.9C356.1 185.6 357.2 186.2 357.2 186.2Z" fill="#25223A"/>
<path d="M353.299 194.8C353.299 194.8 356.799 196.8 357.899 203.1C357.999 203.8 358.099 204.5 358.199 205.3C358.899 212.4 358.899 224.9 358.399 227C357.799 229.3 353.499 242.3 346.399 242.4C339.299 242.5 332.799 237.6 330.799 235.4C328.799 233.2 324.499 225.8 324.199 219.2C323.899 212.6 325.499 202.5 329.799 197.9C333.999 193.3 340.299 189 346.299 191.1C352.199 193.3 353.299 194.8 353.299 194.8Z" fill="#FABEB7"/>
<path d="M347.799 198.4C342.399 196.3 338.799 195 334.299 196.8C329.799 198.6 329.699 197.9 329.699 197.9L335.799 192.7C335.799 192.7 340.699 190.4 342.699 190.5C344.699 190.7 351.199 192.2 352.499 194C353.899 195.8 355.399 195.9 356.399 198C357.099 199.6 357.599 201.3 357.899 203L347.799 198.4Z" fill="#F7F7F8"/>
<path d="M342.6 210.4L338.5 224.9L345.4 222.9C345.4 222.9 346.5 221.5 345 222C343.5 222.5 339.7 223.7 339.7 223.7L342.6 210.4Z" fill="#1C1D1D"/>
<path d="M335.299 212.8C335.499 212 335.399 211.2 335.099 211.2C334.799 211.1 334.299 211.7 334.099 212.5C333.899 213.3 333.999 214.1 334.299 214.1C334.699 214.2 335.099 213.6 335.299 212.8Z" fill="#1C1D1D"/>
<path d="M350.299 214.4C350.499 213.6 350.399 212.8 350.099 212.8C349.799 212.7 349.299 213.3 349.099 214.1C348.899 214.9 348.999 215.7 349.299 215.7C349.699 215.9 350.099 215.3 350.299 214.4Z" fill="#1C1D1D"/>
<path d="M356.799 207.3C355.799 204.2 350.499 201.8 347.799 204.2C347.099 204.9 347.999 206.1 348.699 205.5C350.599 203.8 354.599 205.7 355.299 207.9C355.599 208.9 357.099 208.3 356.799 207.3Z" fill="#1C1D1D"/>
<path d="M339.7 202.8C337.9 200 332.2 199 330.2 202C329.6 202.8 330.9 203.8 331.4 203C332.8 200.8 337.1 201.8 338.4 203.7C339 204.5 340.2 203.6 339.7 202.8Z" fill="#1C1D1D"/>
<path d="M355.3 232.3C363.6 231.5 362.3 218.6 354 219.4C345.7 220.2 347 233.1 355.3 232.3Z" fill="#F2685E"/>
<path d="M328.1 231.6C336.4 230.8 335.1 217.9 326.8 218.7C318.5 219.5 319.8 232.4 328.1 231.6Z" fill="#F2685E"/>
<path d="M356 224.8C355.7 225.2 355.5 225.6 355.5 226C355.5 226.1 355.5 226.1 355.6 226.2C355.6 226.3 355.7 226.3 355.8 226.3C355.9 226.3 355.9 226.3 356 226.3C356.1 226.3 356.1 226.2 356.1 226.1C356.2 225.8 356.3 225.4 356.5 225.1C356.6 224.9 356.2 224.5 356 224.8Z" fill="#1C1D1D"/>
<path d="M354.1 224.4C353.8 224.8 353.7 225.2 353.6 225.6C353.6 225.9 354.1 226 354.1 225.7C354.1 225.3 354.2 225 354.4 224.7C354.8 224.5 354.3 224.1 354.1 224.4Z" fill="#1C1D1D"/>
<path d="M325.4 224.5C325.6 224.8 325.7 225.2 325.7 225.6C325.7 226 326.3 225.9 326.2 225.5C326.2 225.1 326.1 224.7 325.9 224.3C325.8 224 325.3 224.2 325.4 224.5Z" fill="#1C1D1D"/>
<path d="M327.299 224.4C327.499 224.7 327.499 225.1 327.499 225.4C327.499 225.7 327.999 225.8 327.999 225.5C327.999 225.1 327.999 224.6 327.799 224.2C327.599 223.9 327.099 224.1 327.299 224.4Z" fill="#1C1D1D"/>
<path d="M361.3 245.3C357.2 254.7 350.3 262.7 341.6 268C341.1 268.3 341.6 268.9 342.1 268.7C351 263.2 357.9 255.2 362.1 245.6C362.1 245.5 362.1 245.4 362.1 245.3C362.1 245.2 362 245.1 361.9 245.1C361.8 245.1 361.7 245.1 361.6 245.1C361.4 245.2 361.4 245.2 361.3 245.3Z" fill="#1C1D1D"/>
<path d="M371.899 259.7C368.799 264.7 364.899 269.1 360.399 272.8C355.899 276.5 349.699 281 343.599 281C343.099 281 343.199 281.8 343.699 281.8C349.499 281.7 355.399 277.6 359.899 274.2C364.899 270.3 369.199 265.5 372.499 260.2C372.799 259.8 372.199 259.3 371.899 259.7Z" fill="#1C1D1D"/>
<path d="M322.8 232C322.9 232 322.9 231.9 323 231.8C323 231.7 323.1 231.6 323.1 231.6C323.1 231.5 323.1 231.4 323 231.4C322.9 231.3 322.9 231.3 322.8 231.3C322.7 231.3 322.7 231.4 322.6 231.5C322.6 231.6 322.5 231.7 322.5 231.7C322.5 231.8 322.5 231.9 322.6 231.9C322.6 232 322.7 232 322.8 232Z" fill="#1C1D1D"/>
<path d="M355 235C352.1 238.7 349.1 242.2 344 242.2C339.3 242.2 335.4 239.4 332 236.3C331.6 235.9 331.1 236.6 331.5 236.9C335.2 240.2 339.5 243.2 344.7 243C349.7 242.7 352.8 239.1 355.7 235.4C355.9 235 355.3 234.5 355 235Z" fill="#1C1D1D"/>
<path d="M370.2 209.3C370.7 217.9 369.4 226.5 366.4 234.6C366.2 235.1 367 235.4 367.2 234.9C370.2 226.7 371.5 218 371 209.2C370.9 208.7 370.2 208.8 370.2 209.3Z" fill="#1C1D1D"/>
<path d="M357.2 200.8C358.7 207 359.3 213.3 359 219.6C359 220.1 359.8 220.3 359.8 219.7C360.2 213.2 359.6 206.7 358 200.4C357.8 200 357 200.3 357.2 200.8Z" fill="#1C1D1D"/>
<path d="M328.099 198.9C325.199 204.9 323.599 211.4 323.399 218C323.399 218.5 324.199 218.4 324.199 217.9C324.399 211.4 325.999 205 328.899 199.2C329.099 198.8 328.399 198.5 328.099 198.9Z" fill="#1C1D1D"/>
<path d="M323.599 244.1C326.199 247.4 327.799 252.7 332.799 252.8C333.299 252.8 333.199 252 332.699 252C328.199 251.9 326.599 246.6 324.199 243.6C323.899 243.2 323.299 243.8 323.599 244.1Z" fill="#1C1D1D"/>
<path d="M337.199 269C333.599 271.1 328.299 268.8 324.699 267.5C321.399 266.2 318.299 264.6 315.299 262.8C314.899 262.5 314.299 263.2 314.799 263.4C318.899 266 323.399 268.1 328.099 269.5C331.299 270.5 334.599 271.4 337.599 269.6C338.099 269.4 337.599 268.8 337.199 269Z" fill="#1C1D1D"/>
<path d="M337.7 280.7C332.3 281 327 280.1 322 278C319.1 276.7 316.1 273.2 312.7 273.7C312.2 273.8 312.3 274.6 312.8 274.5C314.8 274.2 318.1 277 320 277.9C321.7 278.8 323.5 279.5 325.3 280.1C329.3 281.3 333.6 281.8 337.8 281.5C338.3 281.5 338.2 280.7 337.7 280.7Z" fill="#1C1D1D"/>
<path d="M375.199 280.7C373.399 286.5 370.399 291.9 366.499 296.5C362.499 301.1 357.699 304.9 352.199 307.6C346.699 310.3 340.799 311.8 334.699 312.1C328.599 312.4 322.499 311.5 316.799 309.4C316.299 309.2 315.999 310 316.499 310.2C322.299 312.4 328.499 313.3 334.699 313C340.899 312.7 346.899 311.1 352.499 308.4C358.099 305.7 362.999 301.9 367.099 297.2C371.099 292.5 374.199 287 375.999 281.1C376.099 280.5 375.399 280.2 375.199 280.7Z" fill="#1C1D1D"/>
<path d="M319.299 241.6C309.399 253.9 299.999 266.6 291.099 279.7C290.799 280.1 291.399 280.7 291.699 280.2C300.599 267.1 309.999 254.4 319.899 242.1C320.199 241.7 319.599 241.2 319.299 241.6Z" fill="#1C1D1D"/>
<path d="M329.599 191.4C323.799 196.1 319.699 202.5 317.699 209.6C315.799 216.8 316.099 224.4 318.699 231.3C318.799 231.4 318.799 231.4 318.899 231.5C318.999 231.5 319.099 231.5 319.199 231.5C319.299 231.5 319.399 231.4 319.399 231.3C319.399 231.2 319.499 231.1 319.399 231C316.799 224.2 316.499 216.8 318.399 209.8C320.299 202.8 324.299 196.6 329.999 192C330.499 191.7 329.999 191.1 329.599 191.4Z" fill="#1C1D1D"/>
<path d="M373.1 239.9C373.7 244.9 374.6 250 375.6 254.9C375.7 255.4 376.5 255.3 376.4 254.8C375.4 249.8 374.5 244.8 373.9 239.8C373.9 239.7 373.8 239.7 373.7 239.6C373.6 239.6 373.5 239.5 373.5 239.5C373.4 239.5 373.3 239.5 373.3 239.6C373.2 239.7 373.2 239.8 373.1 239.9Z" fill="#1C1D1D"/>
<path d="M374.599 209.5C375.499 214.6 375.799 219.7 375.499 224.9C375.499 225.4 376.299 225.6 376.299 225C376.599 219.8 376.299 214.6 375.499 209.4C375.299 208.9 374.499 209 374.599 209.5Z" fill="#1C1D1D"/>
<path d="M382.799 234.4C381.099 232 379.399 229.7 377.399 227.5C377.099 227.1 376.399 227.6 376.699 228C378.599 230.2 380.399 232.5 382.099 234.9C382.399 235.4 383.099 234.9 382.799 234.4Z" fill="#1C1D1D"/>
<path d="M382.4 220.3L377.3 211.2C377 210.7 376.4 211.2 376.6 211.7L381.7 220.8C382 221.2 382.7 220.7 382.4 220.3Z" fill="#1C1D1D"/>
<path d="M383.699 272.4C387.199 278.9 389.499 285.1 391.699 292.1C391.899 292.6 392.599 292.3 392.499 291.8C390.199 284.8 387.899 278.4 384.399 271.9C384.099 271.4 383.499 271.9 383.699 272.4Z" fill="#1C1D1D"/>
<path d="M390.8 301.9C383.4 310.5 374.8 318 365.3 324.3C364.9 324.6 365.3 325.3 365.8 325C375.3 318.7 384 311.1 391.4 302.5C391.8 302 391.1 301.4 390.8 301.9Z" fill="#1C1D1D"/>
<path d="M342.066 236.338C343.098 236.148 343.724 234.849 343.463 233.437C343.203 232.024 342.155 231.034 341.123 231.224C340.091 231.414 339.466 232.713 339.726 234.126C339.987 235.538 341.034 236.528 342.066 236.338Z" fill="#972724"/>
<path d="M349.699 349.8L358.399 329.3" stroke="#1C1D1D" stroke-width="1.0328" stroke-miterlimit="10" stroke-linecap="round"/>
<path d="M288.799 310.4L283.099 311.4C283.099 311.4 278.199 311.8 276.399 303.3" stroke="#1C1D1D" stroke-width="0.8308" stroke-miterlimit="10" stroke-linecap="round"/>
<path d="M94.6004 239.6L93.9004 247.6L97.1004 264.6L107.1 265.3L114.4 256.6L118.1 248.2L111.3 246L110.7 237.5" fill="#FABEB7"/>
<path d="M101.3 192.5C107.2 190.7 112.9 195.3 116.8 199.9C120.6 204.5 121.7 214.4 121 220.8C120.4 227.2 115.9 234.1 113.8 236.1C111.7 238.1 105.2 242.5 98.5005 242.1C91.7005 241.7 85.0005 227.9 84.6005 225.7C84.2005 223.7 84.1005 213.2 85.1005 206.4C85.2005 205.6 85.5005 201.6 85.7005 200.9C89.4005 196 94.3005 195.7 94.3005 195.7C94.3005 195.7 95.4005 194.2 101.3 192.5Z" fill="#FABEB7"/>
<path d="M86.2007 213.6C86.1007 212 85.7007 205.7 88.4007 202.6C90.3007 200.4 93.8007 199.7 96.2007 200C99.2007 200.4 100.001 202.2 103.101 202.1C105.101 202 105.101 201.3 107.901 200.8C110.901 200.3 111.801 201.1 115.001 200.8C117.701 200.6 119.001 200.5 120.301 199.6C123.401 197.5 124.301 192.5 123.201 188.7C123.001 188.2 121.901 184.3 118.101 182.3C115.501 180.9 112.001 180.6 111.301 181.8C110.901 182.5 111.801 183.2 111.601 184.3C111.101 186 108.201 186.6 106.901 186.9C103.601 187.6 102.501 186.8 98.2007 186.8C93.6007 186.7 90.2007 187.4 89.1007 187.7C86.1007 188.4 84.6007 188.7 83.0007 189.8C78.5007 192.8 77.5007 198.4 77.3007 199.4C77.0007 200.8 77.1007 203.8 77.3007 209.8C77.4007 211.5 77.3007 212 77.4007 212.8C78.1007 216.7 80.8007 220.8 83.0007 220.5C84.6007 220.3 85.6007 217.6 85.7007 217.1C86.4007 215.5 86.2007 214.2 86.2007 213.6Z" fill="#1C1D1D"/>
<path d="M86.0005 218C85.4005 221.5 87.4005 226 84.8005 225.8C82.2005 225.6 77.9004 220.1 78.2004 216.5C78.5004 212.9 81.0005 206.1 84.5005 213.1C85.7004 215.6 86.5005 215.3 86.0005 218Z" fill="#FABEB7"/>
<path d="M150.1 362.7C120.9 353.9 92.1004 324.2 76.3004 286.1C60.5004 248 32.3004 258.6 17.8004 279.1C1.90037 301.8 -20.6996 373.8 38.2004 423.4C97.1004 473 186.2 442 202.5 422.5C217.9 404 219.4 389.5 212.9 377C206.7 365.1 172.4 373.4 150.1 362.7Z" fill="#D2EDFB"/>
<path d="M55.1 272.4C44.7 278.1 39.4 306.4 52 338.5C64.5 370.6 78.7 384.7 122.7 395.3C166.7 405.9 200.9 388.4 203.1 380.5C205.3 372.6 184 372 161.1 369.5C138.1 367 114.6 367.4 96.2 336.2C77.7 305 66.6 264.4 55.1 272.4Z" fill="#9BC9DD"/>
<path d="M109.773 441.893C110.643 441.316 110.99 441.994 111.426 442.877C112.606 444.899 117.284 446.914 118.541 449C118.798 449.473 118.845 449.422 118 449.5C117.155 449.578 116.692 449.769 116.5 450C116.257 450.448 117.478 453.246 118.541 454L122 457.863C123.448 458.937 124.4 461.212 124.684 462.749C124.864 463.939 124.046 465.08 122.817 465.618C121.447 466.17 119.975 466.376 118.541 466.224C112.894 465.82 107.244 462.291 105.205 457.863C104.935 457.249 104.666 456.634 104.191 456.11C103.41 455.33 102.244 455.011 101.143 454.615C96.7878 452.814 94.3124 448.283 95.7048 444.889C95.8708 444.377 96.1905 443.992 96.6001 443.813C97.4062 443.313 98.6227 443.414 99.6983 443.528C102.848 443.807 105.998 443.305 108.8 442.124" fill="white"/>
<path d="M124.315 464.913C124.647 464.669 124.237 464.068 123.84 464.388C117.327 468.466 110.268 463.505 106.178 458.413C105.512 457.338 104.576 456.429 103.59 455.739C102.308 454.934 100.861 454.64 99.6312 453.617C97.0173 451.443 93.8629 446.478 96.997 443.492C97.3167 443.108 96.8425 442.583 96.5228 442.968C93.9771 445.403 95.0686 448.782 96.7996 451.392C97.7229 452.94 99.0557 454.309 100.631 455.23C101.528 455.715 102.476 455.983 103.232 456.482C104.218 457.172 105.013 458.094 105.667 459.028C109.987 464.311 117.392 469.17 124.315 464.913Z" fill="#1C1D1D"/>
<path d="M110.208 441.214C106.51 442.69 102.515 443.269 98.5714 442.851C98.4305 442.864 98.4305 442.864 98.3666 442.94C98.3027 443.017 98.2387 443.094 98.2516 443.235C98.1877 443.312 98.2646 443.376 98.3414 443.44C98.4183 443.504 98.4952 443.568 98.5721 443.632C102.657 444.038 106.792 443.445 110.632 441.956C110.964 441.712 110.682 440.957 110.208 441.214Z" fill="#1C1D1D"/>
<path d="M160.773 439.893C161.643 439.316 161.99 439.994 162.426 440.877C163.606 442.899 168.284 444.914 169.541 447C169.798 447.473 169.845 447.422 169 447.5C168.155 447.578 167.692 447.769 167.5 448C167.257 448.448 168.478 451.246 169.541 452L173 455.863C174.448 456.937 175.4 459.212 175.684 460.749C175.864 461.939 175.046 463.08 173.817 463.618C172.447 464.17 170.975 464.376 169.541 464.224C163.894 463.82 158.244 460.291 156.205 455.863C155.935 455.249 155.666 454.634 155.191 454.11C154.41 453.33 153.244 453.011 152.143 452.615C147.788 450.814 145.312 446.283 146.705 442.889C146.871 442.377 147.191 441.992 147.6 441.813C148.406 441.313 149.623 441.414 150.698 441.528C153.848 441.807 156.998 441.305 159.8 440.124" fill="white"/>
<path d="M175.315 462.913C175.647 462.669 175.237 462.068 174.84 462.388C168.327 466.466 161.268 461.505 157.178 456.413C156.512 455.338 155.576 454.429 154.59 453.739C153.308 452.934 151.861 452.64 150.631 451.617C148.017 449.443 144.863 444.478 147.997 441.492C148.317 441.108 147.843 440.583 147.523 440.968C144.977 443.403 146.069 446.782 147.8 449.392C148.723 450.94 150.056 452.309 151.631 453.23C152.528 453.715 153.476 453.983 154.232 454.482C155.218 455.172 156.013 456.094 156.667 457.028C160.987 462.311 168.392 467.17 175.315 462.913Z" fill="#1C1D1D"/>
<path d="M161.208 439.214C157.51 440.69 153.515 441.269 149.571 440.851C149.431 440.864 149.431 440.864 149.367 440.94C149.303 441.017 149.239 441.094 149.252 441.235C149.188 441.312 149.265 441.376 149.341 441.44C149.418 441.504 149.495 441.568 149.572 441.632C153.657 442.038 157.792 441.445 161.632 439.956C161.964 439.712 161.682 438.957 161.208 439.214Z" fill="#1C1D1D"/>
<path d="M112.6 350.3C113.7 349.4 122.6 355.6 135.8 360C149.1 364.4 149.3 370 149.1 380.1C148.9 391.1 146.8 399.4 139.4 412.5C134.048 422.036 130.211 430.436 120.426 448.756C119.918 449.708 118.933 450.316 117.853 450.342L94.8938 450.89C92.7289 450.942 91.2223 448.764 92.0533 446.764C95.7534 437.86 104.223 417.68 106.7 413.5C111.5 405.3 115.6 390.1 102.2 387.9C74 383.4 78.7 352.3 78.7 352.3L112.6 350.3Z" fill="#25223A"/>
<path d="M147.9 348.4C149 347.5 157 354.7 170.3 359C183.6 363.4 190.4 364 190.1 374.1C189.9 385.1 188.2 388.4 184.3 402.5C180.681 415.607 178.784 426.897 171.496 446.945C171.203 447.751 170.422 448.284 169.564 448.26L145.44 447.58C144.057 447.541 143.123 446.158 143.621 444.867C146.827 436.557 156.567 411.035 157.9 404.2C159.7 394.9 151.1 388.2 137.6 386C109.4 381.5 114.1 350.4 114.1 350.4L147.9 348.4Z" fill="#25223A"/>
<path d="M135.5 363C146.5 368.5 152.62 378.112 148.5 390.961C143.999 405 139 412 135.5 419" stroke="#1C1D1D"/>
<path d="M190.1 257L203.2 264.7C203.2 264.7 188.9 284.8 175.6 296.7C167.9 306.7 166.2 308.3 160.2 311.4C151.4 311 139.8 305.1 139.8 305.1L149.7 348.1L79.2001 353.8L77.1001 307L98.5001 358.3L84.2001 359C84.2001 359 51.5001 322.8 55.2001 302.7C58.9001 282.6 65.5001 269.6 65.5001 269.6L80.6001 245.5C80.6001 245.5 84.2001 245.4 89.3001 244.8C101.6 243.3 92.9001 254.8 103.6 254.8C113.3 254.2 108.3 244.5 112.6 244.5C118 244.5 122.3 244.6 122.3 244.6L133.9 259.7L145.4 273.5L155.8 285.6L190.1 257Z" fill="#F47B43"/>
<path d="M84.7285 361.016C84.7285 361.016 83.1473 369.987 84.5372 370.808C85.9271 371.628 87.7703 368.102 87.7703 368.102C87.7703 368.102 88.1032 375.425 89.3131 372.877L90.9964 369.175C90.9964 369.175 93.2376 377.006 93.7537 374.93C94.1782 373.018 94.3474 371.178 94.4328 369.334C94.4328 369.334 97.7124 374.694 98.057 372.694C98.23 370.77 98.3154 368.926 98.3209 366.994C98.3209 366.994 97.517 362.589 100.963 364.345C104.326 366.096 97.8298 357.648 97.8298 357.648L85.1768 359.016L84.7285 361.016Z" fill="#FABEB7"/>
<path d="M84.9015 370.387C84.1315 367.771 84.6228 365.203 85.0267 362.543C85.0929 362.068 84.4115 361.811 84.3489 362.38C84.0324 365.131 83.3805 367.894 84.2413 370.695C84.3429 371.163 85.0869 370.852 84.9015 370.387Z" fill="#1C1D1D"/>
<path d="M88.8058 373.351C88.2851 371.899 87.7 370.024 87.9413 368.44C88.0484 367.941 87.2902 367.99 87.2708 368.409C87.0256 370.077 87.5269 371.948 88.1275 373.488C88.2757 373.915 88.954 373.778 88.8058 373.351Z" fill="#1C1D1D"/>
<path d="M93.522 374.914C92.6699 373.362 91.9894 371.735 91.568 369.952C91.5719 369.868 91.4919 369.78 91.4081 369.776C91.3243 369.772 91.2405 369.768 91.1567 369.765C91.0729 369.761 90.9852 369.841 90.9813 369.924C90.8936 370.004 90.8897 370.088 90.8858 370.172C91.3072 371.955 91.9839 373.667 92.9159 375.306C93.1518 375.653 93.7541 375.344 93.522 374.914Z" fill="#1C1D1D"/>
<path d="M97.5539 373.084C96.9711 372.974 96.3394 372.104 95.9397 371.666C95.4601 371.14 95.0721 370.45 94.8517 369.768C94.7035 369.341 94.0252 369.477 94.1734 369.904C94.4699 370.758 94.9417 371.452 95.5013 372.065C95.8932 372.672 96.6087 373.545 97.3552 373.747C97.8542 373.854 98.0529 373.192 97.5539 373.084Z" fill="#1C1D1D"/>
<path d="M101.23 364.435C100.648 364.324 100.164 363.882 99.4897 363.935C99.0667 363.999 98.9518 364.666 99.4586 364.605C100.049 364.549 100.616 364.995 101.199 365.106C101.698 365.213 101.733 364.459 101.23 364.435Z" fill="#1C1D1D"/>
<path d="M203.873 262.87C203.873 262.87 210.541 256.663 209.926 255.171C209.311 253.679 205.715 255.383 205.715 255.383C205.715 255.383 209.862 249.338 207.361 250.642L203.787 252.582C203.787 252.582 206.718 244.982 205.055 246.327C203.564 247.598 202.32 248.964 201.141 250.384C201.141 250.384 201.753 244.131 200.273 245.519C198.975 246.95 197.796 248.37 196.628 249.908C196.628 249.908 194.615 253.908 192.922 250.43C191.294 247.006 191.388 257.663 191.388 257.663L202.31 264.196L203.873 262.87Z" fill="#FABEB7"/>
<path d="M209.381 255.287C208.419 257.839 206.48 259.592 204.555 261.471C204.216 261.81 204.604 262.427 204.997 262.01C206.907 260.006 209.093 258.193 210.094 255.439C210.295 255.004 209.514 254.804 209.381 255.287Z" fill="#1C1D1D"/>
<path d="M208.052 250.569C207.593 252.041 206.93 253.89 205.782 255.01C205.396 255.343 206.03 255.761 206.298 255.438C207.5 254.255 208.227 252.459 208.676 250.869C208.815 250.439 208.191 250.139 208.052 250.569Z" fill="#1C1D1D"/>
<path d="M205.23 246.48C204.975 248.232 204.537 249.941 203.799 251.618C203.745 251.682 203.756 251.801 203.821 251.854C203.885 251.908 203.95 251.961 204.014 252.015C204.079 252.069 204.197 252.058 204.251 251.993C204.369 251.982 204.423 251.918 204.476 251.853C205.215 250.176 205.706 248.402 205.95 246.533C205.97 246.114 205.304 245.997 205.23 246.48Z" fill="#1C1D1D"/>
<path d="M200.91 245.51C201.308 245.95 201.288 247.024 201.343 247.615C201.409 248.324 201.303 249.108 201.067 249.786C200.928 250.216 201.552 250.515 201.691 250.085C201.969 249.225 202.01 248.387 201.934 247.56C201.986 246.841 201.941 245.713 201.468 245.101C201.134 244.715 200.576 245.124 200.91 245.51Z" fill="#1C1D1D"/>
<path d="M192.765 250.197C193.163 250.637 193.282 251.282 193.852 251.646C194.229 251.849 194.722 251.387 194.281 251.13C193.776 250.819 193.592 250.121 193.194 249.681C192.86 249.295 192.377 249.876 192.765 250.197Z" fill="#1C1D1D"/>
<path d="M105.2 223.7C105.2 223.7 101.3 222.5 99.9002 222C98.4002 221.5 99.5002 222.9 99.5002 222.9L106.4 224.9L102.3 210.4L105.2 223.7Z" fill="#1C1D1D"/>
<path d="M110.501 214.1C110.801 214 110.901 213.3 110.701 212.5C110.501 211.7 110.001 211.1 109.701 211.2C109.401 211.3 109.301 212 109.501 212.8C109.801 213.6 110.201 214.2 110.501 214.1Z" fill="#1C1D1D"/>
<path d="M95.5005 215.8C95.8005 215.7 95.9005 215 95.7005 214.2C95.5005 213.4 95.0005 212.8 94.7005 212.9C94.4005 213 94.3005 213.7 94.5005 214.5C94.8005 215.3 95.2005 215.9 95.5005 215.8Z" fill="#1C1D1D"/>
<path d="M96.9998 203.6C97.0998 202.6 95.5998 202.3 95.4998 203.4C95.1998 205.7 91.6998 208.4 89.4998 207.1C88.6998 206.6 87.9998 208 88.8998 208.5C91.8998 210.3 96.5998 206.8 96.9998 203.6Z" fill="#1C1D1D"/>
<path d="M108.701 232.7C109.401 232 106.701 230.3 105.901 231C103.701 231.8 103.201 231.9 102.001 230.1C101.701 229.2 99.0006 230.1 99.3006 231C100.501 234.4 106.301 234.9 108.701 232.7Z" fill="#972724"/>
<path d="M114.7 203.4C115.5 202.8 114.6 201.5 113.8 202.1C111.9 203.5 107.6 202.9 107 200.3C106.8 199.3 105.3 199.8 105.5 200.8C106.4 204.4 112.1 205.4 114.7 203.4Z" fill="#1C1D1D"/>
<path d="M88.8998 224.8C88.6998 224.5 88.2998 224.9 88.4998 225.1C88.6998 225.4 88.8998 225.7 88.8998 226.1C88.8998 226.2 88.9998 226.2 88.9998 226.3C89.0998 226.3 89.0998 226.3 89.1998 226.3C89.2998 226.3 89.2998 226.3 89.3998 226.2C89.4998 226.1 89.4998 226.1 89.4998 226C89.3998 225.6 89.1998 225.2 88.8998 224.8Z" fill="#1C1D1D"/>
<path d="M90.6996 224.4C90.4996 224.1 90.0996 224.5 90.2996 224.7C90.4996 225 90.5996 225.3 90.5996 225.7C90.5996 226 91.1996 226 91.0996 225.6C91.1996 225.2 90.9996 224.8 90.6996 224.4Z" fill="#1C1D1D"/>
<path d="M119.4 224.5C119.6 224.2 119 224 118.9 224.3C118.7 224.7 118.6 225.1 118.6 225.5C118.6 225.9 119.1 225.9 119.1 225.6C119.2 225.2 119.3 224.8 119.4 224.5Z" fill="#1C1D1D"/>
<path d="M117.601 224.4C117.801 224.1 117.301 223.9 117.101 224.2C116.901 224.6 116.801 225.1 116.901 225.5C116.901 225.8 117.501 225.8 117.401 225.4C117.401 225.1 117.401 224.7 117.601 224.4Z" fill="#1C1D1D"/>
<path d="M98.3004 239.7C97.9004 239.6 97.6004 240.1 98.0004 240.2C101.5 241.1 105.2 241.8 109.2 239.9C113.4 237.9 115.8 234.5 117.6 231.2C117.8 230.8 117.2 230.7 117 231.1C115.3 234.2 113.2 237.3 109.4 239.2C105.4 241.3 101.8 240.6 98.3004 239.7Z" fill="#1C1D1D"/>
<path d="M152.7 310.1L160.2 311.4C160.2 311.4 164 309.9 170 303.8" stroke="#1C1D1D" stroke-width="0.8308" stroke-miterlimit="10" stroke-linecap="round"/>
<path d="M131.101 270.6L143.501 320.9" stroke="#1C1D1D" stroke-width="0.8308" stroke-miterlimit="10" stroke-linecap="round"/>
<path d="M83.3 285.5C81.3 289.1 76.9 298.2 79.1 309.2C79.8 312.6 80.9 314.9 81.9 317.1C84.9 323.7 89 333.4 93.6 346.5" stroke="#1C1D1D" stroke-width="0.8965" stroke-miterlimit="10" stroke-linecap="round"/>
</g>
<defs>
<clipPath id="clip0_5562_241">
<rect width="444.9" height="470.5" fill="white"/>
</clipPath>
</defs>
</svg>
