<svg width="473" height="505" viewBox="0 0 473 505" fill="none" xmlns="http://www.w3.org/2000/svg">
<g filter="url(#filter0_d_5562_241)">
<path d="M30.5996 235.4C30.5996 121.7 122.8 29.6 236.4 29.6C350.1 29.6 442.2 121.8 442.2 235.4V462.7C442.2 476.4 431.1 487.5 417.4 487.5H55.3996C41.6996 487.5 30.5996 476.4 30.5996 462.7V235.4Z" fill="#8EBCDD"/>
<path d="M38 235.4C38 125.8 126.9 37 236.4 37C346 37 434.8 125.8 434.8 235.4V462.7C434.8 472.3 427 480.1 417.4 480.1H55.4C45.8 480.1 38 472.3 38 462.7V235.4Z" stroke="white" stroke-width="14.8803"/>
</g>
<path d="M304.2 198C345.014 198 378.1 170.286 378.1 136.1C378.1 101.914 345.014 74.2 304.2 74.2C263.386 74.2 230.3 101.914 230.3 136.1C230.3 170.286 263.386 198 304.2 198Z" fill="white"/>
<path d="M298.8 251.8C332.711 251.8 360.2 233.623 360.2 211.2C360.2 188.777 332.711 170.6 298.8 170.6C264.89 170.6 237.4 188.777 237.4 211.2C237.4 233.623 264.89 251.8 298.8 251.8Z" fill="white"/>
<path d="M223.8 209.7C252.629 209.7 276 191.523 276 169.1C276 146.677 252.629 128.5 223.8 128.5C194.97 128.5 171.6 146.677 171.6 169.1C171.6 191.523 194.97 209.7 223.8 209.7Z" fill="white"/>
<path d="M373.8 259.7C407.711 259.7 435.2 238.523 435.2 212.4C435.2 186.277 407.711 165.1 373.8 165.1C339.89 165.1 312.4 186.277 312.4 212.4C312.4 238.523 339.89 259.7 373.8 259.7Z" fill="white"/>
<path d="M359.8 211.3C393.711 211.3 421.2 190.66 421.2 165.2C421.2 139.74 393.711 119.1 359.8 119.1C325.89 119.1 298.4 139.74 298.4 165.2C298.4 190.66 325.89 211.3 359.8 211.3Z" fill="white"/>
<path d="M175.3 251C200.319 251 220.6 235.151 220.6 215.6C220.6 196.049 200.319 180.2 175.3 180.2C150.282 180.2 130 196.049 130 215.6C130 235.151 150.282 251 175.3 251Z" fill="white"/>
<path d="M242.5 276.6C269.562 276.6 291.5 260.751 291.5 241.2C291.5 221.649 269.562 205.8 242.5 205.8C215.438 205.8 193.5 221.649 193.5 241.2C193.5 260.751 215.438 276.6 242.5 276.6Z" fill="white"/>
<path fill-rule="evenodd" clip-rule="evenodd" d="M111.599 70.8C112.599 71.7 112.699 87.4 114.199 87.9C114.899 88.1 120.699 85.9 120.699 85.9C120.499 84.8 119.599 82.2 120.299 82.2C123.099 82 128.399 84.3 128.999 85.1C130.199 86.5 125.699 92.5 123.699 93.1C123.199 93.2 122.899 92 122.699 91.2C122.699 91.2 110.999 95.4 109.699 94.5C108.399 93.7 108.799 90 107.999 89.2C107.099 88.4 97.8994 90.6 97.8994 90.6C97.3994 92.6 98.3994 94.6 97.3994 95C94.7994 96 88.4994 90.2 88.2994 89.2C88.0994 88.2 94.5994 82.5 95.7994 82.2C96.9994 81.9 96.7994 84.1 97.1994 85.7C97.1994 85.7 106.699 84.6 107.299 82.9C107.799 81.3 105.199 72.8 105.299 72.3C105.399 70.8 110.699 69.9 111.599 70.8Z" fill="#F47B43"/>
<path fill-rule="evenodd" clip-rule="evenodd" d="M58.7996 118.4C62.3996 107.5 76.7996 102.4 86.0996 106.4C95.5996 110.5 99.7996 122.5 94.0996 134.3C92.7996 137.1 87.1996 145.2 86.7996 138.1C86.4996 132.5 85.5996 126.8 81.6996 122.7C73.3996 113.9 58.0996 120.6 58.7996 118.4Z" fill="#F47B43"/>
<path fill-rule="evenodd" clip-rule="evenodd" d="M68.9999 122.1C70.2999 124 71.7999 126.6 73.5999 128C74.4999 128.7 77.9999 127 79.1999 127C84.8999 126.9 77.8999 132.7 77.2999 134.7C76.6999 136.5 81.7999 140.5 80.6999 143.5C80.0999 145.1 71.6999 140.6 70.1999 141.6C69.6999 141.9 64.0999 149.4 61.8999 148.6C59.6999 147.8 64.0999 139.2 62.0999 137.9C60.3999 136.8 56.2999 136.5 56.0999 134.1C55.8999 132 65.0999 132.1 65.6999 128.9C65.7999 127.7 66.4999 119.9 68.9999 122.1Z" fill="#F47B43"/>
<path fill-rule="evenodd" clip-rule="evenodd" d="M105.2 107.4C102.3 100.8 96.9996 95.6 93.5996 101.3C90.6996 106.3 101 119.6 107.1 124.4C119.8 108.2 109.8 92.5 105.2 107.4Z" fill="#F47B43"/>
<path fill-rule="evenodd" clip-rule="evenodd" d="M83.8996 256C84.1996 256 78.2996 253.1 79.7996 255.7C80.2996 256.6 79.4996 257 78.6996 256.8C76.4996 256.1 75.4996 252 75.1996 250.1C74.8996 247.8 75.7996 245.3 74.9996 243.1C72.1996 235.4 71.2996 212.2 70.6996 210.3C69.9996 207.8 57.9996 184.4 58.4996 178.7C59.1996 171.3 64.6996 158.3 69.7996 150C72.8996 145.1 88.4996 171 88.1996 175C87.8996 179 74.8996 205.9 72.6996 209.7C70.7996 212.9 74.4996 240 76.8996 244.3C77.6996 245.7 79.5996 247.1 80.5996 248.6C82.0996 250.8 83.1996 253.4 83.8996 256C83.5996 255.1 83.4996 256 83.8996 256Z" fill="#F47B43"/>
<path fill-rule="evenodd" clip-rule="evenodd" d="M65.0004 156.4C64.5004 157.9 58.5004 167 57.1004 175.6C55.3004 185.9 64.7004 200.7 65.2004 201.5C65.5004 201.9 59.8004 203.2 58.9004 202.2C57.1004 200.1 49.8004 188.4 50.2004 174.5C50.4004 167.4 57.8004 156.1 58.9004 154.9C61.0004 155.1 63.0004 155.7 65.0004 156.4Z" fill="#F47B43"/>
<path fill-rule="evenodd" clip-rule="evenodd" d="M125.2 306.9C125.2 306.6 123.9 305.7 123.5 305.5C116.9 302.4 110.2 292 108.4 294.7C108.2 295 108.2 295.5 107.5 295.5C106.3 293.5 105.2 289.3 102.9 286.3C99.5996 282 96.2996 281.7 96.2996 283.7C96.2996 294.8 93.3996 291 93.5996 283.3C93.9996 267.4 88.3996 266.9 84.3996 272C81.9996 272.5 83.4996 265.3 83.2996 264.4C83.1996 264.1 83.0996 263.8 82.8996 263.6C82.6996 263.4 82.4996 263.2 82.1996 263.1C81.8996 263 81.5996 263 81.2996 263.1C80.9996 263.2 80.6996 263.3 80.4996 263.5C79.7996 263.9 79.0996 264.2 78.3996 264.5C75.6996 263.4 74.9996 259.9 74.0996 256.8C73.3996 254.7 72.6996 251.4 71.9996 253.4C71.0996 256.2 75.3996 264.1 76.8996 266.7C76.9996 266.9 77.1996 267.1 77.3996 267.3C77.5996 267.5 77.7996 267.6 78.0996 267.6C78.2996 267.6 78.5996 267.6 78.8996 267.6C79.1996 267.6 79.3996 267.4 79.5996 267.3C79.7996 267.2 79.8996 267.1 80.0996 267C79.9996 267.8 79.8996 268.7 79.8996 269.5C79.7996 271.1 80.2996 272.7 81.2996 273.9C81.4996 274.2 81.8996 274.4 82.1996 274.6C82.5996 274.7 82.8996 274.8 83.2996 274.8C83.6996 274.8 83.9996 274.6 84.3996 274.4C84.6996 274.2 84.9996 273.9 85.1996 273.6C85.9996 272.2 86.2996 271.2 88.8996 284.2C89.6996 288.3 91.8996 295.2 96.9996 296.6C100.5 297.6 98.9996 289.6 99.4996 289.2C99.9996 289.5 100.1 290 100.3 290.5C101.7 294.3 103.7 297.7 105.9 301C106.8 302.3 108 302.9 109.3 302.6C110.6 302.3 110.4 300.4 111.9 299.7C113.3 299 115.7 302.5 117.1 303.5C121.7 307.2 125.1 307.2 125.2 306.9Z" fill="#F47B43"/>
<path fill-rule="evenodd" clip-rule="evenodd" d="M199.599 50.1C197.299 47.6 196.999 45.9 198.299 42.8C198.999 41 199.799 38.3 202.199 38.7C204.799 39.1 206.999 37.9 209.199 37C211.099 36.2 213.999 34.6 216.099 35.1C217.099 35.4 217.999 35.9 218.799 36.6C220.199 37.9 217.999 38.4 217.299 38.9C215.499 40.1 214.299 42.7 216.199 44.1C218.299 45.7 221.099 44.6 223.299 43.6C227.699 41.4 233.599 45.4 234.999 49.7C235.299 50.5 235.099 55.6 232.799 53.4C230.199 50.8 215.699 50.1 211.799 53.3C208.899 55.7 201.299 52 199.599 50.1Z" fill="#F47B43"/>
<path fill-rule="evenodd" clip-rule="evenodd" d="M232.7 35.8C236.1 37 240.4 43.2 237.5 46.7C235.5 49 234 46.2 232.8 44.7C231.4 43 229.9 41.8 227.7 41.5C224.9 41.1 222.6 43.1 219.9 43.5C217.5 43.8 215.4 42.2 217.4 40.2C220.9 36.3 227.6 34.5 232.7 35.8C234.6 36.5 231.1 35.4 232.7 35.8Z" fill="#F47B43"/>
<path fill-rule="evenodd" clip-rule="evenodd" d="M219.399 59.4C216.199 59.4 216.699 53.3 219.299 52.8C222.899 52.1 222.999 59.4 219.399 59.4Z" fill="#F47B43"/>
<path fill-rule="evenodd" clip-rule="evenodd" d="M213.2 53.5C215.5 50.7 217.8 55.3 215.7 57.6C213.1 60.5 210.9 56.3 213.2 53.5Z" fill="#F47B43"/>
<path fill-rule="evenodd" clip-rule="evenodd" d="M224.2 53.5C226.5 50.7 228.8 55.3 226.7 57.6C224.1 60.6 221.8 56.3 224.2 53.5Z" fill="#F47B43"/>
<path fill-rule="evenodd" clip-rule="evenodd" d="M229.3 53.5C231.2 51.2 233.1 55 231.4 56.9C229.2 59.3 227.4 55.8 229.3 53.5Z" fill="#F47B43"/>
<path fill-rule="evenodd" clip-rule="evenodd" d="M87.9998 158.1C86.2998 156.5 84.4998 155.1 82.9998 153.4C81.9998 152.3 81.8998 151.8 82.5998 150.5C82.7998 150.2 82.8998 149.9 82.9998 149.6C83.5998 147.7 84.5998 145.8 85.6998 144.1C85.8998 143.8 86.0998 143.6 86.3998 143.5C86.6998 143.4 86.9998 143.4 87.2998 143.4C87.8998 143.6 88.1998 144.1 88.1998 144.9C88.1998 146.7 87.3998 148.2 86.7998 149.8C86.3998 151 86.2998 150.8 87.2998 151.6C87.7998 152 88.2998 152.7 88.7998 152.6C89.4998 152.5 89.3998 151.6 89.5998 151C90.0998 150 91.0998 149.1 91.3998 149.5C91.9998 150.1 91.8998 150.9 91.5998 151.7C91.4998 152.2 91.2998 152.8 90.9998 153.2C90.4998 153.9 90.6998 154.4 91.2998 154.9C92.1998 155.6 92.9998 156.4 93.8998 157.1C94.4998 157.6 94.7998 157.6 95.1998 156.9C95.5998 156.4 95.8998 155.8 96.0998 155.2C96.1998 154.9 96.3998 154.5 96.4998 154.2C97.0998 153.2 97.7998 152.7 98.3998 153C99.6998 153.7 100.2 155 99.5998 156.1C98.4998 157.8 97.3998 159.4 96.1998 161C95.9998 161.3 95.5998 161.6 95.2998 161.7C94.8998 161.9 94.4998 161.9 94.0998 161.9C92.7998 161.9 91.5998 161.4 90.6998 160.4C89.8998 159.7 88.8998 158.9 87.9998 158.1Z" fill="#F47B43"/>
<path fill-rule="evenodd" clip-rule="evenodd" d="M103.7 136.7C104 136.4 104.5 136.3 104.9 136.3C105.8 136.4 106 136 106 135.2C106 134.6 106.2 133.9 106.5 133.4C106.6 133.1 106.8 132.8 107.1 132.6C107.3 132.4 107.6 132.2 107.9 132.1C108.2 132 108.5 132 108.8 132C109.1 132 109.4 132.1 109.7 132.3C110.6 132.8 111.4 133.4 112 134.2C112.7 135 113.2 136 114.4 136.4C114.8 136.5 114.8 136.9 114.8 137.3C114.8 137.6 114.7 137.8 114.5 138C114.3 138.2 114.1 138.3 113.9 138.4C113.6 138.5 113.3 138.5 113 138.4C112.7 138.3 112.5 138.2 112.2 138C111.7 137.6 111.3 137.1 111 136.5C110.5 135.7 109.8 135 109.1 134.4C108.7 134.1 108.4 134.2 108.3 134.6C108.1 135.3 108.1 136 108.3 136.6C108.5 137.5 108.9 138.3 109.4 139.1C109.6 139.3 109.7 139.6 109.8 140C109.9 140.2 109.8 140.5 109.8 140.7C109.7 140.9 109.6 141.1 109.4 141.2C109.2 141.3 109 141.3 108.8 141.3C108.6 141.3 108.4 141.2 108.2 141.1C107.8 140.8 107.4 140.5 107.1 140C106.9 139.6 106.6 139.3 106.3 138.9C105.6 138.2 105.2 138.2 104.5 138.8C103.9 139.3 103.9 139.8 104.5 140.4C105.2 141 105.9 141.5 106.7 142C107.5 142.5 107.7 143 107.4 143.7C107.2 144 107 144.2 106.7 144.4C106.4 144.5 106 144.5 105.7 144.4C105.1 144.3 104.6 144 104.2 143.6C103.8 143.1 103.4 142.7 103 142.3C102.6 142 102.3 141.6 102.1 141.2C101.9 140.8 101.9 140.3 101.9 139.8C102 139.2 102.2 138.6 102.5 138C102.7 137.5 103.2 137 103.7 136.7Z" fill="#F47B43"/>
<path fill-rule="evenodd" clip-rule="evenodd" d="M117.7 131.2C118.2 130.8 118.7 130.5 119.3 130.1C119.7 129.9 120 130 120.1 130.5C120.3 131.1 120.3 131.7 120.2 132.2C120 132.8 119.6 133.3 119.1 133.6C118.6 134 118 134.4 117.4 134.7C115.9 135.5 114 135.6 112.8 133.4C112.1 132.1 111.7 130.6 111.8 129.1C111.8 128.6 112 128.1 112.3 127.8C112.6 127.4 113.1 127.2 113.6 127.2C114.6 127.1 115.3 127.8 114.8 128.7C114.1 130 114.5 131 115.2 132.1C115.5 132.6 115.8 132.7 116.3 132.4C116.6 131.9 117.2 131.6 117.7 131.2Z" fill="#F47B43"/>
<path fill-rule="evenodd" clip-rule="evenodd" d="M115.4 123.4C115 121.9 115.6 119.9 116.6 119.2C116.9 119 117.3 118.9 117.6 118.9C118 119 118.3 119.1 118.5 119.4C118.8 119.7 119.1 120.1 119.3 120.5C119.5 120.9 119.6 121.2 119.7 121.6C119.8 121.6 119.9 121.7 120 121.7C120.1 121.7 120.2 121.7 120.3 121.6C120.5 121.4 120.8 121.4 121 121.4C121.3 121.4 121.5 121.6 121.6 121.7C121.8 121.9 121.8 122.2 121.8 122.5C121.8 122.8 121.7 123 121.5 123.2C121 123.8 120.4 124.2 119.8 124.4C119.6 124.5 119.5 124.5 119.3 124.5C119.1 124.5 119 124.4 118.8 124.4C118.6 124.3 118.5 124.2 118.4 124.1C118.3 124 118.2 123.8 118.2 123.6C118 123 117.9 122.3 117.8 121.7C117.7 121.4 117.6 121.1 117.3 121C116.9 120.9 116.8 121.2 116.7 121.4C116.2 122.1 115.8 122.6 115.4 123.4Z" fill="#F47B43"/>
<path fill-rule="evenodd" clip-rule="evenodd" d="M96.7995 147.6C96.0995 148.1 95.4995 148.3 95.0995 147.9C94.5995 147.5 94.8995 146.9 95.1995 146.4C95.8995 145.5 96.4995 144.6 97.1995 143.7C97.2995 143.5 97.4995 143.3 97.5995 143.2C97.7995 143 97.9995 143 98.2995 143C98.5995 143 98.7995 143.1 98.9995 143.2C99.1995 143.3 99.2995 143.5 99.2995 143.8C99.2995 144 99.2995 144.3 99.0995 144.5C98.5995 145.6 97.7995 146.7 96.7995 147.6Z" fill="#F47B43"/>
<path fill-rule="evenodd" clip-rule="evenodd" d="M100.299 145C100.799 144.6 101.299 144.4 101.599 144.6C101.899 144.8 101.899 145.3 101.899 145.6C101.599 146.9 100.799 148.1 99.6995 149C99.5995 149.1 99.3995 149.2 99.1995 149.2C98.9995 149.2 98.7995 149.2 98.6995 149.2C98.0995 149.1 97.6995 148.5 97.9995 148C98.6995 146.9 99.5995 145.8 100.299 145Z" fill="#F47B43"/>
<path fill-rule="evenodd" clip-rule="evenodd" d="M142.3 88.9C140.7 88.5 121.5 96 119.3 97.9C117.7 99.2 117.5 106.1 116.4 114.3C118.1 113.8 119.7 113.2 121.3 112.5C124.2 117.7 127.6 129.3 129 128.9C130.4 128.5 133.3 125.6 145 121.8C152.9 119.2 159.2 117.7 159.2 117.7C158.7 115.9 153.7 104.7 152.1 101.4L156.1 99.3C152.2 96.1 142.3 88.9 142.3 88.9ZM133.4 117.6L129.3 119.5L127.6 115.5L131.9 113.8L133.4 117.6ZM131.4 112.6L127.2 114.4L125.7 110.6L130.2 108.7L131.4 112.6ZM138.5 115.5L134.6 117.4C134.4 116.8 133 113.3 133 113.3L137.1 111.7C137.4 112.3 138.5 115.5 138.5 115.5ZM136.6 110.6C136.6 110.6 133.2 112.1 132.6 112.3C132.6 112.3 131.3 108.9 131.1 108.4L135.1 106.9C135.1 106.9 136.3 110 136.6 110.6ZM155.2 117C152.1 117.4 149.1 118.1 146.2 119.3L140.7 105.6C140.7 105.6 146.9 103.1 149.1 102.4C149.2 102.3 154.5 114.9 155.2 117Z" fill="#F47B43"/>
<path fill-rule="evenodd" clip-rule="evenodd" d="M51.3002 127.9C51.4002 128.6 51.4002 129.3 51.3002 130C47.7002 130.4 33.0002 118.8 31.8002 119.3C30.8002 119.8 32.3002 120.9 32.3002 120.9C32.0002 122.8 23.6002 134.9 21.9002 135.3C21.1002 134.5 19.9002 133.6 20.1002 135C20.4002 137.5 21.7002 156.6 21.0002 162.4C20.0002 162.4 18.4002 160.4 18.2002 161.8C18.1002 162.6 21.9002 165 22.3002 165C25.7002 164.8 26.8002 161 30.0002 160.8C26.2002 154.9 22.6002 140.6 22.7002 140.6C25.0002 144.6 29.8002 153.9 32.8002 159.8C35.7002 156.8 44.2002 163 50.2002 158.4C51.2002 148.2 51.0002 135.6 53.3002 130.2L53.1002 128.8C52.5002 126.2 51.1002 126.8 51.3002 127.9ZM45.9002 153.8C43.4002 155.1 22.7002 137.3 23.8002 137.3C25.3002 137.3 29.8002 141.6 35.5002 145.8C41.8002 150.5 45.9002 153.8 45.9002 153.8Z" fill="#F47B43"/>
<path fill-rule="evenodd" clip-rule="evenodd" d="M184.5 114.2C188.1 114.7 200.5 116.1 203 116.3C204.5 116.4 205.3 115.6 205.5 114.1C206.4 109.5 209.1 93.6 203.7 83.8C202.8 82.2 199.6 82.8 199 81.5C198.4 80.3 201.6 77.2 197.6 78.6C191.8 80.6 181.4 86 181 86.7C180.6 87.4 180.6 91.4 180.6 92.7C180.6 93.1 174.8 95.7 174.4 99C173.9 104.3 181.6 105.5 181.7 106.5C181.9 108.3 182.5 113.9 184.5 114.2ZM184.2 86.3C189.9 85.5 195.7 85.3 201.4 84C201.9 83.9 202.1 84.6 201.7 84.7C196 86 190.1 86.2 184.3 87C183.8 87.1 183.7 86.3 184.2 86.3ZM181.1 95.9C181.2 97.4 181.6 102 181.7 103.5C181.7 104 176.6 101.8 176.5 99.5C176.3 96.8 181.1 95.4 181.1 95.9ZM184.5 110.9C187 110.8 189.6 111.3 192.5 110.5C194.2 110 193.1 92.6 192.5 90.9C191.9 89.1 185.6 90.6 182.2 90C181.7 89.9 182 88.5 182.5 88.6C186 89.2 193.5 88.1 194.2 89.4C194.9 90.7 195.7 106.9 194.9 111.1C194.6 112.5 186.5 112.5 184.8 112.5C184.3 112.4 184 110.9 184.5 110.9Z" fill="#F47B43"/>
<path fill-rule="evenodd" clip-rule="evenodd" d="M68.1997 63.7C62.8997 69.2 57.9997 72.5 51.4997 77.8C47.7997 76 46.3997 78.4 48.4997 80.7C49.6997 81.9 53.0997 86.9 55.3997 85C56.7997 83.8 54.2997 82.2 55.8997 80.6C58.3997 78.2 69.4997 71.1 71.6997 68.6C86.2997 78.2 99.9997 60.3 90.1997 49.5C81.6997 40.1 64.3997 48.6 68.1997 63.7ZM82.6997 49.1C82.7997 50 76.9997 51.4 76.0997 52C75.0997 52.7 73.1997 56.3 71.8997 55.7C67.6997 53.5 82.3997 45.2 82.6997 49.1ZM84.7997 49.5C86.2997 48.5 87.3997 50.7 86.0997 51.6C85.4997 52 83.3997 50.5 84.7997 49.5Z" fill="#F47B43"/>
<path fill-rule="evenodd" clip-rule="evenodd" d="M101.1 67.5C100.1 66.5 94.0002 58.8 95.0002 64.4C95.2002 65.7 83.8002 77.2 81.3002 78.3C79.3002 79.2 61.0002 79.1 61.7002 84C62.7002 90.6 72.1002 101.1 79.0002 102.7C83.5002 103.8 85.7002 86.6 86.6002 83.4C88.2002 77.6 97.2002 70.9 98.6002 69.2C98.6002 69.3 103.7 70.3 101.1 67.5C101.7 68.1 98.6002 64.7 101.1 67.5ZM78.0002 81.7C78.7002 83.3 65.7002 85.3 65.5002 84.9C64.5002 83.2 77.3002 80.1 78.0002 81.7ZM80.0002 83.3C79.9002 83.4 79.7002 83.4 79.5002 83.4C79.3002 83.4 79.2002 83.3 79.1002 83.2C79.0002 83.1 78.9002 82.9 78.9002 82.8C78.9002 82.6 78.9002 82.5 79.0002 82.3C79.8002 80.7 81.7002 82.5 80.0002 83.3Z" fill="#F47B43"/>
<path fill-rule="evenodd" clip-rule="evenodd" d="M61.8002 261.9C60.2002 262.7 59.8002 264.1 59.5002 265.6C58.9002 265.4 58.3002 265 57.8002 264.5C55.4002 262.2 53.1002 260 50.8002 257.6C46.7002 253.3 43.7002 248.2 40.4002 243.2C38.8002 240.8 37.2002 238.4 35.6002 236C35.1002 235.2 34.5002 234.4 34.0002 233.6C33.8002 233.3 33.7002 233 33.7002 232.7C33.7002 232.4 33.7002 232.1 33.8002 231.8C34.0002 230.8 34.4002 230.7 35.4002 230.8C36.6002 230.9 37.3002 231.7 37.9002 232.6C38.8002 234 39.8002 235.4 40.6002 236.8C42.8002 240.5 45.6002 243.9 48.3002 247.2C49.4002 248.6 50.4002 250.1 51.6002 251.5C54.4002 254.9 57.5002 258 60.7002 260.8L61.8002 261.9Z" fill="#F47B43"/>
<path fill-rule="evenodd" clip-rule="evenodd" d="M63.8997 263.6C63.7997 263.5 62.4997 262.2 62.0997 262.5C61.8997 262.7 59.7997 264.4 60.4997 266C60.6997 266.5 61.2997 266.7 61.7997 267C61.8997 267 62.3997 264.1 63.8997 263.6Z" fill="#F47B43"/>
<path fill-rule="evenodd" clip-rule="evenodd" d="M75.9 269.4C73.8 266.3 69.6 262.7 64.8 264C63 265 62.9 267.3 62.8 267.3C62.5 270.3 64.9 274 66.7 274.8C70.5 276.5 74.8 280 75 279.7C75.2 279.5 73.2 276.8 72.3 275.8C72 275.5 71.7 275.3 71.7 274.9C71.9 274.7 73.9 275.3 74.7 275.9C76 276.9 77.1 278 78 279.4C78.1 279.5 78.2 279.8 78.4 279.7C78.7 279.7 79.2 274.3 75.9 269.4ZM72.2 268.2C71.9 268.5 71.6 268.3 71.4 268.1C70.8 267.6 70.2 267.1 69.5 266.8C68.5 266.2 67.3 265.8 66.2 265.9H66C65.7 265.9 65.4 265.9 65.3 265.6C65.2 265.3 65.6 265.1 65.9 265C66.3 264.9 66.8 264.9 67.2 264.9C68.7 265 71.4 266.4 72.2 267.5C72.2 267.7 72.6 267.9 72.2 268.2ZM74.3 270.5C73.9 270.7 73.9 270.2 73.7 270.1C73.6 269.9 73.5 269.8 73.4 269.6C73.3 269.5 73.2 269.2 73.4 269C73.7 268.9 73.8 269 73.9 269.2C74 269.3 74.1 269.4 74.2 269.6C74.3 269.9 74.7 270.2 74.3 270.5Z" fill="#F47B43"/>
<path fill-rule="evenodd" clip-rule="evenodd" d="M250.8 47.9C249.1 46.8 247.4 47.4 246.1 48.7C243.5 51.6 229.7 62.6 225.2 65.1C224.8 65.3 224.7 65.2 224.5 65C223.9 64.1 223.9 64.1 223 64.5C222.7 64.6 222.5 64.7 222.2 64.8C221.3 65.3 220.6 65 219.8 64.4C206.9 54.3 197.8 67.9 201.2 75.9C204.7 83.8 217.5 86.5 222.5 74.7C222.7 74.2 225.2 73 225.9 73.1C226.2 73.1 226.1 72.5 226.1 71.6C235.9 64.9 248.5 56 251.5 52.7C252.9 51.2 252.2 48.8 250.8 47.9ZM224.2 69.3C224.6 69.3 224.8 69.6 224.8 70.1C224.8 70.2 224.7 70.3 224.7 70.4C224.2 70.7 223.5 70.8 222.9 70.7C222.7 70.5 222.7 70.3 222.7 70.1C222.8 69.6 223.3 69.3 224.2 69.3ZM223.3 66.6C222.9 66.8 222.5 66.9 222.1 66.9H222L221.9 66.8V66.7V66.6C222.1 66.4 222.3 66.3 222.5 66.2C222.7 66.1 222.9 66.1 223.2 66.1C223.4 66.2 223.5 66.3 223.3 66.6ZM203.3 69.9C204.6 64.7 209.7 63.1 211.2 63.3C213.7 63.6 221.1 66 219.6 72.7C216.8 85.4 201 78.6 203.3 69.9ZM223.9 67.4C224.1 67.4 224.2 67.6 224.3 67.8C224.3 67.9 224.4 68 224.4 68.1C224.4 68.2 224.4 68.3 224.3 68.4C223.8 68.7 223.2 68.8 222.7 68.7C222.5 68.5 222.4 68.2 222.6 68C222.9 67.5 223.4 67.4 223.9 67.4Z" fill="#F47B43"/>
<path fill-rule="evenodd" clip-rule="evenodd" d="M207 67.5C207.6 66.8 208.4 66.3 209.3 66C209.7 65.9 210 65.8 210.4 65.8C210.7 65.8 211.1 65.8 211.3 66.2C211.4 66.6 211 66.7 210.8 66.8C209.8 67.3 208.8 68 208 68.8C207.6 69.1 207.3 69.5 207.2 70C207.2 70.4 206.9 70.6 206.5 70.5C206.3 70.5 206.2 70.4 206 70.3C205.9 70.2 205.8 70 205.8 69.8C205.7 69.5 205.7 69.2 205.8 68.9C205.9 68.6 206 68.4 206.2 68.1C206.5 68 206.8 67.7 207 67.5Z" fill="#F47B43"/>
<path fill-rule="evenodd" clip-rule="evenodd" d="M206.8 73.5C206.4 73.8 206.1 73.6 205.9 73.4C205.8 73.4 205.7 73.3 205.7 73.2C205.6 73.1 205.6 73 205.6 72.9C205.6 72.8 205.6 72.7 205.6 72.6C205.6 72.5 205.7 72.4 205.7 72.3C205.8 72.2 205.8 72.1 205.9 72.1C206 72 206.1 72 206.2 72C206.3 72 206.4 72 206.5 72C206.6 72 206.7 72.1 206.8 72.2C207.1 72.5 207 73 206.8 73.5Z" fill="#F47B43"/>
<path fill-rule="evenodd" clip-rule="evenodd" d="M135.1 38.2C134.7 38.3 134.3 38.3 133.9 38.2C132.6 37.7 131.3 37.1 130.1 36.4C130 36.4 129.9 36.3 129.8 36.2C129.7 36.1 129.6 36 129.6 35.9C129.6 35.8 129.5 35.6 129.5 35.5C129.5 35.4 129.6 35.2 129.6 35.1C129.7 34.9 129.9 34.7 130.2 34.6C130.4 34.5 130.7 34.5 131 34.5C132.5 34.8 134 35.3 135.5 35.9C135.8 36 136 36.2 136.1 36.4C136.2 36.6 136.2 36.9 136.1 37.2C136 37.4 135.9 37.7 135.7 37.8C135.5 38 135.3 38.1 135.1 38.2Z" fill="#F47B43"/>
<path fill-rule="evenodd" clip-rule="evenodd" d="M133.2 30.6C132.5 30.7 131.8 30.8 131.1 30.8C130.1 30.9 129.6 30.6 129.6 30.1C129.6 29.4 130.2 29.2 130.8 29C132.3 28.6 133.8 28.3 135.2 28C136.1 27.8 136.8 28.3 136.8 29C136.8 29.7 136.3 30.2 135.4 30.4C134.7 30.5 134 30.6 133.2 30.6Z" fill="#F47B43"/>
<path fill-rule="evenodd" clip-rule="evenodd" d="M127.9 26C127.4 26.2 126.9 26.2 126.6 25.8C126.5 25.6 126.4 25.4 126.4 25.1C126.4 24.9 126.5 24.6 126.7 24.5C127.5 23.7 128.4 22.9 129.4 22.3C129.6 22.1 129.9 22.1 130.1 22.1C130.4 22.1 130.6 22.2 130.8 22.4C130.9 22.5 131 22.6 131 22.7C131 22.8 131.1 23 131.1 23.1C131.1 23.2 131.1 23.4 131 23.5C130.9 23.6 130.9 23.7 130.7 23.8C129.9 24.7 128.9 25.5 127.9 26Z" fill="#F47B43"/>
<path fill-rule="evenodd" clip-rule="evenodd" d="M106.7 37.2C106.5 37.4 106.6 37.6 106.5 37.9C106.4 38.1 106.3 38.3 106.1 38.4C105.9 38.5 105.7 38.6 105.5 38.6C105.3 38.6 105.1 38.5 104.9 38.4C104.7 38.3 104.6 38.1 104.5 37.9C104.3 37.1 104.1 36.4 103.9 35.6C103.9 35.4 103.9 35.2 104 35.1C104.1 34.9 104.2 34.8 104.4 34.7C104.5 34.6 104.7 34.6 104.9 34.6C105.1 34.6 105.2 34.7 105.3 34.8C105.8 35.1 106.1 35.6 106.3 36.1C106.3 36.5 106.5 36.9 106.7 37.2Z" fill="#F47B43"/>
<path fill-rule="evenodd" clip-rule="evenodd" d="M129.8 40.7C129.9 40.9 130 41.2 129.9 41.4C129.9 41.6 129.7 41.9 129.5 42C129.4 42.1 129.3 42.2 129.2 42.2C129.1 42.3 129 42.3 128.8 42.3C128.7 42.3 128.5 42.3 128.4 42.2C128.3 42.1 128.2 42.1 128.1 42C127.6 41.6 127.1 41.2 126.6 40.9C126.4 40.8 126.2 40.6 126.1 40.4C126 40.2 126 40 126.1 39.8C126.1 39.6 126.2 39.4 126.4 39.3C126.5 39.2 126.7 39.1 126.8 39C127 39 127.1 39 127.3 39C128.4 39.3 129.2 39.9 129.8 40.7Z" fill="#F47B43"/>
<path d="M125.9 30.3C123 23.4 111.7 24.9 109.1 34C109 34 108.9 33.9 108.9 33.8C108.8 33.6 108.6 33.4 108.3 33.3C108 33.2 107.8 33.2 107.5 33.3C107.3 33.4 107.1 33.6 107 33.8C106.9 34 106.9 34.3 106.9 34.6C107 35.1 107 35.5 107.1 36C107.1 36.3 107.3 36.6 107.1 36.9C107.3 37.4 107.5 37.9 108.2 38C108.9 38.1 109.3 37.5 109.7 37.1C121.2 47.3 128.5 36.4 125.9 30.3ZM118.7 38.8C118.2 38.8 117.8 38.7 117.8 38.1C117.8 37.5 118.2 37.5 118.6 37.5C119.2 37.5 119.9 37.3 120.5 37.1C121 37 121.4 36.8 121.8 36.5C122.2 36.2 122.4 35.8 122.6 35.3C122.7 35 122.8 34.7 123 34.4C123.1 34.2 123.3 33.9 123.6 34C123.9 34.1 123.9 34.4 123.9 34.7C123.6 36.2 122.9 37.5 121.3 38.1C121 38.2 120.8 38.3 120.5 38.4C119.9 38.7 119.3 38.8 118.7 38.8Z" fill="#F47B43"/>
<path fill-rule="evenodd" clip-rule="evenodd" d="M250.6 109.9C251.6 110.7 244 121.5 244.7 129.6C244.9 131.5 244.5 131.9 246 133.1C246.8 133.7 249.6 134.9 250.1 134.7C249.6 132.3 250.7 128.8 253.1 127.2C248.1 122.2 251.6 111.5 253.2 111.5C253.9 111.5 251.4 115.9 252 120.1C252.6 124.9 256.4 129.7 256.9 130.3C257.2 130.7 257.9 130.9 257.9 131.4C258 131.9 257.5 132.3 257.3 132.7C256.9 133.7 256.6 134.6 256.3 135.6C256.1 136.2 256 136.4 255.4 136.2C254.1 135.8 252.6 135.8 251.3 136.2C250.3 136.5 244.4 134.6 243.6 132.3C241.3 126 249.6 109.2 250.6 109.9Z" fill="#F47B43"/>
<path fill-rule="evenodd" clip-rule="evenodd" d="M258.9 131.6L257.5 136.2C257.5 136.2 276 154.3 278 177.2L286.3 182L290.3 171.6C290.2 171.7 291.5 159 258.9 131.6Z" fill="#F47B43"/>
<path fill-rule="evenodd" clip-rule="evenodd" d="M106.8 61.9C101.1 63.9 100.9 52.3 106.8 53.9C111.5 55.2 110.4 60.7 106.8 61.9Z" fill="#F47B43"/>
<path fill-rule="evenodd" clip-rule="evenodd" d="M101.6 51.5C97.4002 52.9 97.4002 44.5 101.6 45.7C105 46.7 104.2 50.6 101.6 51.5Z" fill="#F47B43"/>
<path fill-rule="evenodd" clip-rule="evenodd" d="M94.6996 43.2C91.8996 44.2 91.8996 38.6 94.6996 39.3C96.8996 39.9 96.3996 42.6 94.6996 43.2Z" fill="#F47B43"/>
<path fill-rule="evenodd" clip-rule="evenodd" d="M107.8 48.7C105.7 49.4 105.7 45.3 107.8 45.8C109.4 46.3 109.1 48.2 107.8 48.7Z" fill="#F47B43"/>
<path fill-rule="evenodd" clip-rule="evenodd" d="M99.2996 59C96.1996 60.1 96.1996 53.9 99.2996 54.7C101.8 55.4 101.2 58.3 99.2996 59Z" fill="#F47B43"/>
<path fill-rule="evenodd" clip-rule="evenodd" d="M99.7 42.8C98.1 43.3 98.1 40.2 99.7 40.6C100.9 41 100.6 42.4 99.7 42.8Z" fill="#F47B43"/>
<path fill-rule="evenodd" clip-rule="evenodd" d="M287.599 104.6C287.899 106.2 287.699 107.9 287.099 109.4C286.799 110.1 286.399 110.6 285.799 111.1C285.199 111.5 284.499 111.8 283.799 111.8C281.599 112.1 279.599 111.6 278.199 110.1C276.199 108 277.299 103.2 280.099 101.7C282.799 100.3 286.699 101.7 287.599 104.6Z" fill="#F47B43"/>
<path fill-rule="evenodd" clip-rule="evenodd" d="M291.1 119C292.7 123.4 289.1 125.2 287.7 125.4C285.7 125.7 284 125.2 282.7 123.9C280.9 122.1 281.9 117.7 284.4 116.4C286.9 115.1 290.3 116.4 291.1 119Z" fill="#F47B43"/>
<path fill-rule="evenodd" clip-rule="evenodd" d="M195.7 72.4C196.3 61.5 192.9 48.2 194.7 36.8C198.2 36.1 206.1 35.1 208.8 27.3C210.1 23.6 207.2 23.7 206.2 25.4C204.3 28.7 202 29.8 196.1 30C192.5 30.1 188.9 29.7 185.4 28.8C182.4 27.9 179.4 27.3 176.3 27.2C171.3 26.9 163.3 27.1 160.1 27.1C158.4 27.1 157.1 26.6 154 26.8C149.9 27.1 145.2 27.2 139.1 23C137.2 21.9 136.9 22.7 138.1 24.6C139.5 26.8 146.7 31.1 152.9 30.1C147.3 39.8 136.4 44.9 135 45.8C133.3 46.9 134.3 48.2 135.8 47.6C136.9 47.1 143.2 45.7 148.1 42.9C147.3 47.1 141.7 54.5 141.5 55.3C141.3 56.4 141.9 57 143 56.7C143.7 56.5 155.1 44.2 160.3 30.1C164.7 30.6 168.3 30.6 169 30.7C163.1 47.3 150.3 56.4 152.6 58C153.1 58.7 162.3 54.7 167.9 45.2C167.7 50.8 164 62.1 163.9 63.3C163.8 65.6 166.2 65.1 166.4 64.5C175.5 45.2 176.8 31.2 177.6 30.8C179.5 29.9 185.6 31.7 185.5 32.6C185.3 35 173.4 64.2 173.2 65.3C173 66.2 173.4 66.7 174.3 66.6C175.1 66.5 175.8 66.1 176.4 65.6C179.7 62.6 182.7 56.3 187.6 50.1C188 50.8 189.4 66.2 192.2 72.9C194.3 78.2 195.5 74.6 195.7 72.4Z" fill="#F47B43"/>
<path fill-rule="evenodd" clip-rule="evenodd" d="M163.1 20C164.6 24.1 161.2 25.9 159.9 26C159.1 26.2 158.2 26.1 157.4 25.9C156.6 25.7 155.8 25.2 155.2 24.6C153.5 22.9 154.5 18.8 156.8 17.5C159.1 16.2 162.3 17.5 163.1 20Z" fill="#F47B43"/>
<path fill-rule="evenodd" clip-rule="evenodd" d="M194.5 22.9C196 27 192.6 28.8 191.3 28.9C190.5 29.1 189.6 29 188.8 28.8C188 28.6 187.2 28.1 186.6 27.5C184.9 25.8 185.9 21.7 188.2 20.4C190.5 19.2 193.7 20.5 194.5 22.9Z" fill="#F47B43"/>
<path fill-rule="evenodd" clip-rule="evenodd" d="M177.7 20.4C179.2 24.5 175.8 26.3 174.5 26.4C173.7 26.6 172.8 26.5 172 26.3C171.2 26.1 170.4 25.6 169.8 25C168.1 23.3 169.1 19.2 171.4 17.9C173.8 16.6 177 17.9 177.7 20.4Z" fill="#F47B43"/>
<path fill-rule="evenodd" clip-rule="evenodd" d="M293.1 131.7C293.3 133 293.2 134.2 292.7 135.4C292.5 135.9 292.1 136.4 291.7 136.7C291.2 137 290.7 137.2 290.1 137.3C289.3 137.4 288.5 137.4 287.8 137.2C287 137 286.4 136.6 285.8 136C284.2 134.4 285.1 130.6 287.3 129.5C289.4 128.2 292.4 129.4 293.1 131.7Z" fill="#F47B43"/>
<path fill-rule="evenodd" clip-rule="evenodd" d="M260.7 126C259.2 127.6 263.4 129.3 266.3 132.2C269.3 135.2 270.6 138.5 272.2 137.3C273.9 136 284.7 129.7 281.5 123.4C277.8 116.5 263.8 122.7 260.7 126Z" fill="#F47B43"/>
<path fill-rule="evenodd" clip-rule="evenodd" d="M274 106.1C276.9 107.8 278 112.9 274.8 116.6C272.6 119.1 262.8 120.4 258.9 124C257.4 125.4 253.1 114.5 258.2 112.1C263.2 109.6 267.2 102 274 106.1Z" fill="#F47B43"/>
<path fill-rule="evenodd" clip-rule="evenodd" d="M283.4 135.7C288.5 139.4 285.3 146 281.7 149.9C281 150.6 279.4 146.6 276.9 143.9C274.4 141.1 271.2 139.6 273.6 138.2C276.1 136.6 280 133.3 283.4 135.7Z" fill="#F47B43"/>
<path fill-rule="evenodd" clip-rule="evenodd" d="M24.8999 180.2C24.5999 184.1 24.7999 196.4 24.9999 199C25.0999 200.1 25.1999 201.2 25.2999 202.3C26.8999 199.6 28.1999 196.8 29.2999 193.8C35.3999 177.5 23.0999 167 23.0999 167C23.0999 167 22.1999 170.9 19.2999 178.8C12.5999 197 27.4999 210.8 25.9999 207.2C25.4999 206 19.6999 190 24.8999 180.2Z" fill="#F47B43"/>
<path fill-rule="evenodd" clip-rule="evenodd" d="M38.3995 172.2C39.9995 174.2 42.5995 179.1 43.4995 180.6C43.8995 181.2 44.1995 181.9 44.5995 182.5C42.5995 181.8 40.6995 180.9 38.8995 179.8C28.7995 173.7 32.6995 162.4 32.6995 162.4C34.8995 164.1 37.1995 165.7 39.5995 167.1C50.7995 173.9 46.4995 188.3 46.0995 185.7C45.7995 184.6 44.0995 173.9 38.3995 172.2Z" fill="#F47B43"/>
<path fill-rule="evenodd" clip-rule="evenodd" d="M39.2 198.1C40 201.8 43.7 212 50.3 216.9C49.7 214 49.6 211.4 50.1 206.9C51.9 190.3 34.8 182.7 34.8 182.7C35 187.5 34.4 192.3 33 197C28.6 211.4 45.2 218.8 51.5 221.6C48 219 37.4 208.1 39.2 198.1Z" fill="#F47B43"/>
<path fill-rule="evenodd" clip-rule="evenodd" d="M32.1003 219.8C34.0003 221.7 37.2003 226.5 38.3003 228C38.8003 228.6 39.2003 229.2 39.6003 229.9C37.5003 229.3 35.6003 228.5 33.6003 227.5C23.0003 222 24.8003 210.3 24.8003 210.3C27.2003 211.9 29.6003 213.3 32.2003 214.6C44.0003 220.7 42.2003 235.5 41.5003 232.9C41.2003 231.8 39.6003 221.7 32.1003 219.8Z" fill="#F47B43"/>
<path fill-rule="evenodd" clip-rule="evenodd" d="M122.5 55.2L121.2 60.5C122.5 61.2 123.7 62 124.8 62.9L126.2 57.7C125.1 56.8 123.9 55.9 122.5 55.2Z" fill="#F47B43"/>
<path fill-rule="evenodd" clip-rule="evenodd" d="M123.3 48.8C122.1 48.5 120.8 48.3 119.6 48.4L118.5 52.9C119.7 53.2 120.9 53.6 122.1 54.1L123.3 48.8Z" fill="#F47B43"/>
<path fill-rule="evenodd" clip-rule="evenodd" d="M126.5 57L128 51.5C127.1 50.7 126 50 124.9 49.5C124.6 49.4 124.3 49.2 124 49.1L122.7 54.6C124.1 55.2 125.3 56 126.5 57Z" fill="#F47B43"/>
<path fill-rule="evenodd" clip-rule="evenodd" d="M130.7 61.6L132.1 57.2C132 57 131.9 56.9 131.8 56.7C131 55 129.9 53.4 128.6 52L127.1 57.5C128.5 58.7 129.7 60.1 130.7 61.6Z" fill="#F47B43"/>
<path fill-rule="evenodd" clip-rule="evenodd" d="M125.5 63.5C126.8 64.6 127.9 65.8 128.9 67.1L130.3 62.5C129.3 61 128.1 59.6 126.8 58.3L125.5 63.5Z" fill="#F47B43"/>
<path fill-rule="evenodd" clip-rule="evenodd" d="M139.2 66.8L140.3 62.8C139.3 62.6 138.4 62.3 137.4 61.9C137.2 61.8 136.9 61.7 136.7 61.6L135.4 65.8C136.6 66.3 137.9 66.6 139.2 66.8Z" fill="#F47B43"/>
<path fill-rule="evenodd" clip-rule="evenodd" d="M148.2 67.3L148.5 63.6C147.9 63.7 146.3 63.5 145.3 63.5L144.6 67.3C145.9 67.2 147.7 67.4 148.2 67.3Z" fill="#F47B43"/>
<path fill-rule="evenodd" clip-rule="evenodd" d="M139.7 67.7L138.2 73.2C139.7 73.5 141.1 73.6 142.6 73.7L143.6 68C142.3 67.9 141 67.8 139.7 67.7Z" fill="#F47B43"/>
<path fill-rule="evenodd" clip-rule="evenodd" d="M143.8 67.2L144.5 63.4C143.3 63.4 142.1 63.2 141 63L139.9 66.9C141.2 67.1 142.5 67.2 143.8 67.2Z" fill="#F47B43"/>
<path fill-rule="evenodd" clip-rule="evenodd" d="M131.5 62.8C132.3 64 133.4 65 134.8 65.5L136.1 61.2C134.7 60.4 133.6 59.3 132.7 58L131.3 62.4L131.5 62.8Z" fill="#F47B43"/>
<path fill-rule="evenodd" clip-rule="evenodd" d="M143.4 73.6C144.6 73.6 145.9 73.6 147.1 73.5L147.9 67.9C147.3 68 145.8 67.9 144.5 67.9L143.4 73.6Z" fill="#F47B43"/>
<path fill-rule="evenodd" clip-rule="evenodd" d="M132.9 71.3L134.5 66.2C133.1 65.6 131.8 64.6 130.9 63.3L129.5 67.8C129.7 68.1 130 68.5 130.2 68.8C130.9 69.9 131.8 70.8 132.9 71.3Z" fill="#F47B43"/>
<path fill-rule="evenodd" clip-rule="evenodd" d="M133.6 72.5L133.4 72.4L131.7 77.9C132.4 78.6 133.2 79.1 134.1 79.5C134.6 79.7 135.1 79.9 135.6 80L137.3 73.7C136 73.4 134.8 73 133.6 72.5Z" fill="#F47B43"/>
<path fill-rule="evenodd" clip-rule="evenodd" d="M138 73.8L136.3 80.1C138 80.4 139.7 80.4 141.4 80.1L142.5 74.3C141 74.3 139.5 74.1 138 73.8Z" fill="#F47B43"/>
<path fill-rule="evenodd" clip-rule="evenodd" d="M143.2 74.4L142.2 80C143.7 79.7 145.2 79.3 146.7 78.7L147 74.3C145.8 74.4 144.5 74.4 143.2 74.4Z" fill="#F47B43"/>
<path fill-rule="evenodd" clip-rule="evenodd" d="M152.3 59.9C151.4 59.2 138.1 62.8 134.2 53C130.4 43.4 116.6 44.9 116.3 45.3C116 45.9 111.1 65.4 110.9 67C110.8 67.8 119.6 66.4 127.1 78.5C130.9 84.7 138.4 84.7 150.1 81.8L152.3 59.9ZM133.6 80.5C131.7 79.7 130.2 78.2 129.2 76.4C126.3 71.2 121.6 68.3 118.1 66.7C117 66.2 115.9 65.8 114.8 65.5L114.3 65.4L118.6 47.4L119 47.3C121.2 47.1 123.4 47.4 125.4 48.3C128.6 49.7 131.1 52.3 132.9 56.1C133.9 58.2 135.7 59.9 137.9 60.8C142.6 62.9 149 62.3 149.1 62.3L149.8 62.2L147.9 79.3L147.6 79.4C147.2 79.7 139.5 83.1 133.6 80.5Z" fill="#F47B43"/>
<path fill-rule="evenodd" clip-rule="evenodd" d="M139 67.5C137.7 67.3 136.4 66.9 135.2 66.5L133.6 71.7C134.8 72.3 136.2 72.7 137.5 73L139 67.5Z" fill="#F47B43"/>
<path fill-rule="evenodd" clip-rule="evenodd" d="M116.8 59.6L115.6 64.6C116.6 64.9 117.6 65.3 118.5 65.7L119.2 66L120.4 60.9C119.3 60.4 118.1 59.9 116.8 59.6Z" fill="#F47B43"/>
<path fill-rule="evenodd" clip-rule="evenodd" d="M129.6 69.3L129.3 68.8L128.1 72.7C128.9 73.7 129.6 74.7 130.3 75.9C130.6 76.4 130.9 76.8 131.2 77.3L132.8 72.1C131.4 71.4 130.4 70.5 129.6 69.3Z" fill="#F47B43"/>
<path fill-rule="evenodd" clip-rule="evenodd" d="M120.6 60.2L121.9 54.9C120.8 54.4 119.6 53.9 118.3 53.7L117 58.9C118.2 59.2 119.4 59.7 120.6 60.2Z" fill="#F47B43"/>
<path fill-rule="evenodd" clip-rule="evenodd" d="M121.1 61.3L119.9 66.3C121.1 66.9 122.3 67.6 123.4 68.4L124.7 63.7C123.6 62.8 122.4 62 121.1 61.3Z" fill="#F47B43"/>
<path fill-rule="evenodd" clip-rule="evenodd" d="M125.3 64.3L124 69C125.2 69.9 126.3 70.9 127.4 72.1L128.7 68.1C127.7 66.6 126.6 65.4 125.3 64.3Z" fill="#F47B43"/>
<path fill-rule="evenodd" clip-rule="evenodd" d="M51.5003 231C51.0003 229.9 46.8003 232 47.4003 234.1C49.4003 241.1 63.1003 257.6 64.4003 257.8C66.2003 258.2 70.1003 259.2 70.2003 259C70.3003 258.8 68.6003 253.4 68.2003 253.1C61.3003 246.7 52.7003 233.7 51.5003 231ZM68.4003 255.1C68.5003 255.3 68.6003 255.9 68.7003 256.1C68.9003 256.5 69.0003 257 68.8003 257.3C68.1003 258.3 67.3003 258.2 66.2003 257.8C65.7003 257.7 65.1003 257.5 64.6003 257.3C64.8003 256.9 65.4003 256.7 65.8003 256.6C66.0003 256.6 66.3003 256.5 66.4003 256.3C66.6003 256.1 66.6003 255.9 66.6003 255.6C66.6003 255.2 67.4003 254.4 67.6003 254.2C68.2003 253.7 68.2003 254.4 68.4003 255.1Z" fill="#F47B43"/>
<path fill-rule="evenodd" clip-rule="evenodd" d="M46.1998 231.1C46.1998 231.1 47.7998 228.4 50.3998 228.5C50.3998 228.5 49.0998 225.2 48.0998 225.4C47.0998 225.6 45.1998 226.7 44.8998 227.7C44.5998 228.7 46.1998 231.1 46.1998 231.1Z" fill="#F47B43"/>
<path fill-rule="evenodd" clip-rule="evenodd" d="M178 77.9C178 76.5 178.2 72.7 178 71.8C176.6 65.6 171.7 70.4 155.8 64.5C153.8 63.8 155.3 79.1 155.7 80.3C154.5 81 153.6 82.9 153.4 83.8C153.3 84.4 153.3 85.1 153.5 85.7C153.7 86.3 154.1 86.8 154.6 87.2C155.7 88.1 157.2 88.1 158.6 87.9C160.4 91.3 163.9 95.6 167.8 94.7C171 94 173 91.8 176.1 86.1C180.4 85.6 183.5 79 178 77.9ZM155.2 83.6C155.3 83.3 155.4 82.9 155.6 82.6C155.8 82.3 156 82.1 156.3 81.9C156.8 83.6 157.4 85.3 158 86.9C156.2 87.1 154.9 86 155.2 83.6ZM176.5 85.2C176.8 83.2 177.8 81.3 177.8 79.4C180.7 80 178.7 84 176.5 85.2Z" fill="#F47B43"/>
<path fill-rule="evenodd" clip-rule="evenodd" d="M162.1 113.4C161.5 113.5 161.5 117.8 162.3 117.5C169.1 115.5 177.2 115.5 178.4 115.5C179.6 115.5 178 111.5 177 111.5C176.1 111.5 164.3 113.1 162.1 113.4Z" fill="#F47B43"/>
<path fill-rule="evenodd" clip-rule="evenodd" d="M164.099 109.5C163.699 109.6 163.599 112.7 164.299 112.5C169.199 111.1 175.099 111 175.899 111C176.699 111 175.599 108.1 174.899 108.1C174.199 108.1 165.599 109.3 164.099 109.5Z" fill="#F47B43"/>
<path fill-rule="evenodd" clip-rule="evenodd" d="M166.5 96.6C167.5 100.2 167.7 103.9 167.1 107.6L171.5 106.9C171.5 106.9 169.4 105.3 168.9 95.9L166.5 96.6Z" fill="#F47B43"/>
<path fill-rule="evenodd" clip-rule="evenodd" d="M84.2997 279.6C83.9997 279.1 83.5997 278.8 83.0997 278.6C82.5997 278.4 81.9997 278.5 81.4997 278.7C80.4997 279.2 82.8997 280.5 80.9997 283.6C79.0997 286.7 84.0997 289.9 85.6997 285.3C86.2997 283.5 85.1997 281.2 84.2997 279.6Z" fill="#F47B43"/>
<path fill-rule="evenodd" clip-rule="evenodd" d="M234.4 76.2C251.4 88.5 259.3 103.4 259.7 103C264.5 93.7 276.5 95.5 279.3 91C281.1 92.5 282.5 94.4 283.3 96.5C281.4 98.6 277.1 99.2 270.4 100.5C263.2 102 259.7 108.5 257.4 109.3C256.2 107.7 241.4 87.5 229.8 80.6C230.5 79.8 231 76.9 234.4 76.2Z" fill="#F47B43"/>
<path fill-rule="evenodd" clip-rule="evenodd" d="M260.3 59.3C260.3 59.3 239.5 62.3 234 74.4C238.6 76.2 253.5 92.2 259.9 100.5C266 91.5 269.9 96.1 280.6 88.2C278.4 81 268.8 67.7 260.3 59.3ZM266 72.5C266.9 72.1 267.6 73.4 266.7 73.8C264.7 74.6 262.8 75.5 261.1 76.7C260.3 77.2 259.3 76.2 260.1 75.6C261.9 74.4 263.9 73.4 266 72.5ZM262.8 68.1C263.7 67.7 264.3 69 263.5 69.4C261.7 70.3 259.8 71 258.1 72.2C257.3 72.7 256.3 71.7 257.1 71.1C258.9 69.9 260.9 69.1 262.8 68.1ZM252.5 66.6C255.1 65.5 257.6 64.1 260.3 63.4C261.2 63.1 261.5 64.6 260.6 64.8C258 65.6 255.7 66.8 253.2 67.9C252.4 68.4 251.7 67.1 252.5 66.6ZM242.2 74.9C242.1 73.5 245.8 69 249.3 69.4C251.5 69.6 257.8 78.7 257.8 78.7C257.8 78.7 252.7 81.7 251.5 83.5L242.2 74.9ZM254.6 85.9C259.3 82.1 264.7 79.3 270.5 77.6C270.6 77.6 270.7 77.6 270.8 77.6C270.9 77.6 271 77.7 271.1 77.8C271.2 77.9 271.3 78 271.3 78.1C271.3 78.2 271.4 78.3 271.4 78.4V78.6C271.4 78.7 271.4 78.9 271.3 79C271.2 79.1 271.1 79.2 271 79.3L270.7 79.4C270.5 79.5 270.3 79.5 270.1 79.4C264.8 81.1 259.9 83.7 255.6 87.1C254.8 87.6 253.8 86.5 254.6 85.9ZM274.1 83.2L273.5 83.4C273.4 83.5 273.2 83.5 273.1 83.4C272.7 83.6 272.2 83.9 271.9 84C271.2 84.3 270.5 84.6 269.8 84.9C268.5 85.5 267.3 86 266.1 86.7C263.5 88.1 261.1 89.7 259.2 91.9C258.6 92.6 257.3 91.8 258 91.1C260.1 88.7 262.6 86.8 265.5 85.4C267.1 84.6 268.7 83.8 270.3 83.1C271.3 82.7 272.8 81.6 273.9 81.7C274.5 81.9 274.8 83 274.1 83.2Z" fill="#F47B43"/>
<path fill-rule="evenodd" clip-rule="evenodd" d="M245.8 98.5C245.8 98.5 237.1 89.7 227.1 87.3L230 83.1C230 83.1 242.2 91.1 245.8 98.5Z" fill="#F47B43"/>
<path fill-rule="evenodd" clip-rule="evenodd" d="M238.2 129.3C231.7 125.7 223 120.3 210.2 117.1C212.7 110 214.8 96.3 214.2 89.2C214.1 88.2 213.2 88.6 213.3 89.6C213.9 96.7 211.7 109.8 209.1 116.9C209 117.3 209 117.8 209.5 117.9C221.6 121.4 231.2 126 237.3 130.2C238.1 130.8 239.1 129.8 238.2 129.3Z" fill="#F47B43"/>
<path fill-rule="evenodd" clip-rule="evenodd" d="M179.5 70.8C179.5 70.8 182.8 70.8 183.6 66.3C183.6 66.3 183.9 70.6 186.3 70.9C186.3 70.9 183.8 71.2 182.6 76.1C182.6 76.2 183 70.1 179.5 70.8Z" fill="#F47B43"/>
<path fill-rule="evenodd" clip-rule="evenodd" d="M184.9 77.7C184.9 77.7 186.8 77.7 187.3 75.1C187.3 75.1 187.5 77.6 188.9 77.8C188.9 77.8 187.5 78 186.7 80.8C186.8 80.9 187 77.3 184.9 77.7Z" fill="#F47B43"/>
<path fill-rule="evenodd" clip-rule="evenodd" d="M146.4 87.6C146.4 87.6 148.2 86.9 147.7 84.3C147.7 84.3 148.8 86.5 150.1 86.2C150.1 86.2 148.8 86.9 149.2 89.8C149.2 89.8 148.2 86.4 146.4 87.6Z" fill="#F47B43"/>
<path fill-rule="evenodd" clip-rule="evenodd" d="M154.7 94.7C154.7 94.7 156.7 93.8 156 90.9C156 90.9 157.3 93.3 158.9 92.9C158.9 92.9 157.5 93.8 158.1 97C158 97 156.6 93.3 154.7 94.7Z" fill="#F47B43"/>
<path fill-rule="evenodd" clip-rule="evenodd" d="M212.1 116.3C212.1 116.3 215.5 103.4 215.6 98.7C215.6 96.8 220.4 96.4 220.8 98.5C221.7 103.3 217.3 118.1 217.3 118.1L212.1 116.3Z" fill="#F47B43"/>
<path fill-rule="evenodd" clip-rule="evenodd" d="M218.5 118.2C218.5 118.2 221.1 111.5 221.5 106.6C221.7 104.1 227 105.3 227.4 106.3C228.8 109.2 224.4 120.1 224.4 120.1L218.5 118.2Z" fill="#F47B43"/>
<path fill-rule="evenodd" clip-rule="evenodd" d="M226 121.2C226 121.2 229.4 108.5 230.7 105.2C231.8 102.3 235.8 103.6 236.1 104.8C237 108.3 232.5 125.3 230.9 123.8C229.2 122.3 226 121.2 226 121.2Z" fill="#F47B43"/>
<path fill-rule="evenodd" clip-rule="evenodd" d="M233.2 125.1C233.2 125.1 238 109.7 239.6 105.7C241 102.2 244.8 103.3 244.9 104.6C245.3 108.6 239.1 129.3 237.7 127.7C236.2 126 233.2 125.1 233.2 125.1Z" fill="#F47B43"/>
<path d="M243.6 99.9L243.5 99.8C243.5 99.7 243.4 99.7 243.3 99.7C242.9 99.4 242.5 99 242.1 98.7C241.7 98.4 241.1 98.9 241.5 99.2L242 99.6L234.5 99.1C234.4 99.1 234.4 99.1 234.3 99.1L226.3 102.2L218.6 92C218.5 91.9 218.4 91.9 218.3 91.8C218.2 91.8 218.1 91.8 218 91.9L217.9 92C217.9 92 217.9 92.1 217.8 92.1V92.2C217.8 92.2 217.8 92.3 217.9 92.3L226 102.6C226.1 102.7 226.1 102.7 226.2 102.7C226.3 102.7 226.4 102.7 226.5 102.7L234.6 99.6L242.6 100.1C242.3 100.5 242 100.8 241.6 101C241.2 101.2 241.5 101.9 242 101.7C242.7 101.3 243.2 100.7 243.7 100.1C243.7 100 243.8 99.9 243.8 99.9C243.7 100 243.7 100 243.6 99.9Z" fill="#F47B43"/>
<path d="M229.4 95.5C228.8 95.2 228.3 94.8 227.8 94.3C228.9 93 229 91 227 90.6H226.9C226.8 90.1 225.9 90.1 226 90.7C226 91.3 226 91.7 226 92.2V92.3C226 92.4 226 92.4 226 92.5C226 92.6 226 92.6 226 92.7C226 93.6 225.9 94.5 225.9 95.4C225.8 96.6 225.6 98 225.9 99.3C225.9 99.4 226 99.5 226.1 99.6C226.2 99.7 226.3 99.7 226.5 99.7C226.6 99.7 226.7 99.6 226.8 99.5C226.9 99.4 226.9 99.3 226.9 99.1C226.7 98 226.9 96.6 226.9 95.5V95C227.7 95.3 228.1 96 228.9 96.4C229.4 96.5 230 95.7 229.4 95.5ZM226.9 93.9C226.9 93.4 226.9 92.9 227 92.3L227.2 91.6C228.1 92.1 227.6 93.2 226.9 93.9Z" fill="#F47B43"/>
<path d="M231.5 97.4C231.4 97 231.4 96.6 231.3 96.1V95.7C232.1 95.5 232.9 95.2 233.2 94.3C233.2 94.2 233.2 94.1 233.2 94.1C233.2 94 233.1 93.9 233.1 93.9C232.8 93.6 232.3 93.3 231.8 93.2C231.5 93.2 231.3 93.2 231 93.3C230.9 93.2 230.9 93.1 230.8 93.1C230.7 93.1 230.6 93.1 230.5 93.1C230.4 93.1 230.3 93.2 230.2 93.3C230.1 93.4 230.1 93.5 230.1 93.6C230.1 94.9 230.2 96.2 230.4 97.4C230.5 97.8 230.5 98.4 230.8 98.6C231.3 98.9 231.6 98.4 231.7 97.9C231.7 97.8 231.7 97.8 231.7 97.7C231.7 97.6 231.7 97.6 231.6 97.6C231.5 97.6 231.5 97.5 231.5 97.5C231.6 97.4 231.5 97.4 231.5 97.4ZM232.1 94.4C231.8 94.6 231.5 94.8 231.2 94.9C231.2 94.7 231.2 94.6 231.2 94.4C231.5 94.2 231.8 94.2 232.1 94.4Z" fill="#F47B43"/>
<path fill-rule="evenodd" clip-rule="evenodd" d="M67.9995 237.3C70.0995 233.8 70.8995 228.5 69.3995 225.6C68.0995 228.2 68.2995 228.1 67.4995 228.2C68.2995 225.4 68.6995 223.9 67.1995 221.1C66.9995 220.7 66.9995 221.8 66.4995 222.1C66.4995 220.1 64.3995 213.9 64.1995 211.8C64.0995 211.1 63.2995 215.1 63.0995 215.9C61.5995 211.1 60.5995 208.3 55.0995 203.9C51.9995 213.1 53.9995 216.7 56.1995 221C55.2995 220.6 54.4995 219.1 54.4995 219.5C54.3995 223 56.3995 226.9 58.7995 229.1C58.3995 229.1 55.9995 228 56.2995 228.4C56.2995 228.4 58.1995 234.4 64.8995 238.3C64.8995 238.3 60.2995 224.3 60.1995 218.9C62.7995 225.1 69.9995 249.1 70.8995 250.2C73.0995 247.5 67.9995 239.4 67.9995 237.3Z" fill="#F47B43"/>
<path fill-rule="evenodd" clip-rule="evenodd" d="M62.3999 100.3C61.6999 100.1 60.8999 100.1 60.1999 100.4C59.1999 99.8 58.1999 99.2 57.1999 98.7C57.8999 97.5 58.4999 96.3 59.1999 95.1C59.7999 95.1 60.3999 94.8 60.8999 94.4C61.3999 94 61.7999 93.5 61.9999 92.9C62.0999 92.5 62.1999 92.1 62.1999 91.7C62.1999 91.3 62.0999 90.9 61.8999 90.5C61.6999 90.1 61.4999 89.8 61.1999 89.5C60.8999 89.2 60.4999 89 60.0999 88.9C59.2999 88.6 58.3999 88.7 57.6999 89.1C56.9999 89.5 56.3999 90.1 56.0999 90.9C55.8999 91.4 55.8999 92 55.9999 92.5C56.0999 93 56.2999 93.5 56.6999 94C56.0999 95.1 55.4999 96.2 54.8999 97.3C51.2999 95.4 47.6999 93.4 44.5999 90.8C44.7999 90 44.6999 89.2 44.2999 88.5C43.8999 87.8 43.2999 87.3 42.4999 87C42.0999 86.9 41.6999 86.8 41.2999 86.8C40.8999 86.8 40.4999 86.9 40.0999 87.1C39.6999 87.3 39.3999 87.5 39.0999 87.9C38.7999 88.2 38.5999 88.6 38.4999 89C38.3999 89.4 38.2999 89.8 38.2999 90.2C38.2999 90.6 38.3999 91 38.5999 91.4C38.7999 91.8 38.9999 92.1 39.2999 92.4C39.5999 92.7 39.9999 92.9 40.3999 93C41.0999 93.2 41.8999 93.2 42.5999 92.9L42.6999 93C44.1999 94.3 45.7999 95.4 47.3999 96.4C47.1999 96.6 46.9999 96.8 46.7999 97C44.4999 101.8 42.9999 107.1 40.5999 111.8C39.6999 111.1 38.6999 110.4 37.6999 109.9C38.8999 106.7 40.1999 103.5 41.6999 100.4C42.4999 98.7 39.7999 97.9 39.0999 99.5C37.6999 102.5 36.3999 105.5 35.2999 108.6L34.4999 108.2C34.4999 107.5 34.3999 106.8 33.9999 106.3C33.5999 105.7 33.0999 105.3 32.3999 105.1C31.9999 105 31.5999 104.9 31.1999 104.9C30.7999 104.9 30.3999 105 29.9999 105.2C29.5999 105.4 29.2999 105.6 28.9999 106C28.6999 106.3 28.4999 106.7 28.3999 107.1C28.0999 107.9 28.1999 108.8 28.4999 109.5C28.8999 110.3 29.4999 110.8 30.2999 111.1C30.7999 111.3 31.2999 111.3 31.6999 111.2C32.1999 111.1 32.5999 110.9 32.9999 110.7L35.3999 111.9C36.5999 112.5 38.2999 113.2 39.0999 114.3C39.1999 114.5 39.3999 114.6 39.5999 114.7C39.7999 114.8 40.0999 114.8 40.2999 114.7C40.3999 114.8 40.5999 114.9 40.7999 115C40.9999 115.1 41.1999 115.1 41.3999 115.1C41.5999 115.1 41.7999 115 41.8999 114.9C42.0999 114.8 42.1999 114.6 42.2999 114.5C43.9999 111.4 45.3999 108.2 46.5999 104.8C47.8999 105.5 49.1999 106.3 50.3999 107C50.3999 107 50.3999 107 50.3999 107.1C48.9999 110.3 47.6999 113.5 46.2999 116.6C45.5999 116.6 44.8999 116.8 44.3999 117.2C43.7999 117.6 43.3999 118.2 43.1999 118.8C42.8999 119.6 42.9999 120.5 43.2999 121.2C43.6999 122 44.2999 122.5 45.0999 122.8C45.8999 123.1 46.7999 123 47.4999 122.6C48.1999 122.2 48.7999 121.6 49.0999 120.8C49.2999 120.3 49.2999 119.8 49.1999 119.4C49.0999 119 48.9999 118.4 48.6999 118C50.0999 114.9 51.3999 111.6 52.7999 108.5C53.6999 109.1 54.5999 109.7 55.4999 110.3C56.9999 111.4 58.5999 109 57.0999 108C54.0999 105.8 50.7999 104.1 47.5999 102.2C48.1999 100.7 48.7999 99.3 49.4999 97.9C49.4999 97.8 49.5999 97.7 49.5999 97.6C50.4999 98.1 51.2999 98.6 52.1999 99C52.2999 99 52.2999 99.1 52.3999 99.1C54.3999 100.2 56.3999 101.3 58.2999 102.5C58.0999 103.3 58.1999 104.1 58.5999 104.8C58.9999 105.5 59.5999 106 60.2999 106.3C61.0999 106.6 61.9999 106.5 62.6999 106.1C63.3999 105.7 63.9999 105.1 64.2999 104.3C64.3999 103.9 64.4999 103.5 64.4999 103.1C64.4999 102.7 64.3999 102.3 64.1999 101.9C63.9999 101.5 63.7999 101.2 63.4999 100.9C63.1999 100.7 62.7999 100.5 62.3999 100.3Z" fill="#F47B43"/>
<path d="M308.8 379.7C338 370.9 366.8 341.2 382.6 303.1C398.4 265 426.6 275.6 441.1 296.1C457 318.8 479.6 390.8 420.7 440.4C361.8 490 272.7 459 256.4 439.5C241 421 239.5 406.5 246 394C252.2 382.1 286.5 390.4 308.8 379.7Z" fill="#D2EDFB"/>
<path d="M403.799 289.4C414.199 295.1 419.499 323.4 406.899 355.5C394.399 387.6 380.199 401.7 336.199 412.3C292.199 422.9 257.999 405.4 255.799 397.5C253.599 389.6 274.899 389 297.799 386.5C320.799 384 344.299 384.4 362.699 353.2C381.199 322 392.299 281.4 403.799 289.4Z" fill="#9BC9DD"/>
<path d="M307.181 455.165C306.157 455.368 306.389 456.093 306.701 457.027C307.287 459.294 303.285 457.729 303.861 460.095C304.013 460.612 306.014 458.029 307.491 462.275C307.263 456.197 307.114 463.346 307.412 463.374C307.9 463.522 309.706 468.651 309.482 469.935L309.746 475.114C309.474 476.896 310.4 479.182 311.281 480.472C311.991 481.445 313.375 481.678 314.627 481.196C315.988 480.623 317.179 479.733 318.09 478.615C321.814 474.351 323.341 467.868 321.671 463.287C321.43 462.661 321.189 462.035 321.156 461.329C321.162 460.224 321.765 459.177 322.268 458.12C324.092 453.775 322.659 448.815 319.28 447.386C318.802 447.139 318.304 447.091 317.887 447.252C316.962 447.464 316.17 448.393 315.487 449.231C313.446 451.647 310.857 453.508 308.035 454.644" fill="white"/>
<path d="M313.068 481.749C312.66 481.81 312.528 481.094 313.035 481.042C320.531 479.351 322.05 470.857 321.368 464.362C321.084 463.13 321.109 461.826 321.323 460.641C321.666 459.167 322.487 457.94 322.64 456.347C322.965 452.963 321.709 447.216 317.38 447.303C316.883 447.255 316.85 446.549 317.348 446.597C320.87 446.533 322.474 449.701 323.084 452.773C323.518 454.523 323.536 456.433 323.065 458.196C322.77 459.173 322.286 460.03 322.101 460.917C321.886 462.102 321.971 463.315 322.164 464.439C322.818 471.232 320.981 479.897 313.068 481.749Z" fill="#1C1D1D"/>
<path d="M306.396 454.989C310.062 453.432 313.306 451.031 315.812 447.957C315.921 447.867 315.921 447.867 316.02 447.876C316.12 447.886 316.219 447.895 316.309 448.004C316.409 448.014 316.399 448.114 316.39 448.213C316.38 448.313 316.371 448.412 316.361 448.512C313.747 451.676 310.393 454.167 306.618 455.814C306.211 455.875 305.879 455.14 306.396 454.989Z" fill="#1C1D1D"/>
<path d="M347.901 458.164C346.937 458.565 347.308 459.23 347.798 460.085C348.82 462.191 344.587 461.447 345.619 463.652C345.87 464.129 347.322 461.203 349.608 465.073C348.184 459.16 349.449 466.197 349.748 466.167C350.255 466.215 353.037 470.886 353.071 472.19L354.353 477.214C354.438 479.015 355.797 481.074 356.915 482.165C357.803 482.978 359.206 482.933 360.338 482.213C361.559 481.383 362.551 480.276 363.223 479C366.033 474.085 366.25 467.427 363.709 463.266C363.349 462.7 362.989 462.134 362.818 461.448C362.605 460.365 362.989 459.219 363.274 458.084C364.204 453.464 361.821 448.884 358.227 448.15C357.709 448.002 357.212 448.054 356.834 448.294C355.97 448.685 355.376 449.751 354.872 450.708C353.349 453.479 351.177 455.815 348.635 457.485" fill="white"/>
<path d="M358.918 483.063C358.531 483.204 358.26 482.528 358.747 482.377C365.762 479.24 365.574 470.613 363.624 464.381C363.102 463.228 362.869 461.945 362.846 460.742C362.89 459.229 363.453 457.864 363.289 456.272C362.939 452.89 360.574 447.505 356.348 448.444C355.85 448.496 355.679 447.81 356.176 447.758C359.617 447.001 361.815 449.79 363.018 452.681C363.79 454.311 364.184 456.18 364.071 458.001C363.974 459.016 363.669 459.953 363.662 460.858C363.686 462.062 364.008 463.235 364.419 464.299C366.401 470.83 366.31 479.686 358.918 483.063Z" fill="#1C1D1D"/>
<path d="M347.095 458.147C350.381 455.897 353.088 452.903 354.937 449.395C355.027 449.285 355.027 449.285 355.126 449.275C355.225 449.264 355.325 449.254 355.435 449.343C355.534 449.333 355.544 449.432 355.555 449.532C355.565 449.631 355.575 449.731 355.586 449.83C353.647 453.449 350.851 456.552 347.476 458.912C347.088 459.052 346.618 458.397 347.095 458.147Z" fill="#1C1D1D"/>
<path d="M307.4 364.9C306.3 364 293.1 362.4 279.8 366.8C266.5 371.2 261.7 382.1 261.9 392.2C262.1 403.2 263 404.5 270.4 417.6C275.744 427.122 287.98 442.781 291.238 462.375C291.402 463.361 292.244 464.1 293.244 464.1H373.396C374.85 464.1 375.821 462.607 375.216 461.284C371.892 454.009 363.079 434.852 360.5 430.5C356.7 421.5 343.2 407.2 356.7 405C384.9 400.5 380.2 369.4 380.2 369.4L307.4 364.9Z" fill="#25223A"/>
<path d="M289.5 417.5C293.667 425.333 302.3 443.6 303.5 454" stroke="#1C1D1D"/>
<path d="M322 411C326.167 418.833 334.8 437.1 336 447.5" stroke="#1C1D1D"/>
<path d="M341 418C345.167 425.833 353.8 444.1 355 454.5" stroke="#1C1D1D"/>
<path d="M326.5 380.5C317.167 378.333 296.199 383.8 298.999 397C301.799 410.2 308.833 416.667 314 421.5" stroke="#1C1D1D"/>
<path d="M298 369.5C288.667 367.333 264.699 379.3 267.499 392.5C270.299 405.7 274 409 282 421" stroke="#1C1D1D"/>
<path d="M374.5 377.586C374.5 377.586 376.081 386.557 374.691 387.377C373.301 388.198 371.458 384.671 371.458 384.671C371.458 384.671 371.125 391.994 369.915 389.446L368.232 385.745C368.232 385.745 365.991 393.576 365.475 391.5C365.05 389.588 364.881 387.748 364.796 385.904C364.796 385.904 361.516 391.263 361.172 389.263C360.998 387.34 360.913 385.496 360.908 383.564C360.908 383.564 361.712 379.159 358.265 380.915C354.902 382.666 361.399 374.218 361.399 374.218L374.052 375.586L374.5 377.586Z" fill="#FABEB7"/>
<path d="M374.327 386.957C375.097 384.341 374.606 381.773 374.202 379.113C374.136 378.638 374.817 378.38 374.88 378.949C375.196 381.7 375.848 384.464 374.987 387.265C374.886 387.733 374.142 387.422 374.327 386.957Z" fill="#1C1D1D"/>
<path d="M370.423 389.921C370.943 388.469 371.529 386.594 371.287 385.009C371.18 384.51 371.938 384.559 371.958 384.978C372.203 386.647 371.702 388.518 371.101 390.058C370.953 390.485 370.274 390.348 370.423 389.921Z" fill="#1C1D1D"/>
<path d="M365.706 391.483C366.559 389.932 367.239 388.305 367.661 386.521C367.657 386.438 367.737 386.35 367.82 386.346C367.904 386.342 367.988 386.338 368.072 386.334C368.156 386.33 368.243 386.41 368.247 386.494C368.335 386.574 368.339 386.658 368.343 386.742C367.921 388.525 367.245 390.236 366.313 391.875C366.077 392.222 365.474 391.914 365.706 391.483Z" fill="#1C1D1D"/>
<path d="M361.675 389.654C362.257 389.543 362.889 388.674 363.289 388.236C363.768 387.709 364.156 387.019 364.377 386.337C364.525 385.911 365.203 386.047 365.055 386.474C364.759 387.328 364.287 388.021 363.727 388.635C363.335 389.241 362.62 390.114 361.873 390.317C361.374 390.424 361.176 389.761 361.675 389.654Z" fill="#1C1D1D"/>
<path d="M357.998 381.005C358.581 380.894 359.064 380.452 359.739 380.505C360.162 380.569 360.277 381.236 359.77 381.175C359.179 381.118 358.612 381.565 358.029 381.676C357.53 381.783 357.495 381.028 357.998 381.005Z" fill="#1C1D1D"/>
<path d="M309.299 296.6L313.399 290.4L324.899 276.6L336.499 261.5C336.499 261.5 346.299 269 351.799 270.9C357.299 272.8 366.499 273.7 372.799 272.1C379.099 270.5 384.499 269.3 384.499 269.3L393.299 286.5C393.299 286.5 399.899 299.5 403.599 319.6C407.299 339.7 374.599 375.9 374.599 375.9L360.199 375.3L381.599 324L379.499 370.8L308.999 365.1L318.899 322.1C318.899 322.1 307.299 328 298.499 328.4C289.699 328.8 289.799 318.3 288.599 304.1C287.399 289.9 293.799 265.5 293.799 265.5L308.699 270.5L309.299 296.6Z" fill="#F47B43"/>
<path d="M294.181 265.055C294.181 265.055 293.245 255.994 294.69 255.275C296.135 254.556 297.721 258.205 297.721 258.205C297.721 258.205 298.576 250.925 299.601 253.553L301.016 257.365C301.016 257.365 303.811 249.714 304.177 251.822C304.464 253.759 304.501 255.607 304.455 257.452C304.455 257.452 308.109 252.341 308.31 254.36C308.345 256.291 308.298 258.137 308.166 260.064C308.166 260.064 307.049 264.4 310.612 262.895C314.091 261.388 307.008 269.351 307.008 269.351L294.485 267.082L294.181 265.055Z" fill="#FABEB7"/>
<path d="M295.023 255.721C294.069 258.275 294.375 260.872 294.588 263.554C294.62 264.032 293.922 264.24 293.9 263.668C293.781 260.902 293.328 258.099 294.387 255.366C294.522 254.906 295.242 255.27 295.023 255.721Z" fill="#1C1D1D"/>
<path d="M299.13 253.043C298.507 254.454 297.789 256.282 297.917 257.88C297.988 258.386 297.235 258.283 297.246 257.863C297.12 256.182 297.754 254.351 298.463 252.858C298.641 252.443 299.308 252.628 299.13 253.043Z" fill="#1C1D1D"/>
<path d="M303.945 251.822C302.984 253.308 302.189 254.883 301.641 256.631C301.639 256.715 301.553 256.797 301.469 256.795C301.386 256.793 301.302 256.791 301.218 256.789C301.134 256.787 301.052 256.701 301.054 256.617C300.972 256.531 300.975 256.447 300.977 256.363C301.524 254.614 302.322 252.956 303.369 251.387C303.629 251.058 304.207 251.409 303.945 251.822Z" fill="#1C1D1D"/>
<path d="M307.836 253.934C307.247 254.003 306.555 254.825 306.125 255.234C305.609 255.725 305.172 256.385 304.904 257.05C304.726 257.465 304.059 257.28 304.237 256.865C304.594 256.035 305.114 255.376 305.716 254.804C306.15 254.228 306.926 253.408 307.685 253.259C308.191 253.188 308.342 253.863 307.836 253.934Z" fill="#1C1D1D"/>
<path d="M310.885 262.824C310.295 262.893 309.782 263.3 309.113 263.199C308.695 263.105 308.629 262.431 309.13 262.528C309.715 262.627 310.312 262.222 310.902 262.153C311.407 262.082 311.388 262.837 310.885 262.824Z" fill="#1C1D1D"/>
<path d="M371.2 203.2C371.2 203.2 378.3 208 385.4 218.9C389.6 225.4 393.4 232.2 396.6 239.3L391 243L397.2 252.3L388.5 262.7C389.1 268.1 390.7 273.4 393.3 278.2C397.5 285.5 406.1 307 406.1 307C406.1 307 409.8 318.6 395.2 329.3C380.7 339.9 363.8 355.8 350.4 354.7C337 353.6 321.8 344.8 318.4 341.4C315 337.9 303.3 313.2 303.3 306.4C303.4 299.5 307.9 291.3 316.6 280C325.3 268.7 334.5 257.1 334.5 257.1C334.5 257.1 330.7 238 331 233.8C331.3 229.6 332.1 219.7 341.4 210.7C350.7 201.7 358.5 199.2 364.2 200.9C370.1 202.6 371.2 203.2 371.2 203.2Z" fill="#25223A"/>
<path d="M367.299 211.8C367.299 211.8 370.799 213.8 371.899 220.1C371.999 220.8 372.099 221.5 372.199 222.3C372.899 229.4 372.899 241.9 372.399 244C371.799 246.3 367.499 259.3 360.399 259.4C353.299 259.5 346.799 254.6 344.799 252.4C342.799 250.2 338.499 242.8 338.199 236.2C337.899 229.6 339.499 219.5 343.799 214.9C347.999 210.3 354.299 206 360.299 208.1C366.199 210.3 367.299 211.8 367.299 211.8Z" fill="#FABEB7"/>
<path d="M361.799 215.4C356.399 213.3 352.799 212 348.299 213.8C343.799 215.6 343.699 214.9 343.699 214.9L349.799 209.7C349.799 209.7 354.699 207.4 356.699 207.5C358.699 207.7 365.199 209.2 366.499 211C367.899 212.8 369.399 212.9 370.399 215C371.099 216.6 371.599 218.3 371.899 220L361.799 215.4Z" fill="#F7F7F8"/>
<path d="M356.6 227.4L352.5 241.9L359.4 239.9C359.4 239.9 360.5 238.5 359 239C357.5 239.5 353.7 240.7 353.7 240.7L356.6 227.4Z" fill="#1C1D1D"/>
<path d="M349.299 229.8C349.499 229 349.399 228.2 349.099 228.2C348.799 228.1 348.299 228.7 348.099 229.5C347.899 230.3 347.999 231.1 348.299 231.1C348.699 231.2 349.099 230.6 349.299 229.8Z" fill="#1C1D1D"/>
<path d="M364.299 231.4C364.499 230.6 364.399 229.8 364.099 229.8C363.799 229.7 363.299 230.3 363.099 231.1C362.899 231.9 362.999 232.7 363.299 232.7C363.699 232.9 364.099 232.3 364.299 231.4Z" fill="#1C1D1D"/>
<path d="M370.799 224.3C369.799 221.2 364.499 218.8 361.799 221.2C361.099 221.9 361.999 223.1 362.699 222.5C364.599 220.8 368.599 222.7 369.299 224.9C369.599 225.9 371.099 225.3 370.799 224.3Z" fill="#1C1D1D"/>
<path d="M353.7 219.8C351.9 217 346.2 216 344.2 219C343.6 219.8 344.9 220.8 345.4 220C346.8 217.8 351.1 218.8 352.4 220.7C353 221.5 354.2 220.6 353.7 219.8Z" fill="#1C1D1D"/>
<path d="M369.3 249.3C377.6 248.5 376.3 235.6 368 236.4C359.7 237.2 361 250.1 369.3 249.3Z" fill="#F2685E"/>
<path d="M342.1 248.6C350.4 247.8 349.1 234.9 340.8 235.7C332.5 236.5 333.8 249.4 342.1 248.6Z" fill="#F2685E"/>
<path d="M370 241.8C369.7 242.2 369.5 242.6 369.5 243C369.5 243.1 369.5 243.1 369.6 243.2C369.6 243.3 369.7 243.3 369.8 243.3C369.9 243.3 369.9 243.3 370 243.3C370.1 243.3 370.1 243.2 370.1 243.1C370.2 242.8 370.3 242.4 370.5 242.1C370.6 241.9 370.2 241.5 370 241.8Z" fill="#1C1D1D"/>
<path d="M368.1 241.4C367.8 241.8 367.7 242.2 367.6 242.6C367.6 242.9 368.1 243 368.1 242.7C368.1 242.3 368.2 242 368.4 241.7C368.8 241.5 368.3 241.1 368.1 241.4Z" fill="#1C1D1D"/>
<path d="M339.4 241.5C339.6 241.8 339.7 242.2 339.7 242.6C339.7 243 340.3 242.9 340.2 242.5C340.2 242.1 340.1 241.7 339.9 241.3C339.8 241 339.3 241.2 339.4 241.5Z" fill="#1C1D1D"/>
<path d="M341.299 241.4C341.499 241.7 341.499 242.1 341.499 242.4C341.499 242.7 341.999 242.8 341.999 242.5C341.999 242.1 341.999 241.6 341.799 241.2C341.599 240.9 341.099 241.1 341.299 241.4Z" fill="#1C1D1D"/>
<path d="M375.3 262.3C371.2 271.7 364.3 279.7 355.6 285C355.1 285.3 355.6 285.9 356.1 285.7C365 280.2 371.9 272.2 376.1 262.6C376.1 262.5 376.1 262.4 376.1 262.3C376.1 262.2 376 262.1 375.9 262.1C375.8 262.1 375.7 262.1 375.6 262.1C375.4 262.2 375.4 262.2 375.3 262.3Z" fill="#1C1D1D"/>
<path d="M385.899 276.7C382.799 281.7 378.899 286.1 374.399 289.8C369.899 293.5 363.699 298 357.599 298C357.099 298 357.199 298.8 357.699 298.8C363.499 298.7 369.399 294.6 373.899 291.2C378.899 287.3 383.199 282.5 386.499 277.2C386.799 276.8 386.199 276.3 385.899 276.7Z" fill="#1C1D1D"/>
<path d="M336.8 249C336.9 249 336.9 248.9 337 248.8C337 248.7 337.1 248.6 337.1 248.6C337.1 248.5 337.1 248.4 337 248.4C336.9 248.3 336.9 248.3 336.8 248.3C336.7 248.3 336.7 248.4 336.6 248.5C336.6 248.6 336.5 248.7 336.5 248.7C336.5 248.8 336.5 248.9 336.6 248.9C336.6 249 336.7 249 336.8 249Z" fill="#1C1D1D"/>
<path d="M369 252C366.1 255.7 363.1 259.2 358 259.2C353.3 259.2 349.4 256.4 346 253.3C345.6 252.9 345.1 253.6 345.5 253.9C349.2 257.2 353.5 260.2 358.7 260C363.7 259.7 366.8 256.1 369.7 252.4C369.9 252 369.3 251.5 369 252Z" fill="#1C1D1D"/>
<path d="M384.2 226.3C384.7 234.9 383.4 243.5 380.4 251.6C380.2 252.1 381 252.4 381.2 251.9C384.2 243.7 385.5 235 385 226.2C384.9 225.7 384.2 225.8 384.2 226.3Z" fill="#1C1D1D"/>
<path d="M371.2 217.8C372.7 224 373.3 230.3 373 236.6C373 237.1 373.8 237.3 373.8 236.7C374.2 230.2 373.6 223.7 372 217.4C371.8 217 371 217.3 371.2 217.8Z" fill="#1C1D1D"/>
<path d="M342.099 215.9C339.199 221.9 337.599 228.4 337.399 235C337.399 235.5 338.199 235.4 338.199 234.9C338.399 228.4 339.999 222 342.899 216.2C343.099 215.8 342.399 215.5 342.099 215.9Z" fill="#1C1D1D"/>
<path d="M337.599 261.1C340.199 264.4 341.799 269.7 346.799 269.8C347.299 269.8 347.199 269 346.699 269C342.199 268.9 340.599 263.6 338.199 260.6C337.899 260.2 337.299 260.8 337.599 261.1Z" fill="#1C1D1D"/>
<path d="M351.199 286C347.599 288.1 342.299 285.8 338.699 284.5C335.399 283.2 332.299 281.6 329.299 279.8C328.899 279.5 328.299 280.2 328.799 280.4C332.899 283 337.399 285.1 342.099 286.5C345.299 287.5 348.599 288.4 351.599 286.6C352.099 286.4 351.599 285.8 351.199 286Z" fill="#1C1D1D"/>
<path d="M351.7 297.7C346.3 298 341 297.1 336 295C333.1 293.7 330.1 290.2 326.7 290.7C326.2 290.8 326.3 291.6 326.8 291.5C328.8 291.2 332.1 294 334 294.9C335.7 295.8 337.5 296.5 339.3 297.1C343.3 298.3 347.6 298.8 351.8 298.5C352.3 298.5 352.2 297.7 351.7 297.7Z" fill="#1C1D1D"/>
<path d="M389.199 297.7C387.399 303.5 384.399 308.9 380.499 313.5C376.499 318.1 371.699 321.9 366.199 324.6C360.699 327.3 354.799 328.8 348.699 329.1C342.599 329.4 336.499 328.5 330.799 326.4C330.299 326.2 329.999 327 330.499 327.2C336.299 329.4 342.499 330.3 348.699 330C354.899 329.7 360.899 328.1 366.499 325.4C372.099 322.7 376.999 318.9 381.099 314.2C385.099 309.5 388.199 304 389.999 298.1C390.099 297.5 389.399 297.2 389.199 297.7Z" fill="#1C1D1D"/>
<path d="M333.299 258.6C323.399 270.9 313.999 283.6 305.099 296.7C304.799 297.1 305.399 297.7 305.699 297.2C314.599 284.1 323.999 271.4 333.899 259.1C334.199 258.7 333.599 258.2 333.299 258.6Z" fill="#1C1D1D"/>
<path d="M343.599 208.4C337.799 213.1 333.699 219.5 331.699 226.6C329.799 233.8 330.099 241.4 332.699 248.3C332.799 248.4 332.799 248.4 332.899 248.5C332.999 248.5 333.099 248.5 333.199 248.5C333.299 248.5 333.399 248.4 333.399 248.3C333.399 248.2 333.499 248.1 333.399 248C330.799 241.2 330.499 233.8 332.399 226.8C334.299 219.8 338.299 213.6 343.999 209C344.499 208.7 343.999 208.1 343.599 208.4Z" fill="#1C1D1D"/>
<path d="M387.1 256.9C387.7 261.9 388.6 267 389.6 271.9C389.7 272.4 390.5 272.3 390.4 271.8C389.4 266.8 388.5 261.8 387.9 256.8C387.9 256.7 387.8 256.7 387.7 256.6C387.6 256.6 387.5 256.5 387.5 256.5C387.4 256.5 387.3 256.5 387.3 256.6C387.2 256.7 387.2 256.8 387.1 256.9Z" fill="#1C1D1D"/>
<path d="M388.599 226.5C389.499 231.6 389.799 236.7 389.499 241.9C389.499 242.4 390.299 242.6 390.299 242C390.599 236.8 390.299 231.6 389.499 226.4C389.299 225.9 388.499 226 388.599 226.5Z" fill="#1C1D1D"/>
<path d="M396.799 251.4C395.099 249 393.399 246.7 391.399 244.5C391.099 244.1 390.399 244.6 390.699 245C392.599 247.2 394.399 249.5 396.099 251.9C396.399 252.4 397.099 251.9 396.799 251.4Z" fill="#1C1D1D"/>
<path d="M396.4 237.3L391.3 228.2C391 227.7 390.4 228.2 390.6 228.7L395.7 237.8C396 238.2 396.7 237.7 396.4 237.3Z" fill="#1C1D1D"/>
<path d="M397.699 289.4C401.199 295.9 403.499 302.1 405.699 309.1C405.899 309.6 406.599 309.3 406.499 308.8C404.199 301.8 401.899 295.4 398.399 288.9C398.099 288.4 397.499 288.9 397.699 289.4Z" fill="#1C1D1D"/>
<path d="M404.8 318.9C397.4 327.5 388.8 335 379.3 341.3C378.9 341.6 379.3 342.3 379.8 342C389.3 335.7 398 328.1 405.4 319.5C405.8 319 405.1 318.4 404.8 318.9Z" fill="#1C1D1D"/>
<path d="M356.066 253.338C357.098 253.148 357.724 251.849 357.463 250.437C357.203 249.024 356.155 248.034 355.123 248.224C354.091 248.414 353.466 249.713 353.726 251.126C353.987 252.538 355.034 253.528 356.066 253.338Z" fill="#972724"/>
<path d="M363.699 366.8L372.399 346.3" stroke="#1C1D1D" stroke-width="1.0328" stroke-miterlimit="10" stroke-linecap="round"/>
<path d="M302.799 327.4L297.099 328.4C297.099 328.4 292.199 328.8 290.399 320.3" stroke="#1C1D1D" stroke-width="0.8308" stroke-miterlimit="10" stroke-linecap="round"/>
<path d="M108.6 256.6L107.9 264.6L111.1 281.6L121.1 282.3L128.4 273.6L132.1 265.2L125.3 263L124.7 254.5" fill="#FABEB7"/>
<path d="M115.3 209.5C121.2 207.7 126.9 212.3 130.8 216.9C134.6 221.5 135.7 231.4 135 237.8C134.4 244.2 129.9 251.1 127.8 253.1C125.7 255.1 119.2 259.5 112.5 259.1C105.7 258.7 99.0005 244.9 98.6005 242.7C98.2005 240.7 98.1005 230.2 99.1005 223.4C99.2005 222.6 99.5005 218.6 99.7005 217.9C103.4 213 108.3 212.7 108.3 212.7C108.3 212.7 109.4 211.2 115.3 209.5Z" fill="#FABEB7"/>
<path d="M100.201 230.6C100.101 229 99.7007 222.7 102.401 219.6C104.301 217.4 107.801 216.7 110.201 217C113.201 217.4 114.001 219.2 117.101 219.1C119.101 219 119.101 218.3 121.901 217.8C124.901 217.3 125.801 218.1 129.001 217.8C131.701 217.6 133.001 217.5 134.301 216.6C137.401 214.5 138.301 209.5 137.201 205.7C137.001 205.2 135.901 201.3 132.101 199.3C129.501 197.9 126.001 197.6 125.301 198.8C124.901 199.5 125.801 200.2 125.601 201.3C125.101 203 122.201 203.6 120.901 203.9C117.601 204.6 116.501 203.8 112.201 203.8C107.601 203.7 104.201 204.4 103.101 204.7C100.101 205.4 98.6007 205.7 97.0007 206.8C92.5007 209.8 91.5007 215.4 91.3007 216.4C91.0007 217.8 91.1007 220.8 91.3007 226.8C91.4007 228.5 91.3007 229 91.4007 229.8C92.1007 233.7 94.8007 237.8 97.0007 237.5C98.6007 237.3 99.6007 234.6 99.7007 234.1C100.401 232.5 100.201 231.2 100.201 230.6Z" fill="#1C1D1D"/>
<path d="M100 235C99.4005 238.5 101.4 243 98.8005 242.8C96.2005 242.6 91.9004 237.1 92.2004 233.5C92.5004 229.9 95.0005 223.1 98.5005 230.1C99.7005 232.6 100.5 232.3 100 235Z" fill="#FABEB7"/>
<path d="M164.1 379.7C134.9 370.9 106.1 341.2 90.3004 303.1C74.5004 265 46.3004 275.6 31.8004 296.1C15.9004 318.8 -6.69963 390.8 52.2004 440.4C111.1 490 200.2 459 216.5 439.5C231.9 421 233.4 406.5 226.9 394C220.7 382.1 186.4 390.4 164.1 379.7Z" fill="#D2EDFB"/>
<path d="M69.1 289.4C58.7 295.1 53.4 323.4 66 355.5C78.5 387.6 92.7 401.7 136.7 412.3C180.7 422.9 214.9 405.4 217.1 397.5C219.3 389.6 198 389 175.1 386.5C152.1 384 128.6 384.4 110.2 353.2C91.7 322 80.6 281.4 69.1 289.4Z" fill="#9BC9DD"/>
<path d="M123.773 458.892C124.643 458.315 124.99 458.994 125.426 459.877C126.606 461.898 131.284 463.914 132.541 466C132.798 466.473 132.845 466.422 132 466.5C131.155 466.577 130.692 466.769 130.5 467C130.257 467.448 131.478 470.245 132.541 471L136 474.863C137.448 475.937 138.4 478.212 138.684 479.748C138.864 480.939 138.046 482.079 136.817 482.618C135.447 483.17 133.975 483.376 132.541 483.224C126.894 482.819 121.244 479.291 119.205 474.863C118.935 474.248 118.666 473.634 118.191 473.11C117.41 472.329 116.244 472.01 115.143 471.614C110.788 469.813 108.312 465.283 109.705 461.889C109.871 461.376 110.191 460.992 110.6 460.812C111.406 460.312 112.623 460.414 113.698 460.528C116.848 460.807 119.998 460.304 122.8 459.124" fill="white"/>
<path d="M138.315 481.912C138.647 481.669 138.237 481.068 137.84 481.388C131.327 485.466 124.268 480.504 120.178 475.412C119.512 474.338 118.576 473.429 117.59 472.739C116.308 471.933 114.861 471.64 113.631 470.617C111.017 468.443 107.863 463.478 110.997 460.492C111.317 460.107 110.843 459.583 110.523 459.967C107.977 462.402 109.069 465.782 110.8 468.392C111.723 469.94 113.056 471.309 114.631 472.229C115.528 472.715 116.476 472.983 117.232 473.482C118.218 474.172 119.013 475.093 119.667 476.027C123.987 481.311 131.392 486.17 138.315 481.912Z" fill="#1C1D1D"/>
<path d="M124.208 458.214C120.51 459.689 116.515 460.269 112.571 459.851C112.431 459.863 112.431 459.863 112.367 459.94C112.303 460.017 112.239 460.094 112.252 460.235C112.188 460.312 112.265 460.376 112.341 460.44C112.418 460.504 112.495 460.568 112.572 460.632C116.657 461.037 120.792 460.445 124.632 458.956C124.964 458.712 124.682 457.957 124.208 458.214Z" fill="#1C1D1D"/>
<path d="M174.773 456.892C175.643 456.315 175.99 456.994 176.426 457.877C177.606 459.899 182.284 461.914 183.541 464C183.798 464.473 183.845 464.422 183 464.5C182.155 464.577 181.692 464.769 181.5 465C181.257 465.448 182.478 468.245 183.541 469L187 472.863C188.448 473.937 189.4 476.212 189.684 477.748C189.864 478.939 189.046 480.079 187.817 480.618C186.447 481.17 184.975 481.376 183.541 481.224C177.894 480.82 172.244 477.291 170.205 472.863C169.935 472.249 169.666 471.634 169.191 471.11C168.41 470.329 167.244 470.01 166.143 469.615C161.788 467.813 159.312 463.283 160.705 459.889C160.871 459.377 161.191 458.992 161.6 458.813C162.406 458.312 163.623 458.414 164.698 458.528C167.848 458.807 170.998 458.304 173.8 457.124" fill="white"/>
<path d="M189.315 479.913C189.647 479.669 189.237 479.068 188.84 479.388C182.327 483.466 175.268 478.505 171.178 473.413C170.512 472.338 169.576 471.429 168.59 470.739C167.308 469.934 165.861 469.64 164.631 468.617C162.017 466.443 158.863 461.478 161.997 458.492C162.317 458.108 161.843 457.583 161.523 457.968C158.977 460.403 160.069 463.782 161.8 466.392C162.723 467.94 164.056 469.309 165.631 470.23C166.528 470.715 167.476 470.983 168.232 471.482C169.218 472.172 170.013 473.094 170.667 474.028C174.987 479.311 182.392 484.17 189.315 479.913Z" fill="#1C1D1D"/>
<path d="M175.208 456.214C171.51 457.69 167.515 458.269 163.571 457.851C163.431 457.864 163.431 457.864 163.367 457.94C163.303 458.017 163.239 458.094 163.252 458.235C163.188 458.312 163.265 458.376 163.341 458.44C163.418 458.504 163.495 458.568 163.572 458.632C167.657 459.038 171.792 458.445 175.632 456.956C175.964 456.712 175.682 455.957 175.208 456.214Z" fill="#1C1D1D"/>
<path d="M126.6 367.3C127.7 366.4 136.6 372.6 149.8 377C163.1 381.4 163.3 387 163.1 397.1C162.9 408.1 160.8 416.4 153.4 429.5C148.048 439.036 144.211 447.436 134.426 465.756C133.918 466.708 132.933 467.316 131.853 467.342L108.894 467.89C106.729 467.942 105.222 465.764 106.053 463.764C109.753 454.86 118.223 434.68 120.7 430.5C125.5 422.3 129.6 407.1 116.2 404.9C88 400.4 92.7 369.3 92.7 369.3L126.6 367.3Z" fill="#25223A"/>
<path d="M161.9 365.4C163 364.5 171 371.7 184.3 376C197.6 380.4 204.4 381 204.1 391.1C203.9 402.1 202.2 405.4 198.3 419.5C194.681 432.607 192.784 443.897 185.496 463.945C185.203 464.751 184.422 465.284 183.564 465.26L159.44 464.58C158.057 464.541 157.123 463.158 157.621 461.867C160.827 453.557 170.567 428.035 171.9 421.2C173.7 411.9 165.1 405.2 151.6 403C123.4 398.5 128.1 367.4 128.1 367.4L161.9 365.4Z" fill="#25223A"/>
<path d="M149.5 380C160.5 385.5 166.62 395.112 162.5 407.961C157.999 422 153 429 149.5 436" stroke="#1C1D1D"/>
<path d="M204.1 274L217.2 281.7C217.2 281.7 202.9 301.8 189.6 313.7C181.9 323.7 180.2 325.3 174.2 328.4C165.4 328 153.8 322.1 153.8 322.1L163.7 365.1L93.2001 370.8L91.1001 324L112.5 375.3L98.2001 376C98.2001 376 65.5001 339.8 69.2001 319.7C72.9001 299.6 79.5001 286.6 79.5001 286.6L94.6001 262.5C94.6001 262.5 98.2001 262.4 103.3 261.8C115.6 260.3 106.9 271.8 117.6 271.8C127.3 271.2 122.3 261.5 126.6 261.5C132 261.5 136.3 261.6 136.3 261.6L147.9 276.7L159.4 290.5L169.8 302.6L204.1 274Z" fill="#F47B43"/>
<path d="M98.7285 378.016C98.7285 378.016 97.1473 386.987 98.5372 387.808C99.9271 388.628 101.77 385.102 101.77 385.102C101.77 385.102 102.103 392.425 103.313 389.877L104.996 386.175C104.996 386.175 107.238 394.006 107.754 391.93C108.178 390.018 108.347 388.178 108.433 386.334C108.433 386.334 111.712 391.694 112.057 389.694C112.23 387.77 112.315 385.926 112.321 383.994C112.321 383.994 111.517 379.589 114.963 381.345C118.326 383.096 111.83 374.648 111.83 374.648L99.1768 376.016L98.7285 378.016Z" fill="#FABEB7"/>
<path d="M98.9015 387.387C98.1315 384.771 98.6228 382.203 99.0267 379.543C99.0929 379.068 98.4115 378.811 98.3489 379.38C98.0324 382.131 97.3805 384.894 98.2413 387.695C98.3429 388.163 99.0869 387.852 98.9015 387.387Z" fill="#1C1D1D"/>
<path d="M102.806 390.351C102.285 388.899 101.7 387.024 101.941 385.44C102.048 384.941 101.29 384.99 101.271 385.409C101.026 387.077 101.527 388.948 102.128 390.488C102.276 390.915 102.954 390.778 102.806 390.351Z" fill="#1C1D1D"/>
<path d="M107.522 391.914C106.67 390.362 105.989 388.735 105.568 386.952C105.572 386.868 105.492 386.78 105.408 386.776C105.324 386.772 105.24 386.768 105.157 386.765C105.073 386.761 104.985 386.841 104.981 386.924C104.894 387.004 104.89 387.088 104.886 387.172C105.307 388.955 105.984 390.667 106.916 392.306C107.152 392.653 107.754 392.344 107.522 391.914Z" fill="#1C1D1D"/>
<path d="M111.554 390.084C110.971 389.974 110.339 389.104 109.94 388.666C109.46 388.14 109.072 387.45 108.852 386.768C108.703 386.341 108.025 386.477 108.173 386.904C108.47 387.758 108.942 388.452 109.501 389.065C109.893 389.672 110.609 390.545 111.355 390.747C111.854 390.854 112.053 390.192 111.554 390.084Z" fill="#1C1D1D"/>
<path d="M115.23 381.435C114.648 381.324 114.164 380.882 113.49 380.935C113.067 380.999 112.952 381.666 113.459 381.605C114.049 381.549 114.616 381.995 115.199 382.106C115.698 382.213 115.733 381.459 115.23 381.435Z" fill="#1C1D1D"/>
<path d="M217.873 279.87C217.873 279.87 224.541 273.663 223.926 272.171C223.311 270.679 219.715 272.383 219.715 272.383C219.715 272.383 223.862 266.338 221.361 267.642L217.787 269.582C217.787 269.582 220.718 261.982 219.055 263.327C217.564 264.598 216.32 265.964 215.141 267.384C215.141 267.384 215.753 261.131 214.273 262.519C212.975 263.95 211.796 265.37 210.628 266.908C210.628 266.908 208.615 270.908 206.922 267.43C205.294 264.006 205.388 274.663 205.388 274.663L216.31 281.196L217.873 279.87Z" fill="#FABEB7"/>
<path d="M223.381 272.287C222.419 274.839 220.48 276.592 218.555 278.471C218.216 278.81 218.604 279.427 218.997 279.01C220.907 277.006 223.093 275.193 224.094 272.439C224.295 272.004 223.514 271.804 223.381 272.287Z" fill="#1C1D1D"/>
<path d="M222.052 267.569C221.593 269.041 220.93 270.89 219.782 272.01C219.396 272.343 220.03 272.761 220.298 272.438C221.5 271.255 222.227 269.459 222.676 267.869C222.815 267.439 222.191 267.139 222.052 267.569Z" fill="#1C1D1D"/>
<path d="M219.23 263.48C218.975 265.232 218.537 266.941 217.799 268.618C217.745 268.682 217.756 268.801 217.821 268.854C217.885 268.908 217.95 268.961 218.014 269.015C218.079 269.069 218.197 269.058 218.251 268.993C218.369 268.982 218.423 268.918 218.476 268.853C219.215 267.176 219.706 265.402 219.95 263.533C219.97 263.114 219.304 262.997 219.23 263.48Z" fill="#1C1D1D"/>
<path d="M214.91 262.51C215.308 262.95 215.288 264.024 215.343 264.615C215.409 265.324 215.303 266.108 215.067 266.786C214.928 267.216 215.552 267.515 215.691 267.085C215.969 266.225 216.01 265.387 215.934 264.56C215.986 263.841 215.941 262.713 215.468 262.101C215.134 261.715 214.576 262.124 214.91 262.51Z" fill="#1C1D1D"/>
<path d="M206.765 267.197C207.163 267.637 207.282 268.282 207.852 268.646C208.229 268.849 208.722 268.387 208.281 268.13C207.776 267.819 207.592 267.121 207.194 266.681C206.86 266.295 206.377 266.876 206.765 267.197Z" fill="#1C1D1D"/>
<path d="M119.2 240.7C119.2 240.7 115.3 239.5 113.9 239C112.4 238.5 113.5 239.9 113.5 239.9L120.4 241.9L116.3 227.4L119.2 240.7Z" fill="#1C1D1D"/>
<path d="M124.501 231.1C124.801 231 124.901 230.3 124.701 229.5C124.501 228.7 124.001 228.1 123.701 228.2C123.401 228.3 123.301 229 123.501 229.8C123.801 230.6 124.201 231.2 124.501 231.1Z" fill="#1C1D1D"/>
<path d="M109.501 232.8C109.801 232.7 109.901 232 109.701 231.2C109.501 230.4 109.001 229.8 108.701 229.9C108.401 230 108.301 230.7 108.501 231.5C108.801 232.3 109.201 232.9 109.501 232.8Z" fill="#1C1D1D"/>
<path d="M111 220.6C111.1 219.6 109.6 219.3 109.5 220.4C109.2 222.7 105.7 225.4 103.5 224.1C102.7 223.6 102 225 102.9 225.5C105.9 227.3 110.6 223.8 111 220.6Z" fill="#1C1D1D"/>
<path d="M122.701 249.7C123.401 249 120.701 247.3 119.901 248C117.701 248.8 117.201 248.9 116.001 247.1C115.701 246.2 113.001 247.1 113.301 248C114.501 251.4 120.301 251.9 122.701 249.7Z" fill="#972724"/>
<path d="M128.7 220.4C129.5 219.8 128.6 218.5 127.8 219.1C125.9 220.5 121.6 219.9 121 217.3C120.8 216.3 119.3 216.8 119.5 217.8C120.4 221.4 126.1 222.4 128.7 220.4Z" fill="#1C1D1D"/>
<path d="M102.9 241.8C102.7 241.5 102.3 241.9 102.5 242.1C102.7 242.4 102.9 242.7 102.9 243.1C102.9 243.2 103 243.2 103 243.3C103.1 243.3 103.1 243.3 103.2 243.3C103.3 243.3 103.3 243.3 103.4 243.2C103.5 243.1 103.5 243.1 103.5 243C103.4 242.6 103.2 242.2 102.9 241.8Z" fill="#1C1D1D"/>
<path d="M104.7 241.4C104.5 241.1 104.1 241.5 104.3 241.7C104.5 242 104.6 242.3 104.6 242.7C104.6 243 105.2 243 105.1 242.6C105.2 242.2 105 241.8 104.7 241.4Z" fill="#1C1D1D"/>
<path d="M133.4 241.5C133.6 241.2 133 241 132.9 241.3C132.7 241.7 132.6 242.1 132.6 242.5C132.6 242.9 133.1 242.9 133.1 242.6C133.2 242.2 133.3 241.8 133.4 241.5Z" fill="#1C1D1D"/>
<path d="M131.601 241.4C131.801 241.1 131.301 240.9 131.101 241.2C130.901 241.6 130.801 242.1 130.901 242.5C130.901 242.8 131.501 242.8 131.401 242.4C131.401 242.1 131.401 241.7 131.601 241.4Z" fill="#1C1D1D"/>
<path d="M112.3 256.7C111.9 256.6 111.6 257.1 112 257.2C115.5 258.1 119.2 258.8 123.2 256.9C127.4 254.9 129.8 251.5 131.6 248.2C131.8 247.8 131.2 247.7 131 248.1C129.3 251.2 127.2 254.3 123.4 256.2C119.4 258.3 115.8 257.6 112.3 256.7Z" fill="#1C1D1D"/>
<path d="M166.7 327.1L174.2 328.4C174.2 328.4 178 326.9 184 320.8" stroke="#1C1D1D" stroke-width="0.8308" stroke-miterlimit="10" stroke-linecap="round"/>
<path d="M145.101 287.6L157.501 337.9" stroke="#1C1D1D" stroke-width="0.8308" stroke-miterlimit="10" stroke-linecap="round"/>
<path d="M97.3 302.5C95.3 306.1 90.9 315.2 93.1 326.2C93.8 329.6 94.9 331.9 95.9 334.1C98.9 340.7 103 350.4 107.6 363.5" stroke="#1C1D1D" stroke-width="0.8965" stroke-miterlimit="10" stroke-linecap="round"/>
<defs>
<filter id="filter0_d_5562_241" x="21.5596" y="29.5598" width="420.681" height="471.98" filterUnits="userSpaceOnUse" color-interpolation-filters="sRGB">
<feFlood flood-opacity="0" result="BackgroundImageFix"/>
<feColorMatrix in="SourceAlpha" type="matrix" values="0 0 0 0 0 0 0 0 0 0 0 0 0 0 0 0 0 0 127 0" result="hardAlpha"/>
<feOffset dx="-5" dy="10"/>
<feGaussianBlur stdDeviation="2"/>
<feComposite in2="hardAlpha" operator="out"/>
<feColorMatrix type="matrix" values="0 0 0 0 0 0 0 0 0 0 0 0 0 0 0 0 0 0 0.25 0"/>
<feBlend mode="normal" in2="BackgroundImageFix" result="effect1_dropShadow_5562_241"/>
<feBlend mode="normal" in="SourceGraphic" in2="effect1_dropShadow_5562_241" result="shape"/>
</filter>
</defs>
</svg>
